<svg width="12" height="12" viewBox="0 0 12 12" fill="none" xmlns="http://www.w3.org/2000/svg">
<path d="M4.59388 5.95833C2.56155 5.95833 1.61471 5.0115 1.61471 2.97917C1.61471 0.946833 2.56155 0 4.59388 0C6.62621 0 7.57305 0.946833 7.57305 2.97917C7.57305 5.0115 6.62621 5.95833 4.59388 5.95833ZM7.97442 7.488C7.92242 7.19387 7.64671 7.00267 7.34663 7.04979C7.05251 7.10233 6.85642 7.38292 6.90788 7.67758C6.90897 7.68354 6.99563 8.19379 7.02488 8.98192C6.85805 8.95592 6.67713 8.93696 6.49351 8.93696C6.30988 8.93696 6.12896 8.95592 5.96213 8.98192C5.99138 8.19379 6.07805 7.68354 6.07913 7.67758C6.13113 7.38292 5.93451 7.10233 5.64038 7.04979C5.34138 7.0005 5.06459 7.19387 5.01259 7.488C5.00663 7.52104 4.86851 8.30754 4.86851 9.47917C4.86038 10.3973 5.00717 11.5169 5.01259 11.4703C5.06351 11.7666 5.35276 11.9616 5.64038 11.9085C5.93451 11.856 6.13059 11.5754 6.07913 11.2807C6.07805 11.2748 5.99896 10.809 5.96646 10.082C6.12355 10.0495 6.30988 10.0214 6.49351 10.0214C6.67713 10.0214 6.86401 10.0495 7.02055 10.082C6.98805 10.8095 6.90897 11.2753 6.90788 11.2813C6.85588 11.576 7.05251 11.8565 7.34663 11.9091C7.63426 11.9622 7.92351 11.7672 7.97442 11.4709C7.98092 11.5039 8.12609 10.407 8.11851 9.47971C8.11851 8.30808 7.98038 7.52104 7.97442 7.488ZM11.3154 9.88542C11.5245 10.1942 11.7785 10.6632 11.8993 11.2688C11.9578 11.5624 11.7677 11.8473 11.4747 11.9064C11.1887 11.966 10.8945 11.7769 10.8371 11.4817C10.7017 10.8041 10.3285 10.3561 10.244 10.2613C10.0999 10.2787 9.94717 10.2906 9.77763 10.2917C9.82801 10.8777 9.91576 11.2396 9.91684 11.245C9.98834 11.5348 9.81122 11.8284 9.52142 11.9004C9.23922 11.9725 8.93696 11.798 8.86601 11.5061C8.85734 11.4725 8.66017 10.6697 8.66017 9.48079C8.66017 8.29183 8.85734 7.488 8.86601 7.45496C8.92559 7.21392 9.1428 7.04437 9.39142 7.04437H9.78522C10.3133 7.046 11.9107 7.05142 11.9107 8.62496C11.9107 8.99925 11.8062 9.52467 11.3154 9.88542ZM10.8268 8.62496C10.8268 8.37579 10.8268 8.13962 9.84155 8.12825C9.80255 8.38825 9.7603 8.75983 9.7473 9.20833C10.8268 9.20833 10.8268 8.85733 10.8268 8.62496ZM3.78517 9.47917C3.8193 7.94354 3.87942 7.53729 4.01321 7.05954C1.32113 7.22367 0.0769229 8.56862 0.000547919 11.3604C-0.0135354 11.6567 0.245923 11.9226 0.542215 11.9167H4.01538C3.98613 11.8338 3.96176 11.7487 3.94551 11.6594C3.92926 11.5667 3.78517 10.719 3.78517 9.47917Z" fill="#6FBE3E"/>
</svg>
