<svg width="13" height="13" viewBox="0 0 13 13" fill="none" xmlns="http://www.w3.org/2000/svg">
<path d="M7.03388 11.9015H3.0761C2.35494 11.8885 1.65989 11.6292 1.10635 11.1666C0.552814 10.704 0.174069 10.066 0.03299 9.35835C-0.0588715 8.74948 0.0422453 8.12711 0.322136 7.57868C0.602028 7.03025 1.04663 6.58331 1.59349 6.30064C1.12391 5.44644 0.970671 4.45389 1.16077 3.49777C1.34568 2.55212 1.84071 1.69521 2.56745 1.0628C3.29419 0.43038 4.21109 0.0586073 5.17291 0.00636872C6.13473 -0.0458698 7.08647 0.224412 7.87739 0.774402C8.6683 1.32439 9.25316 2.12264 9.53933 3.04271C9.56656 3.13583 9.61643 3.22074 9.68449 3.28986C9.75255 3.35898 9.83666 3.41015 9.92932 3.43879C10.5254 3.62141 11.0752 3.93035 11.5412 4.34458C11.4817 4.34025 11.4233 4.32619 11.3611 4.32619C10.728 4.32704 10.1151 4.54967 9.62899 4.95542C9.14285 5.36117 8.81412 5.92442 8.69985 6.54737L8.24171 6.7768C7.86705 6.58811 7.45334 6.49007 7.03388 6.49056C6.3166 6.49056 5.6287 6.7756 5.1215 7.28297C4.61431 7.79035 4.32937 8.47849 4.32937 9.19603C4.32937 9.91356 4.61431 10.6017 5.1215 11.1091C5.6287 11.6165 6.3166 11.9015 7.03388 11.9015ZM11.3611 8.65493C11.682 8.65493 11.9958 8.55973 12.2626 8.38136C12.5295 8.20299 12.7375 7.94947 12.8603 7.65285C12.9831 7.35624 13.0152 7.02985 12.9526 6.71497C12.89 6.40008 12.7355 6.11084 12.5085 5.88382C12.2816 5.6568 11.9924 5.5022 11.6777 5.43956C11.3629 5.37693 11.0366 5.40907 10.7401 5.53194C10.4436 5.6548 10.1902 5.86286 10.0119 6.12981C9.83355 6.39675 9.73838 6.7106 9.73838 7.03165C9.74093 7.09748 9.74761 7.16308 9.7584 7.22807L8.15733 8.02943C7.92832 7.80777 7.63913 7.65846 7.32585 7.60014C7.01256 7.54182 6.68905 7.57707 6.39566 7.70148C6.10227 7.82589 5.85199 8.03397 5.67604 8.29975C5.5001 8.56553 5.40627 8.87725 5.40627 9.19603C5.40627 9.5148 5.5001 9.82652 5.67604 10.0923C5.85199 10.3581 6.10227 10.5662 6.39566 10.6906C6.68905 10.815 7.01256 10.8502 7.32585 10.7919C7.63913 10.7336 7.92832 10.5843 8.15733 10.3626L9.7584 11.164C9.74761 11.229 9.74093 11.2946 9.73838 11.3604C9.73649 11.7369 9.86482 12.1024 10.1016 12.395C10.3384 12.6877 10.6691 12.8894 11.0376 12.9659C11.4061 13.0425 11.7897 12.9892 12.1234 12.8151C12.4571 12.641 12.7203 12.3568 12.8684 12.0107C13.0165 11.6646 13.0404 11.2779 12.936 10.9161C12.8316 10.5544 12.6054 10.24 12.2957 10.0261C11.986 9.81217 11.6119 9.71202 11.2368 9.74259C10.8616 9.77316 10.5087 9.93258 10.2376 10.1938L8.63657 9.39244C8.64735 9.32746 8.65404 9.26185 8.65658 9.19603C8.65404 9.1302 8.64735 9.0646 8.63657 8.99961L10.2376 8.19825C10.5386 8.49067 10.9415 8.65446 11.3611 8.65493Z" fill="#6FBE3E"/>
</svg>
