<svg width="14" height="13" viewBox="0 0 14 13" fill="none" xmlns="http://www.w3.org/2000/svg">
<g clip-path="url(#clip0_1_1842)">
<path d="M7 0C3.14008 0 0 2.91579 0 6.5C0 10.0842 3.14008 13 7 13C10.8599 13 14 10.0842 14 6.5C14 2.91579 10.8599 0 7 0ZM12.0505 3.79167H10.1663C9.70433 2.76954 9.06383 1.90179 8.51375 1.26858C10.0193 1.6445 11.2858 2.56696 12.0505 3.79167ZM5.11583 9.20833H8.88417C8.28917 10.3328 7.47542 11.225 7 11.6935C6.52458 11.225 5.71083 10.3328 5.11583 9.20833ZM8.88417 3.79167H5.11583C5.71083 2.66717 6.52458 1.77504 7 1.3065C7.47542 1.77504 8.28917 2.66717 8.88417 3.79167ZM8.46008 5.46379L8.27692 7.44575C8.25883 7.68408 8.08033 7.86771 7.86508 7.86771C7.72275 7.86771 7.59033 7.78592 7.5145 7.65104L7.02975 6.78438L6.545 7.65104C6.46975 7.78592 6.33733 7.86771 6.19442 7.86771C5.97975 7.86771 5.80067 7.68408 5.78258 7.44575L5.59942 5.46379C5.58425 5.30021 5.72308 5.15938 5.89983 5.15938C6.05733 5.15938 6.188 5.27204 6.20083 5.41775L6.3245 6.86996L6.762 6.08833C6.87458 5.88683 7.18492 5.88683 7.2975 6.08833L7.735 6.86996L7.8575 5.41775C7.86975 5.27204 8.001 5.15938 8.1585 5.15938H8.15967C8.33642 5.15938 8.47525 5.30021 8.46008 5.46379ZM3.76775 6.08833L4.20525 6.86996L4.32775 5.41775C4.34 5.27204 4.47125 5.15938 4.62875 5.15938H4.62992C4.80667 5.15938 4.9455 5.30021 4.93033 5.46379L4.74717 7.44575C4.72908 7.68408 4.55058 7.86771 4.33533 7.86771C4.193 7.86771 4.06058 7.78592 3.98475 7.65104L3.5 6.78438L3.01525 7.65104C2.94 7.78592 2.80758 7.86771 2.66467 7.86771C2.45 7.86771 2.27092 7.68408 2.25283 7.44575L2.06967 5.46379C2.0545 5.30021 2.19333 5.15938 2.37008 5.15938C2.52758 5.15938 2.65825 5.27204 2.67108 5.41775L2.79475 6.86996L3.23225 6.08833C3.34483 5.88683 3.65517 5.88683 3.76775 6.08833ZM10.0153 7.65104C9.94 7.78592 9.80758 7.86771 9.66467 7.86771C9.45 7.86771 9.27092 7.68408 9.25283 7.44575L9.06967 5.46379C9.0545 5.30021 9.19333 5.15938 9.37008 5.15938C9.52758 5.15938 9.65825 5.27204 9.67108 5.41775L9.79475 6.86996L10.2323 6.08833C10.3448 5.88683 10.6552 5.88683 10.7677 6.08833L11.2052 6.86996L11.3278 5.41775C11.34 5.27204 11.4712 5.15938 11.6287 5.15938H11.6299C11.8067 5.15938 11.9455 5.30021 11.9303 5.46379L11.7472 7.44575C11.7291 7.68408 11.5506 7.86771 11.3353 7.86771C11.193 7.86771 11.0606 7.78592 10.9847 7.65104L10.5 6.78438L10.0153 7.65104ZM5.48683 1.26858C4.93675 1.90179 4.29625 2.77008 3.83425 3.79167H1.95008C2.71483 2.56696 3.98183 1.6445 5.48683 1.26858ZM1.95008 9.20833H3.83425C4.29625 10.2305 4.93675 11.0982 5.48683 11.7314C3.98125 11.3555 2.71483 10.433 1.95008 9.20833ZM8.51375 11.7314C9.06383 11.0982 9.70433 10.2299 10.1663 9.20833H12.0505C11.2858 10.433 10.0188 11.3555 8.51375 11.7314Z" fill="#6FBE3E"/>
</g>
<defs>
<clipPath id="clip0_1_1842">
<rect width="14" height="13" fill="white"/>
</clipPath>
</defs>
</svg>
