<svg width="14" height="13" viewBox="0 0 14 13" fill="none" xmlns="http://www.w3.org/2000/svg">
<g clip-path="url(#clip0_1_1852)">
<path d="M5.25 2.16667C5.25 0.970125 7.20883 0 9.625 0C12.0412 0 14 0.970125 14 2.16667C14 3.36321 12.0412 4.33333 9.625 4.33333C7.20883 4.33333 5.25 3.36321 5.25 2.16667ZM9.625 5.41667C9.02592 5.41667 8.45775 5.35438 7.93858 5.24604C7.14583 4.69408 5.84675 4.33333 4.375 4.33333C1.95883 4.33333 0 5.30346 0 6.5C0 7.69654 1.95883 8.66667 4.375 8.66667C6.79117 8.66667 8.75 7.69654 8.75 6.5C8.75 6.48429 8.74592 6.46912 8.74533 6.45342H8.75V7.58333C8.75 8.77988 6.79117 9.75 4.375 9.75C1.95883 9.75 0 8.77988 0 7.58333V8.66667C0 9.86321 1.95883 10.8333 4.375 10.8333C6.79117 10.8333 8.75 9.86321 8.75 8.66667V9.75C8.75 10.9465 6.79117 11.9167 4.375 11.9167C1.95883 11.9167 0 10.9465 0 9.75V10.8333C0 12.0299 1.95883 13 4.375 13C6.79117 13 8.75 12.0299 8.75 10.8333V10.79C9.03292 10.8182 9.32517 10.8333 9.625 10.8333C12.0412 10.8333 14 9.86321 14 8.66667V7.58333C14 8.73112 12.1963 9.66821 9.91667 9.74296V8.65963C12.1963 8.58488 14 7.64833 14 6.5V5.41667C14 6.56446 12.1963 7.50154 9.91667 7.57629V6.49296C12.1963 6.41821 14 5.48167 14 4.33333V3.25C14 4.44654 12.0412 5.41667 9.625 5.41667Z" fill="#6FBE3E"/>
</g>
<defs>
<clipPath id="clip0_1_1852">
<rect width="14" height="13" fill="white"/>
</clipPath>
</defs>
</svg>
