<svg width="13" height="13" viewBox="0 0 13 13" fill="none" xmlns="http://www.w3.org/2000/svg">
<g clip-path="url(#clip0_1_1858)">
<path d="M9.75 3.79167C11.5424 3.79167 13 5.24929 13 7.04167H9.75V3.79167ZM8.66667 3.79167C6.87429 3.79167 5.41667 5.24929 5.41667 7.04167H8.66667V3.79167ZM5.41667 8.125V9.20833C5.41667 11.2992 7.11804 13 9.20833 13C11.2986 13 13 11.2992 13 9.20833V8.125H5.41667ZM11.8441 2.23925L12.3549 1.35417C12.5044 1.09525 12.4155 0.76375 12.1566 0.61425C11.8977 0.46475 11.5662 0.553042 11.4167 0.8125L10.9059 1.69758C10.7564 1.9565 10.8453 2.288 11.1042 2.4375C11.3588 2.58538 11.6935 2.50033 11.8441 2.23925ZM9.75 1.625V0.541667C9.75 0.242667 9.50788 0 9.20833 0C8.90879 0 8.66667 0.242667 8.66667 0.541667V1.625C8.66667 1.924 8.90879 2.16667 9.20833 2.16667C9.50788 2.16667 9.75 1.924 9.75 1.625ZM2.97917 11.8138L3.86425 11.303C4.12371 11.1535 4.212 10.822 4.0625 10.563C3.913 10.3036 3.58096 10.2142 3.32258 10.3648L2.4375 10.8756C2.17804 11.0251 2.08975 11.3566 2.23925 11.6155C2.38983 11.8771 2.72458 11.9616 2.97917 11.8138ZM3.79167 8.66667C3.79167 8.36767 3.549 8.125 3.25 8.125H2.16667C1.86767 8.125 1.625 8.36767 1.625 8.66667C1.625 8.96567 1.86767 9.20833 2.16667 9.20833H3.25C3.549 9.20833 3.79167 8.96567 3.79167 8.66667ZM4.40375 6.2855C4.04463 6.422 3.65679 6.5 3.25 6.5C1.45492 6.5 0 5.04508 0 3.25C0 1.45492 1.45492 0 3.25 0C5.04508 0 6.5 1.45492 6.5 3.25C6.5 3.26571 6.49783 3.28033 6.49783 3.29604C5.41504 3.92546 4.63017 5.00879 4.40375 6.2855ZM3.69525 5.30833H3.84692C4.43788 5.30833 4.95517 4.88313 5.03804 4.29813C5.12687 3.67088 4.706 3.09725 4.10367 2.977L2.59133 2.67421C2.42667 2.64117 2.31292 2.47921 2.34813 2.30696C2.37792 2.15963 2.5155 2.05888 2.66608 2.05888H3.80467C3.91463 2.05888 4.01429 2.106 4.08363 2.18129C4.16704 2.27175 4.32033 2.32971 4.44329 2.32971C4.79754 2.32971 4.99038 1.91642 4.76396 1.64396C4.53538 1.36825 4.19033 1.19275 3.80521 1.19275H3.69688V0.976083C3.69688 0.736667 3.50296 0.54275 3.26354 0.54275C3.02413 0.54275 2.83021 0.736667 2.83021 0.976083V1.19275H2.67854C2.08758 1.19275 1.57029 1.6185 1.48742 2.2035C1.39913 2.83075 1.81946 3.40383 2.42179 3.52463L3.93358 3.82742C4.09825 3.861 4.212 4.02188 4.17788 4.19413C4.14862 4.342 4.01104 4.44329 3.86046 4.44329H2.72133C2.61138 4.44329 2.51171 4.39617 2.44237 4.32088C2.35896 4.23042 2.20567 4.17246 2.08271 4.17246C1.72846 4.17246 1.53563 4.58575 1.76204 4.85821C1.99063 5.13392 2.33567 5.30942 2.72079 5.30942H2.82913V5.53042C2.82913 5.76658 3.02033 5.95942 3.2565 5.95942H3.26733C3.50404 5.95942 3.69525 5.76658 3.69525 5.53042V5.30942V5.30833Z" fill="#6FBE3E"/>
</g>
<defs>
<clipPath id="clip0_1_1858">
<rect width="13" height="13" fill="white"/>
</clipPath>
</defs>
</svg>
