<svg width="13" height="13" viewBox="0 0 13 13" fill="none" xmlns="http://www.w3.org/2000/svg">
<g clip-path="url(#clip0_1_1868)">
<path d="M13 6.22917V7.85417C13 8.30267 12.636 8.66667 12.1875 8.66667H11.6458C11.1973 8.66667 10.8333 8.30267 10.8333 7.85417V6.22917C10.8333 5.87546 11.0592 5.57483 11.375 5.46325V2.4375C11.375 1.69054 10.7678 1.08333 10.0208 1.08333H6.77083C6.11704 1.08333 5.56996 1.54917 5.44375 2.16667H7.58333C8.77988 2.16667 9.75 3.13679 9.75 4.33333V8.125H0V4.33333C0 3.13679 0.970125 2.16667 2.16667 2.16667H4.3485C4.48392 0.949542 5.5185 0 6.77083 0H10.0208C11.3647 0 12.4583 1.09363 12.4583 2.4375V5.46325C12.7741 5.57483 13 5.87546 13 6.22917ZM0 9.20833H9.75V10.8333C9.75 12.0299 8.77988 13 7.58333 13H2.16667C0.970125 13 0 12.0299 0 10.8333V9.20833ZM7.04167 11.1042C7.04167 11.5538 7.40458 11.9167 7.85417 11.9167C8.30375 11.9167 8.66667 11.5538 8.66667 11.1042C8.66667 10.6546 8.30375 10.2917 7.85417 10.2917C7.40458 10.2917 7.04167 10.6546 7.04167 11.1042ZM4.875 11.1042C4.875 11.5538 5.23792 11.9167 5.6875 11.9167C6.13708 11.9167 6.5 11.5538 6.5 11.1042C6.5 10.6546 6.13708 10.2917 5.6875 10.2917C5.23792 10.2917 4.875 10.6546 4.875 11.1042Z" fill="#6FBE3E"/>
</g>
<defs>
<clipPath id="clip0_1_1868">
<rect width="13" height="13" fill="white"/>
</clipPath>
</defs>
</svg>
