<svg width="12" height="12" viewBox="0 0 12 12" fill="none" xmlns="http://www.w3.org/2000/svg">
<path d="M0.00225695 6.21434C0.104802 4.79738 0.341527 3.63894 0.351891 3.5904C0.407527 3.32206 0.592435 3.09954 0.846615 2.997C0.879342 2.98391 1.18043 2.86501 1.73897 2.74611C2.17861 2.65394 2.61497 2.93373 2.70933 3.37551C2.80369 3.81729 2.52169 4.25143 2.07988 4.34579C2.00242 4.36215 1.93206 4.37906 1.86824 4.39433C1.79461 4.8372 1.69097 5.54677 1.63425 6.33215C1.60315 6.78375 1.20388 7.12299 0.759342 7.08917C0.3088 7.05645 -0.0299246 6.66485 0.00225695 6.21434ZM9.92019 4.34633C9.99764 4.36269 10.068 4.3796 10.1318 4.39487C10.2055 4.83774 10.3091 5.54731 10.3658 6.3327C10.3969 6.78429 10.7962 7.12353 11.2407 7.08972C11.6913 7.05699 12.03 6.66539 11.9978 6.21489C11.8953 4.79793 11.6585 3.63949 11.6482 3.59095C11.5925 3.32261 11.4076 3.10008 11.1535 2.99755C11.1207 2.98446 10.8196 2.86556 10.2611 2.74666C9.82255 2.65394 9.3851 2.93373 9.29074 3.37606C9.19637 3.81783 9.47837 4.25198 9.92019 4.34633ZM9.81819 9.81838C10.5976 9.81838 10.9091 9.50695 10.9091 8.72757C10.9091 7.94819 10.5976 7.63676 9.81819 7.63676C9.03874 7.63676 8.72729 7.94819 8.72729 8.72757C8.72729 9.50695 9.03874 9.81838 9.81819 9.81838ZM11.9247 11.1781C11.6722 10.7488 11.2091 10.4625 10.686 10.4123C10.0276 10.3485 9.3371 10.3485 8.67765 10.4123C8.39183 10.4396 8.12293 10.5378 7.89766 10.6916C7.65875 10.5372 7.37566 10.4391 7.07293 10.4118C6.36767 10.348 5.62967 10.348 4.92604 10.4118C4.62386 10.4391 4.34023 10.5367 4.10186 10.6916C3.87605 10.5383 3.60823 10.4396 3.32187 10.4123C2.66242 10.3485 1.97133 10.3485 1.31407 10.4123C0.789888 10.4625 0.326255 10.7488 0.0748019 11.1786C-0.0239247 11.3477 -0.0250156 11.556 0.0720747 11.7257C0.169165 11.8958 0.349709 12 0.545526 12H11.4545C11.6498 12 11.8304 11.8953 11.928 11.7257C12.0251 11.5555 12.024 11.3472 11.9247 11.1781ZM1.09098 8.72757C1.09098 9.50695 1.40243 9.81838 2.18188 9.81838C2.96133 9.81838 3.27278 9.50695 3.27278 8.72757C3.27278 7.94819 2.96133 7.63676 2.18188 7.63676C1.40243 7.63676 1.09098 7.94819 1.09098 8.72757ZM4.90913 8.72757C4.90913 9.50695 5.22058 9.81838 6.00003 9.81838C6.77948 9.81838 7.09093 9.50695 7.09093 8.72757C7.09093 7.94819 6.77948 7.63676 6.00003 7.63676C5.22058 7.63676 4.90913 7.94819 4.90913 8.72757ZM3.46914 3.8102L3.83405 3.59585C3.82423 3.49332 3.81823 3.38642 3.81823 3.27298C3.81823 3.15953 3.82423 3.05318 3.83405 2.9501L3.46914 2.73575C3.07969 2.50723 2.94878 2.00545 3.17787 1.61603C3.40641 1.22662 3.90823 1.09572 4.29768 1.32479L4.5535 1.47478C4.72968 1.3477 4.94077 1.25443 5.1824 1.19116V0.818107C5.1824 0.366512 5.54895 0 6.00058 0C6.45221 0 6.81875 0.366512 6.81875 0.818107V1.19116C7.06039 1.25443 7.27148 1.34715 7.44766 1.47478L7.70348 1.32479C8.09293 1.09626 8.59474 1.22662 8.82329 1.61603C9.05183 2.00545 8.92147 2.50723 8.53201 2.73575L8.16711 2.9501C8.17693 3.05263 8.18293 3.15953 8.18293 3.27298C8.18293 3.38642 8.17693 3.49277 8.16711 3.59585L8.53201 3.8102C8.92147 4.03872 9.05237 4.5405 8.82329 4.92992C8.59474 5.31933 8.09293 5.45023 7.70348 5.22116L7.44766 5.07118C7.27148 5.19825 7.06039 5.29152 6.81875 5.35479V5.72784C6.81875 6.17944 6.45221 6.54595 6.00058 6.54595C5.54895 6.54595 5.1824 6.17944 5.1824 5.72784V5.35479C4.94077 5.29152 4.72968 5.1988 4.5535 5.07118L4.29768 5.22116C3.90823 5.44969 3.40641 5.31933 3.17787 4.92992C2.94933 4.5405 3.07969 4.03872 3.46914 3.8102ZM5.18186 3.27352C5.18186 3.92364 5.34986 4.09163 6.00003 4.09163C6.65021 4.09163 6.81821 3.92364 6.81821 3.27352C6.81821 2.6234 6.65021 2.45541 6.00003 2.45541C5.34986 2.45541 5.18186 2.6234 5.18186 3.27352Z" fill="#6FBE3E"/>
</svg>
