<svg width="13" height="13" viewBox="0 0 13 13" fill="none" xmlns="http://www.w3.org/2000/svg">
<g clip-path="url(#clip0_1_1877)">
<path d="M7.96675 10.6746L7.26638 11.375L7.96675 12.0754C8.17854 12.2872 8.17854 12.6295 7.96675 12.8413C7.86113 12.9469 7.72246 13 7.58379 13C7.44513 13 7.30646 12.9469 7.20084 12.8413L6.50046 12.1409L5.80009 12.8413C5.69446 12.9469 5.55579 13 5.41713 13C5.27846 13 5.13979 12.9469 5.03417 12.8413C4.82238 12.6295 4.82238 12.2872 5.03417 12.0754L5.73454 11.375L5.03417 10.6746C4.82238 10.4628 4.82238 10.1205 5.03417 9.90871C5.24596 9.69692 5.58829 9.69692 5.80009 9.90871L6.50046 10.6091L7.20084 9.90871C7.41263 9.69692 7.75496 9.69692 7.96675 9.90871C8.17854 10.1205 8.17854 10.4628 7.96675 10.6746ZM11.5997 11.375L12.3001 10.6746C12.5119 10.4628 12.5119 10.1205 12.3001 9.90871C12.0883 9.69692 11.746 9.69692 11.5342 9.90871L10.8338 10.6091L10.1334 9.90871C9.92163 9.69692 9.57929 9.69692 9.3675 9.90871C9.15571 10.1205 9.15571 10.4628 9.3675 10.6746L10.0679 11.375L9.3675 12.0754C9.15571 12.2872 9.15571 12.6295 9.3675 12.8413C9.47313 12.9469 9.61179 13 9.75046 13C9.88913 13 10.0278 12.9469 10.1334 12.8413L10.8338 12.1409L11.5342 12.8413C11.6398 12.9469 11.7785 13 11.9171 13C12.0558 13 12.1945 12.9469 12.3001 12.8413C12.5119 12.6295 12.5119 12.2872 12.3001 12.0754L11.5997 11.375ZM3.63342 9.90871C3.42163 9.69692 3.07929 9.69692 2.8675 9.90871L2.16713 10.6091L1.46675 9.90871C1.25496 9.69692 0.912628 9.69692 0.700836 9.90871C0.489044 10.1205 0.489044 10.4628 0.700836 10.6746L1.40121 11.375L0.700836 12.0754C0.489044 12.2872 0.489044 12.6295 0.700836 12.8413C0.806461 12.9469 0.945128 13 1.08379 13C1.22246 13 1.36113 12.9469 1.46675 12.8413L2.16713 12.1409L2.8675 12.8413C2.97313 12.9469 3.11179 13 3.25046 13C3.38913 13 3.52779 12.9469 3.63342 12.8413C3.84521 12.6295 3.84521 12.2872 3.63342 12.0754L2.93304 11.375L3.63342 10.6746C3.84521 10.4628 3.84521 10.1205 3.63342 9.90871ZM9.75046 5.95833C9.75046 7.15325 8.77871 8.125 7.58379 8.125H5.41713C4.22221 8.125 3.25046 7.15325 3.25046 5.95833V4.875C3.25046 4.07658 3.68921 3.38542 4.33379 3.0095V2.16667C4.33379 0.97175 5.30554 0 6.50046 0C7.69538 0 8.66713 0.97175 8.66713 2.16667V3.0095C9.31171 3.38542 9.75046 4.07658 9.75046 4.875V5.95833ZM7.31296 5.41667C7.31296 4.96817 6.94896 4.60417 6.50046 4.60417C6.05196 4.60417 5.68796 4.96817 5.68796 5.41667C5.68796 5.86517 6.05196 6.22917 6.50046 6.22917C6.94896 6.22917 7.31296 5.86517 7.31296 5.41667ZM7.58379 2.16667C7.58379 1.56921 7.09792 1.08333 6.50046 1.08333C5.903 1.08333 5.41713 1.56921 5.41713 2.16667V2.70833H7.58379V2.16667Z" fill="#6FBE3E"/>
</g>
<defs>
<clipPath id="clip0_1_1877">
<rect width="13" height="13" fill="white"/>
</clipPath>
</defs>
</svg>
