<svg width="65" height="65" viewBox="0 0 65 65" fill="none" xmlns="http://www.w3.org/2000/svg">
<path d="M64.2058 60.3769L57.3348 53.5058C58.754 51.3635 59.5827 48.7987 59.5827 46.0417C59.5827 38.5748 53.508 32.5 46.0412 32.5C38.5744 32.5 32.4997 38.5748 32.4997 46.0417C32.4997 53.5085 38.5744 59.5833 46.0412 59.5833C48.7982 59.5833 51.363 58.7546 53.5053 57.3354L60.3762 64.2065C60.9044 64.7346 61.5977 65 62.291 65C62.9843 65 63.6777 64.7346 64.2058 64.2065C65.2647 63.1475 65.2647 61.4358 64.2058 60.3769ZM51.4578 0H13.5415C6.07473 0 0 6.07479 0 13.5417V18.9583H64.9993V13.5417C64.9993 6.07479 58.9246 0 51.4578 0ZM12.1874 13.5417C9.9449 13.5417 8.12492 11.7217 8.12492 9.47917C8.12492 7.23667 9.9449 5.41667 12.1874 5.41667C14.4298 5.41667 16.2498 7.23667 16.2498 9.47917C16.2498 11.7217 14.4298 13.5417 12.1874 13.5417ZM23.0206 13.5417C20.7781 13.5417 18.9581 11.7217 18.9581 9.47917C18.9581 7.23667 20.7781 5.41667 23.0206 5.41667C25.2631 5.41667 27.0831 7.23667 27.0831 9.47917C27.0831 11.7217 25.2631 13.5417 23.0206 13.5417ZM64.9939 46.391C64.9939 46.2746 64.9993 46.1581 64.9993 46.0417C64.9993 46.1581 64.9993 46.2746 64.9939 46.391ZM0 24.375H64.9993V46.0417C64.9993 35.5875 56.4952 27.0833 46.0412 27.0833C35.5871 27.0833 27.0831 35.5875 27.0831 46.0417C27.0831 51.3419 29.2687 56.141 32.7867 59.5833H13.5415C6.07473 59.5833 0 53.5085 0 46.0417V24.375Z" fill="#6FBE3E"/>
</svg>
