<svg width="64" height="64" viewBox="0 0 64 64" fill="none" xmlns="http://www.w3.org/2000/svg">
<g clip-path="url(#clip0_1_1717)">
<path d="M26.08 53.832C27.032 55.9627 26.8267 58.5707 25.4693 60.664C24.1093 62.7547 21.8107 64.0027 19.3173 64.0027H15.4667L8.65867 45.336H22.8907L26.0773 53.8347L26.08 53.832ZM18.6667 10.6667H8C3.58933 10.6667 0 14.256 0 18.6667V32C0 36.4107 3.58933 40 8 40H18.6667V10.6667ZM58.6667 18.8V0H53.3333C53.3333 7.27733 42.992 10.6667 36 10.6667H24V40H36C42.992 40 53.3333 43.3893 53.3333 50.6667H58.6667V31.8667C61.7093 31.248 64 28.56 64 25.3333C64 22.1067 61.7093 19.4187 58.6667 18.8Z" fill="#6FBE3E"/>
</g>
<defs>
<clipPath id="clip0_1_1717">
<rect width="64" height="64" fill="white"/>
</clipPath>
</defs>
</svg>
