<svg width="54" height="65" viewBox="0 0 54 65" fill="none" xmlns="http://www.w3.org/2000/svg">
<path d="M45.8708 22.8014V18.947C45.8708 8.4829 37.4144 0 26.9828 0C16.5512 0 8.09486 8.4829 8.09486 18.947V22.8014C3.18406 24.9513 0.007083 29.8125 0 35.1873V51.4276C0.00885375 58.8983 6.04395 64.9524 13.4914 64.9613H40.4742C47.9216 64.9524 53.9567 58.8983 53.9657 51.4276V35.1873C53.9587 29.8125 50.7816 24.9513 45.8708 22.8014ZM29.6811 46.0143C29.6811 47.5091 28.473 48.7209 26.9828 48.7209C25.4926 48.7209 24.2846 47.5091 24.2846 46.0143V40.6008C24.2846 39.1059 25.4926 37.8941 26.9828 37.8941C28.473 37.8941 29.6811 39.1059 29.6811 40.6008V46.0143ZM40.4743 21.6538H13.4914V18.9471C13.4914 11.4728 19.5316 5.41348 26.9828 5.41348C34.434 5.41348 40.4743 11.4726 40.4743 18.9471V21.6538Z" fill="#6FBE3E"/>
</svg>
