<svg width="64" height="64" viewBox="0 0 64 64" fill="none" xmlns="http://www.w3.org/2000/svg">
<path d="M5.33333 40H29.3333V64H18.6667C15.1304 64 11.7391 62.5952 9.23858 60.0948C6.73809 57.5943 5.33333 54.2029 5.33333 50.6667V40ZM64 29.3333C64 30.7478 63.4381 32.1044 62.4379 33.1046C61.4377 34.1048 60.0812 34.6667 58.6667 34.6667H34.6667V23.8853C33.7707 23.9547 32.8773 24 32 24C31.1227 24 30.2293 23.9547 29.3333 23.8853V34.6667H5.33333C3.91885 34.6667 2.56229 34.1048 1.5621 33.1046C0.561903 32.1044 0 30.7478 0 29.3333C0 26.5044 1.12381 23.7912 3.12419 21.7909C5.12458 19.7905 7.83769 18.6667 10.6667 18.6667H15.3013C13.7936 17.3376 12.5968 15.693 11.7958 13.8496C10.9949 12.0062 10.6094 10.0091 10.6667 8C10.6667 7.29276 10.9476 6.61448 11.4477 6.11438C11.9478 5.61428 12.6261 5.33333 13.3333 5.33333C14.0406 5.33333 14.7189 5.61428 15.219 6.11438C15.719 6.61448 16 7.29276 16 8C16 14.992 22.3227 17.4133 27.1307 18.2427C25.356 15.0961 24.2878 11.601 24 8C24 5.87827 24.8429 3.84344 26.3431 2.34315C27.8434 0.842855 29.8783 0 32 0C34.1217 0 36.1566 0.842855 37.6569 2.34315C39.1571 3.84344 40 5.87827 40 8C39.7122 11.601 38.644 15.0961 36.8693 18.2427C41.6773 17.4133 48 14.992 48 8C48 7.29276 48.281 6.61448 48.781 6.11438C49.2811 5.61428 49.9594 5.33333 50.6667 5.33333C51.3739 5.33333 52.0522 5.61428 52.5523 6.11438C53.0524 6.61448 53.3333 7.29276 53.3333 8C53.3906 10.0091 53.0051 12.0062 52.2042 13.8496C51.4032 15.693 50.2064 17.3376 48.6987 18.6667H53.3333C56.1623 18.6667 58.8754 19.7905 60.8758 21.7909C62.8762 23.7912 64 26.5044 64 29.3333ZM29.3333 8C29.6552 10.8342 30.5634 13.5704 32 16.0347C33.4366 13.5704 34.3448 10.8342 34.6667 8C34.6667 7.29276 34.3857 6.61448 33.8856 6.11438C33.3855 5.61428 32.7072 5.33333 32 5.33333C31.2928 5.33333 30.6145 5.61428 30.1144 6.11438C29.6143 6.61448 29.3333 7.29276 29.3333 8ZM34.6667 64H45.3333C47.0843 64 48.8181 63.6551 50.4358 62.9851C52.0535 62.315 53.5233 61.3329 54.7614 60.0948C55.9995 58.8566 56.9817 57.3868 57.6517 55.7691C58.3218 54.1514 58.6667 52.4176 58.6667 50.6667V40H34.6667V64Z" fill="#6FBE3E"/>
</svg>
