<svg width="85" height="54" viewBox="0 0 85 54" fill="none" xmlns="http://www.w3.org/2000/svg">
<path d="M74.7836 0H46.1779C40.5364 0 35.9615 4.57487 35.9615 10.2163V26.5625C35.9615 32.2039 40.5364 36.7788 46.1779 36.7788H74.7836C80.4251 36.7788 84.9999 32.2039 84.9999 26.5625V10.2163C84.9999 4.57487 80.4251 0 74.7836 0ZM49.8598 29.3393C45.9592 28.4218 42.9046 25.1342 42.2405 21.1825C41.2822 15.4798 45.0541 10.4574 50.2644 9.39902V18.5631C50.2644 19.646 50.6955 20.686 51.4618 21.4523L57.9369 27.9274C55.7036 29.4067 52.8634 30.0442 49.8598 29.3393ZM60.824 25.0382L54.9476 19.1617C54.5634 18.7776 54.3489 18.2586 54.3489 17.7172V9.40107C59.0116 10.3471 62.522 14.4684 62.522 19.411C62.522 21.4931 61.8926 23.424 60.822 25.0382H60.824ZM76.8269 28.6057H70.6971C69.5692 28.6057 68.6538 27.6903 68.6538 26.5625C68.6538 25.4346 69.5692 24.5192 70.6971 24.5192H76.8269C77.9548 24.5192 78.8701 25.4346 78.8701 26.5625C78.8701 27.6903 77.9548 28.6057 76.8269 28.6057ZM76.8269 20.4327H70.6971C69.5692 20.4327 68.6538 19.5173 68.6538 18.3894C68.6538 17.2615 69.5692 16.3461 70.6971 16.3461H76.8269C77.9548 16.3461 78.8701 17.2615 78.8701 18.3894C78.8701 19.5173 77.9548 20.4327 76.8269 20.4327ZM76.8269 12.2596H70.6971C69.5692 12.2596 68.6538 11.3442 68.6538 10.2163C68.6538 9.08845 69.5692 8.17306 70.6971 8.17306H76.8269C77.9548 8.17306 78.8701 9.08845 78.8701 10.2163C78.8701 11.3442 77.9548 12.2596 76.8269 12.2596Z" fill="white" fill-opacity="0.16"/>
<path d="M46.1783 0.5H74.7838C80.149 0.500113 84.4996 4.85155 84.4996 10.2168V26.5625C84.4996 31.9277 80.149 36.2782 74.7838 36.2783H46.1783C40.813 36.2783 36.4616 31.9278 36.4615 26.5625V10.2168C36.4615 5.01902 40.5451 0.772784 45.6783 0.512695L46.1783 0.5ZM50.1647 8.90918C44.6995 10.0195 40.7432 15.288 41.7477 21.2656C42.4449 25.4137 45.6472 28.8622 49.7457 29.8262C52.8892 30.5639 55.8694 29.8958 58.2125 28.3438L58.7233 28.0068L51.8151 21.0986C51.1427 20.4262 50.7644 19.5134 50.7643 18.5635V8.78711L50.1647 8.90918ZM70.6969 24.0195C69.293 24.0196 68.1539 25.1585 68.1539 26.5625C68.154 27.9664 69.293 29.1054 70.6969 29.1055H76.8268C78.2308 29.1055 79.3697 27.9665 79.3698 26.5625C79.3698 25.1585 78.2308 24.0195 76.8268 24.0195H70.6969ZM53.8492 17.7168C53.8492 18.3908 54.1164 19.0377 54.5944 19.5156L60.1793 25.1006L59.8903 25.5381H62.0309L61.4586 24.9658C62.4462 23.3464 63.0221 21.448 63.0221 19.4111C63.0221 14.2259 59.339 9.9035 54.4479 8.91113L53.8492 8.78906V17.7168ZM70.6969 15.8457C69.293 15.8458 68.1539 16.9857 68.1539 18.3896C68.1541 19.7935 69.293 20.9325 70.6969 20.9326H76.8268C78.2307 20.9326 79.3696 19.7936 79.3698 18.3896C79.3698 16.9856 78.2308 15.8457 76.8268 15.8457H70.6969ZM70.6969 7.67285C69.293 7.67294 68.1539 8.81283 68.1539 10.2168C68.1542 11.6206 69.2931 12.7597 70.6969 12.7598H76.8268C78.2307 12.7598 79.3695 11.6206 79.3698 10.2168C79.3698 8.81277 78.2308 7.67285 76.8268 7.67285H70.6969Z" stroke="white" stroke-opacity="0.3"/>
<path d="M18.3894 29.423C25.1601 29.423 30.649 23.9342 30.649 17.1634C30.649 10.3926 25.1601 4.90381 18.3894 4.90381C11.6186 4.90381 6.12976 10.3926 6.12976 17.1634C6.12976 23.9342 11.6186 29.423 18.3894 29.423Z" fill="white" fill-opacity="0.16"/>
<path d="M18.3895 5.40381C24.8841 5.4039 30.1493 10.669 30.1493 17.1636C30.1492 23.6581 24.884 28.9232 18.3895 28.9233C11.8949 28.9233 6.62985 23.6581 6.62976 17.1636C6.62976 10.6689 11.8949 5.40381 18.3895 5.40381Z" stroke="white" stroke-opacity="0.3"/>
<path d="M18.3894 33.5095C8.23787 33.5208 0.0113018 41.7474 0 51.8989C0 53.0274 0.914777 53.9422 2.04323 53.9422H34.7355C35.8639 53.9422 36.7787 53.0274 36.7787 51.8989C36.7675 41.7474 28.5409 33.5207 18.3894 33.5095Z" fill="white" fill-opacity="0.16"/>
<path d="M18.3887 34.0095C28.2644 34.0204 36.2673 42.0235 36.2783 51.8992L36.2705 52.0564C36.1916 52.8347 35.5345 53.4421 34.7354 53.4421H2.04297C1.19086 53.442 0.500137 52.7513 0.5 51.8992L0.505859 51.4382C0.760894 41.7761 8.66765 34.021 18.3887 34.0095Z" stroke="white" stroke-opacity="0.3"/>
</svg>
