<svg width="17" height="25" viewBox="0 0 17 25" fill="none" xmlns="http://www.w3.org/2000/svg">
<g clip-path="url(#clip0_93_57)">
<path d="M11.6243 25H5.37435C2.50247 25 0.166016 22.6635 0.166016 19.7917V5.20833C0.166016 2.33646 2.50247 0 5.37435 0H11.6243C14.4962 0 16.8327 2.33646 16.8327 5.20833V19.7917C16.8327 22.6635 14.4962 25 11.6243 25ZM5.37435 2.08333C3.65143 2.08333 2.24935 3.48542 2.24935 5.20833V19.7917C2.24935 21.5146 3.65143 22.9167 5.37435 22.9167H11.6243C13.3473 22.9167 14.7493 21.5146 14.7493 19.7917V5.20833C14.7493 3.48542 13.3473 2.08333 11.6243 2.08333H5.37435ZM10.5827 19.7917C10.5827 19.2167 10.116 18.75 9.54102 18.75H7.45768C6.88268 18.75 6.41602 19.2167 6.41602 19.7917C6.41602 20.3667 6.88268 20.8333 7.45768 20.8333H9.54102C10.116 20.8333 10.5827 20.3667 10.5827 19.7917Z" fill="white"/>
</g>
<defs>
<clipPath id="clip0_93_57">
<rect width="17" height="25" fill="white"/>
</clipPath>
</defs>
</svg>
