<svg width="30" height="30" viewBox="0 0 30 30" fill="none" xmlns="http://www.w3.org/2000/svg">
<path d="M0.628691 16.9917C-0.0534266 15.9941 -0.189779 14.7238 0.265221 13.6055C1.2821 11.5433 2.98557 9.89448 5.08646 8.93916C6.60751 8.18718 8.2551 7.7208 9.9464 7.56332C9.20946 8.46484 8.47169 9.42671 7.7331 10.4491C6.22993 12.712 4.94322 15.1099 3.88987 17.6114L3.43646 18.6221C2.30069 18.5287 1.26846 17.9293 0.628691 16.9917ZM2.3561 22.2367C1.27093 23.7264 0.492044 25.4142 0.0641617 27.2036C-0.202603 28.3663 0.529221 29.5239 1.69881 29.7891C2.0171 29.8613 2.34763 29.8612 2.66593 29.7889C4.4631 29.3628 6.15822 28.589 7.65457 27.5116C9.11975 26.0557 9.12034 23.6946 7.65581 22.238C6.19134 20.7814 3.81634 20.7808 2.35116 22.2367H2.3561ZM12.2696 25.9371L11.2455 26.3891V26.7542C11.2479 27.6287 11.6002 28.4664 12.2247 29.0824C12.8187 29.6567 13.6144 29.9783 14.443 29.9789C17.3869 29.9367 19.7739 27.272 21.0266 24.7911C21.7941 23.2556 22.2648 21.5907 22.4143 19.8825C21.4983 20.6276 20.5162 21.3726 19.4678 22.1176C17.1925 23.6124 14.7808 24.8912 12.2646 25.9371L12.2696 25.9371ZM29.9809 3.71151C29.8148 9.11671 25.9003 14.4772 18.0127 20.1022C15.8662 21.4855 13.6018 22.6788 11.2455 23.6685V22.9694C11.2338 20.574 9.2834 18.6349 6.87387 18.6234H6.17069C7.16846 16.2808 8.37087 14.0296 9.76416 11.8958C15.4085 4.07286 20.7918 0.176315 26.22 0C28.9254 0 29.9809 1.0952 29.9809 3.71151ZM22.4867 10.5521C22.4867 8.8377 21.0887 7.44782 19.3641 7.44782C17.6395 7.44782 16.2415 8.83764 16.2415 10.5521C16.2415 12.2666 17.6395 13.6565 19.3641 13.6565C21.0887 13.6565 22.4867 12.2666 22.4867 10.5521Z" fill="#6FBE3E"/>
</svg>
