<svg width="13" height="11" viewBox="0 0 13 11" fill="none" xmlns="http://www.w3.org/2000/svg">
<path d="M5.90417 4.375C5.90417 4.66433 5.68533 4.9 5.41667 4.9H5.2V3.85H5.41667C5.68533 3.85 5.90417 4.08567 5.90417 4.375ZM13 2.91667V7.58333C13 9.19158 11.785 10.5 10.2917 10.5H2.70833C1.21496 10.5 0 9.19158 0 7.58333V2.91667C0 1.30842 1.21496 0 2.70833 0H10.2917C11.785 0 13 1.30842 13 2.91667ZM3.03333 4.9V3.84942H3.35888C3.59829 3.84942 3.79221 3.64058 3.79221 3.38275C3.79221 3.12492 3.59829 2.91608 3.35888 2.91608H2.60054C2.36113 2.91608 2.16721 3.12492 2.16721 3.38275V7.11608C2.16721 7.37392 2.36113 7.58275 2.60054 7.58275C2.83996 7.58275 3.03387 7.37392 3.03387 7.11608V5.83275H3.35942C3.59883 5.83275 3.79275 5.62392 3.79275 5.36608C3.79275 5.10825 3.59883 4.89942 3.35942 4.89942H3.03387L3.03333 4.9ZM6.19287 5.56733C6.54875 5.29783 6.78004 4.85042 6.77029 4.34408C6.75513 3.54492 6.12733 2.91667 5.38579 2.91667H4.76667C4.52725 2.91667 4.33333 3.1255 4.33333 3.38333V7.11667C4.33333 7.3745 4.52725 7.58333 4.76667 7.58333C5.00608 7.58333 5.2 7.3745 5.2 7.11667V5.83333H5.35383L5.73571 7.24675C5.78933 7.44625 5.95888 7.58333 6.15171 7.58333H6.18583C6.47671 7.58333 6.68525 7.28058 6.60021 6.98075L6.19992 5.56325C6.21238 5.55333 6.21292 5.55392 6.22267 5.54633C6.21238 5.55333 6.20587 5.55917 6.19287 5.56733ZM7.90833 4.78333V3.84942H8.23388C8.47329 3.84942 8.66721 3.64058 8.66721 3.38275C8.66721 3.12492 8.47329 2.91608 8.23388 2.91608H7.47554C7.23612 2.91608 7.04221 3.12492 7.04221 3.38275V7.11608C7.04221 7.37392 7.23612 7.58275 7.47554 7.58275H8.23388C8.47329 7.58275 8.66721 7.37392 8.66721 7.11608C8.66721 6.85825 8.47329 6.64942 8.23388 6.64942H7.90833V5.7155H8.23388C8.47329 5.7155 8.66721 5.50667 8.66721 5.24883C8.66721 4.991 8.47329 4.78217 8.23388 4.78217H7.90833V4.78333ZM10.075 4.78333V3.84942H10.4005C10.64 3.84942 10.8339 3.64058 10.8339 3.38275C10.8339 3.12492 10.64 2.91608 10.4005 2.91608H9.64221C9.40279 2.91608 9.20887 3.12492 9.20887 3.38275V7.11608C9.20887 7.37392 9.40279 7.58275 9.64221 7.58275H10.4005C10.64 7.58275 10.8339 7.37392 10.8339 7.11608C10.8339 6.85825 10.64 6.64942 10.4005 6.64942H10.075V5.7155H10.4005C10.64 5.7155 10.8339 5.50667 10.8339 5.24883C10.8339 4.991 10.64 4.78217 10.4005 4.78217H10.075V4.78333Z" fill="#6FBE3E"/>
</svg>
