<svg width="13" height="13" viewBox="0 0 13 13" fill="none" xmlns="http://www.w3.org/2000/svg">
<g clip-path="url(#clip0_1_1898)">
<path d="M9.20807 7.3125V9.77058C9.20807 10.2001 9.54444 10.5495 9.96694 10.5777C10.2464 10.0858 10.7686 9.75 11.3747 9.75C12.2723 9.75 12.9997 10.4775 12.9997 11.375C12.9997 12.2725 12.2723 13 11.3747 13C10.7816 13 10.2681 12.6788 9.98427 12.2043C8.65719 12.1843 7.58306 11.102 7.58306 9.77058V7.3125H7.31223C6.86373 7.3125 6.49973 6.9485 6.49973 6.5C6.49973 6.0515 6.86373 5.6875 7.31223 5.6875H7.58306V3.27058C7.58306 1.94675 8.64473 0.872083 9.96044 0.839042C10.2383 0.340708 10.7637 0 11.3747 0C12.2723 0 12.9997 0.727458 12.9997 1.625C12.9997 2.52254 12.2723 3.25 11.3747 3.25C10.7843 3.25 10.273 2.93204 9.98806 2.46133C9.55527 2.47867 9.20807 2.83346 9.20807 3.27058V5.6875H9.96369C10.2421 5.19242 10.7664 4.85388 11.3747 4.85388C12.2723 4.85388 12.9997 5.58133 12.9997 6.47888C12.9997 7.37642 12.2723 8.10388 11.3747 8.10388C10.7832 8.10388 10.2708 7.78483 9.98644 7.3125H9.20807ZM6.0014 5.84946L5.64227 6.05692C5.66881 6.201 5.68723 6.34833 5.68723 6.50054C5.68723 6.65275 5.66881 6.79954 5.64227 6.94417L6.0014 7.15163C6.38977 7.37588 6.52302 7.87258 6.29877 8.2615C6.14873 8.52204 5.87519 8.66775 5.59461 8.66775C5.45648 8.66775 5.31673 8.63308 5.1889 8.55888L4.82273 8.34763C4.59956 8.53829 4.3439 8.68833 4.06223 8.78908V9.20942C4.06223 9.65792 3.69823 10.0219 3.24973 10.0219C2.80123 10.0219 2.43723 9.65792 2.43723 9.20942V8.78908C2.15502 8.68833 1.8999 8.53829 1.67673 8.34763L1.31056 8.55888C1.18273 8.63308 1.04298 8.66775 0.904856 8.66775C0.623731 8.66775 0.351272 8.52204 0.200689 8.2615C-0.0235611 7.87258 0.109689 7.37588 0.498064 7.15163L0.857189 6.94417C0.830647 6.80008 0.812231 6.65275 0.812231 6.50054C0.812231 6.34833 0.830647 6.20154 0.857189 6.05692L0.498064 5.84946C0.109689 5.62521 -0.0235611 5.1285 0.200689 4.73958C0.424939 4.35013 0.922189 4.21796 1.31056 4.44221L1.67673 4.65346C1.8999 4.46279 2.15556 4.31275 2.43723 4.212V3.79167C2.43723 3.34317 2.80123 2.97917 3.24973 2.97917C3.69823 2.97917 4.06223 3.34317 4.06223 3.79167V4.212C4.34444 4.31275 4.59956 4.46279 4.82273 4.65346L5.1889 4.44221C5.57727 4.21688 6.07452 4.35013 6.29877 4.73958C6.52302 5.1285 6.38977 5.62521 6.0014 5.84946ZM4.06223 6.5C4.06223 6.05204 3.69769 5.6875 3.24973 5.6875C2.80177 5.6875 2.43723 6.05204 2.43723 6.5C2.43723 6.94796 2.80177 7.3125 3.24973 7.3125C3.69769 7.3125 4.06223 6.94796 4.06223 6.5Z" fill="#6FBE3E"/>
</g>
<defs>
<clipPath id="clip0_1_1898">
<rect width="13" height="13" fill="white"/>
</clipPath>
</defs>
</svg>
