<svg width="14" height="13" viewBox="0 0 14 13" fill="none" xmlns="http://www.w3.org/2000/svg">
<path d="M4.875 6.5C6.66993 6.5 8.125 5.04493 8.125 3.25C8.125 1.45507 6.66993 0 4.875 0C3.08007 0 1.625 1.45507 1.625 3.25C1.625 5.04493 3.08007 6.5 4.875 6.5Z" fill="#6FBE3E"/>
<path d="M4.875 7.58301C2.18385 7.586 0.00299609 9.76686 0 12.458C0 12.7572 0.242506 12.9997 0.541658 12.9997H9.20832C9.50747 12.9997 9.74997 12.7572 9.74997 12.458C9.747 9.76686 7.56615 7.58598 4.875 7.58301Z" fill="#6FBE3E"/>
<path d="M11 9C12.1046 9 13 8.10457 13 7C13 5.89543 12.1046 5 11 5C9.89543 5 9 5.89543 9 7C9 8.10457 9.89543 9 11 9Z" fill="#6FBE3E"/>
<path d="M11 9.66699C9.34391 9.66884 8.00184 11.0109 8 12.667C8 12.8511 8.14923 13.0003 8.33333 13.0003H13.6667C13.8507 13.0003 14 12.8511 14 12.667C13.9982 11.0109 12.6561 9.66882 11 9.66699Z" fill="#6FBE3E"/>
</svg>
