<svg width="13" height="12" viewBox="0 0 13 12" fill="none" xmlns="http://www.w3.org/2000/svg">
<path d="M13 3.81818V2.72727C13 1.22182 11.7867 0 10.2917 0H2.70833C1.21333 0 0 1.22182 0 2.72727V3.81818H13ZM10.5625 1.09091C11.0121 1.09091 11.375 1.45636 11.375 1.90909C11.375 2.36182 11.0121 2.72727 10.5625 2.72727C10.1129 2.72727 9.75 2.36182 9.75 1.90909C9.75 1.45636 10.1129 1.09091 10.5625 1.09091ZM8.39583 1.09091C8.84542 1.09091 9.20833 1.45636 9.20833 1.90909C9.20833 2.36182 8.84542 2.72727 8.39583 2.72727C7.94625 2.72727 7.58333 2.36182 7.58333 1.90909C7.58333 1.45636 7.94625 1.09091 8.39583 1.09091ZM6.22917 1.09091C6.67875 1.09091 7.04167 1.45636 7.04167 1.90909C7.04167 2.36182 6.67875 2.72727 6.22917 2.72727C5.77958 2.72727 5.41667 2.36182 5.41667 1.90909C5.41667 1.45636 5.77958 1.09091 6.22917 1.09091ZM13 4.90909V9.27273C13 10.7782 11.7867 12 10.2917 12H2.70833C1.21333 12 0 10.7782 0 9.27273V4.90909H13Z" fill="#6FBE3E"/>
</svg>
