<svg width="30" height="28" viewBox="0 0 30 28" fill="none" xmlns="http://www.w3.org/2000/svg">
<path d="M29.9425 5.79248L19.42 16.4911C18.2467 17.681 16.6572 18.3492 15 18.3492C13.3428 18.3492 11.7533 17.681 10.58 16.4911L0.0575 5.79248C0.04 5.99329 0 6.17503 0 6.37456V19.3856C0.00198482 21.0704 0.661102 22.6855 1.83277 23.8768C3.00445 25.0681 4.59301 25.7382 6.25 25.7402H23.75C25.407 25.7382 26.9956 25.0681 28.1672 23.8768C29.3389 22.6855 29.998 21.0704 30 19.3856V6.37456C30 6.17503 29.96 5.99329 29.9425 5.79248Z" fill="#6FBE3E"/>
<path d="M17.6526 14.6938L29.0701 3.08397C28.517 2.15152 27.7369 1.37971 26.805 0.84299C25.8732 0.306271 24.821 0.0227502 23.7501 0.0197754H6.25005C5.17908 0.0227502 4.12693 0.306271 3.19509 0.84299C2.26324 1.37971 1.48315 2.15152 0.930054 3.08397L12.3476 14.6938C13.052 15.4072 14.0058 15.8078 15.0001 15.8078C15.9943 15.8078 16.9481 15.4072 17.6526 14.6938Z" fill="#6FBE3E"/>
</svg>
