<svg width="30" height="30" viewBox="0 0 30 30" fill="none" xmlns="http://www.w3.org/2000/svg">
<path d="M25.8113 18.6056C25.0884 17.9176 24.1283 17.5345 23.1304 17.5359C22.1325 17.5373 21.1735 17.9231 20.4525 18.6131L18.0661 20.6243C16.1183 19.8181 14.3488 18.6349 12.8594 17.1428C11.37 15.6507 10.1899 13.879 9.3869 11.9294L11.3902 9.54997C12.0782 8.82737 12.4626 7.86811 12.464 6.87023C12.4654 5.87235 12.0837 4.91202 11.3977 4.18749C11.3977 4.18749 9.0789 1.17814 9.04009 1.13932C8.32573 0.420167 7.35718 0.0109976 6.3437 0.000218467C5.33022 -0.0105606 4.35319 0.377916 3.62371 1.08171L2.18385 2.33404C-7.48075 12.6157 17.4589 37.5721 27.7257 27.7563L28.8676 26.4414C29.5928 25.7137 30 24.7281 30 23.7007C30 22.6732 29.5928 21.6876 28.8676 20.96C28.8263 20.9261 25.8113 18.6068 25.8113 18.6068V18.6056Z" fill="#6FBE3E"/>
</svg>
