<svg width="31" height="31" viewBox="0 0 31 31" fill="none" xmlns="http://www.w3.org/2000/svg">
<g clip-path="url(#clip0_27_1259)">
<path d="M28.4791 7.11539C23.8995 8.93153e-06 14.5494 -2.11538 7.2984 2.3077C0.238175 6.73078 -2.05163 16.3462 2.52798 23.4615L2.90961 24.0385L1.38308 29.8077L7.10758 28.2692L7.68004 28.6539C10.1607 30 12.8321 30.7692 15.5035 30.7692C18.3658 30.7692 21.228 30 23.7087 28.4615C30.7689 23.8462 32.8679 14.4231 28.4791 7.11539ZM24.4719 21.9231C23.7087 23.0769 22.7546 23.8462 21.4189 24.0385C20.6556 24.0385 19.7015 24.4231 15.8852 22.8846C12.6413 21.3462 9.96984 18.8462 8.06167 15.9615C6.91677 14.6154 6.34432 12.8846 6.1535 11.1539C6.1535 9.61539 6.72595 8.26924 7.68004 7.3077C8.06167 6.92309 8.4433 6.73078 8.82494 6.73078H9.77902C10.1607 6.73078 10.5423 6.73078 10.7331 7.50001C11.1147 8.46155 12.0688 10.7692 12.0688 10.9615C12.2596 11.1539 12.2596 11.5385 12.0688 11.7308C12.2596 12.1154 12.0688 12.5 11.878 12.6923C11.6872 12.8846 11.4964 13.2692 11.3056 13.4615C10.9239 13.6539 10.7331 14.0385 10.9239 14.4231C11.6872 15.5769 12.6413 16.7308 13.5954 17.6923C14.7403 18.6539 15.8852 19.4231 17.2209 20C17.6025 20.1923 17.9841 20.1923 18.175 19.8077C18.3658 19.4231 19.3199 18.4615 19.7015 18.0769C20.0831 17.6923 20.274 17.6923 20.6556 17.8846L23.7087 19.4231C24.0903 19.6154 24.4719 19.8077 24.6627 20C24.8536 20.5769 24.8536 21.3462 24.4719 21.9231Z" fill="#6FBE3E"/>
</g>
<defs>
<clipPath id="clip0_27_1259">
<rect width="30.7692" height="30.7692" fill="white"/>
</clipPath>
</defs>
</svg>
