<svg width="15" height="15" viewBox="0 0 15 15" fill="none" xmlns="http://www.w3.org/2000/svg">
<g clip-path="url(#clip0_0_471)">
<path fill-rule="evenodd" clip-rule="evenodd" d="M6.77053 0.0740051H8.22947C9.49914 0.0740051 10.5049 0.0740051 11.2917 0.179696C12.1013 0.288841 12.7569 0.518183 13.2743 1.03489C13.791 1.55229 14.0204 2.20785 14.1295 3.01746C14.2352 3.80496 14.2352 4.81006 14.2352 6.07973V8.92025C14.2352 10.1899 14.2352 11.1957 14.1295 11.9825C14.0204 12.7921 13.791 13.4477 13.2743 13.9651C12.7569 14.4818 12.1013 14.7111 11.2917 14.8203C10.5042 14.926 9.49914 14.926 8.22947 14.926H6.77053C5.50085 14.926 4.49506 14.926 3.70826 14.8203C2.89865 14.7111 2.24309 14.4818 1.72569 13.9651C1.20898 13.4477 0.979637 12.7921 0.870492 11.9825C0.764801 11.195 0.764801 10.1899 0.764801 8.92025V6.07973C0.764801 4.81006 0.764801 3.80427 0.870492 3.01746C0.979637 2.20785 1.20898 1.55229 1.72569 1.03489C2.24309 0.518183 2.89865 0.288841 3.70826 0.179696C4.49576 0.0740051 5.50085 0.0740051 6.77053 0.0740051ZM3.84572 1.2069C3.15079 1.30016 2.75013 1.47562 2.45724 1.76782C2.16572 2.06002 1.99026 2.46068 1.897 3.15562C1.80168 3.86575 1.80029 4.80108 1.80029 6.11841V8.88157C1.80029 10.1989 1.80168 11.1349 1.897 11.8451C1.99026 12.5393 2.16572 12.94 2.45793 13.2322C2.75013 13.5244 3.15079 13.6998 3.84572 13.7931C4.55585 13.8884 5.49118 13.8898 6.80852 13.8898H8.1901C9.50743 13.8898 10.4435 13.8884 11.1536 13.7931C11.8478 13.6998 12.2485 13.5244 12.5407 13.2322C12.8329 12.94 13.0084 12.5393 13.1016 11.8444C13.1969 11.1349 13.1983 10.1989 13.1983 8.88157V6.11841C13.1983 4.80108 13.1969 3.86575 13.1016 3.15493C13.0084 2.46068 12.8329 2.06002 12.5407 1.76782C12.2485 1.47562 11.8478 1.30016 11.1529 1.2069C10.4435 1.11157 9.50743 1.11019 8.1901 1.11019H6.80852C5.49118 1.11019 4.55654 1.11157 3.84572 1.2069ZM4.21875 4.73683C4.21875 4.59943 4.27333 4.46765 4.37049 4.37049C4.46766 4.27333 4.59943 4.21874 4.73684 4.21874H10.2632C10.4006 4.21874 10.5323 4.27333 10.6295 4.37049C10.7267 4.46765 10.7812 4.59943 10.7812 4.73683C10.7812 4.87424 10.7267 5.00602 10.6295 5.10318C10.5323 5.20034 10.4006 5.25493 10.2632 5.25493H4.73684C4.59943 5.25493 4.46766 5.20034 4.37049 5.10318C4.27333 5.00602 4.21875 4.87424 4.21875 4.73683ZM4.21875 7.49999C4.21875 7.36259 4.27333 7.23081 4.37049 7.13365C4.46766 7.03648 4.59943 6.9819 4.73684 6.9819H10.2632C10.4006 6.9819 10.5323 7.03648 10.6295 7.13365C10.7267 7.23081 10.7812 7.36259 10.7812 7.49999C10.7812 7.6374 10.7267 7.76918 10.6295 7.86634C10.5323 7.9635 10.4006 8.01808 10.2632 8.01808H4.73684C4.59943 8.01808 4.46766 7.9635 4.37049 7.86634C4.27333 7.76918 4.21875 7.6374 4.21875 7.49999ZM4.21875 10.2631C4.21875 10.1257 4.27333 9.99396 4.37049 9.8968C4.46766 9.79964 4.59943 9.74506 4.73684 9.74506H8.19079C8.3282 9.74506 8.45997 9.79964 8.55713 9.8968C8.6543 9.99396 8.70888 10.1257 8.70888 10.2631C8.70888 10.4006 8.6543 10.5323 8.55713 10.6295C8.45997 10.7267 8.3282 10.7812 8.19079 10.7812H4.73684C4.59943 10.7812 4.46766 10.7267 4.37049 10.6295C4.27333 10.5323 4.21875 10.4006 4.21875 10.2631Z" fill="white"/>
</g>
<defs>
<clipPath id="clip0_0_471">
<rect width="15" height="15" fill="white"/>
</clipPath>
</defs>
</svg>
