<svg width="20" height="20" viewBox="0 0 20 20" fill="none" xmlns="http://www.w3.org/2000/svg">
<g clip-path="url(#clip0_157_166)">
<path d="M19.6932 11.2807C19.692 11.0031 19.6086 10.7321 19.4534 10.502C19.2982 10.2718 19.0783 10.0928 18.8214 9.98767C18.5645 9.88252 18.2822 9.85589 18.0102 9.91117C17.7382 9.96645 17.4887 10.1011 17.2932 10.2982L10.8651 16.7544C10.7347 16.8859 10.5794 16.9903 10.4084 17.0616C10.2374 17.1328 10.0539 17.1695 9.86864 17.1695C9.68336 17.1695 9.49992 17.1328 9.32889 17.0616C9.15786 16.9903 9.00263 16.8859 8.87215 16.7544L2.44408 10.2982C2.31361 10.1667 2.15838 10.0623 1.98735 9.99101C1.81632 9.91976 1.63287 9.88307 1.44759 9.88307C1.26231 9.88307 1.07886 9.91976 0.907833 9.99101C0.736803 10.0623 0.581573 10.1667 0.451099 10.2982C0.189694 10.5612 0.0429688 10.9169 0.0429688 11.2877C0.0429688 11.6585 0.189694 12.0142 0.451099 12.2772L6.89321 18.7193C7.68268 19.5078 8.75285 19.9507 9.86864 19.9507C10.9844 19.9507 12.0546 19.5078 12.8441 18.7193L19.2862 12.2772C19.4163 12.146 19.5192 11.9905 19.589 11.8195C19.6589 11.6485 19.6943 11.4654 19.6932 11.2807Z" fill="white"/>
<path d="M19.6932 1.45622C19.692 1.17864 19.6086 0.907645 19.4534 0.677493C19.2982 0.44734 19.0783 0.268369 18.8214 0.163211C18.5645 0.0580518 18.2822 0.0314284 18.0102 0.0867058C17.7382 0.141983 17.4887 0.276679 17.2932 0.473762L9.86864 7.89832L2.44408 0.473762C2.31361 0.342214 2.15838 0.2378 1.98735 0.166546C1.81632 0.0952918 1.63287 0.0586069 1.44759 0.0586069C1.26231 0.0586069 1.07886 0.0952918 0.907833 0.166546C0.736803 0.2378 0.581573 0.342214 0.451099 0.473762C0.189694 0.736727 0.0429688 1.09245 0.0429688 1.46324C0.0429688 1.83402 0.189694 2.18974 0.451099 2.45271L8.87215 10.8738C9.00263 11.0053 9.15786 11.1097 9.32889 11.181C9.49992 11.2522 9.68336 11.2889 9.86864 11.2889C10.0539 11.2889 10.2374 11.2522 10.4084 11.181C10.5794 11.1097 10.7347 11.0053 10.8651 10.8738L19.2862 2.45271C19.4163 2.32157 19.5192 2.16603 19.589 1.99503C19.6589 1.82403 19.6943 1.64093 19.6932 1.45622Z" fill="white"/>
</g>
<defs>
<clipPath id="clip0_157_166">
<rect width="20" height="19.7368" fill="white" transform="matrix(0 1 1 0 0 0)"/>
</clipPath>
</defs>
</svg>
