<svg width="15" height="8" viewBox="0 0 15 8" fill="none" xmlns="http://www.w3.org/2000/svg">
<path d="M1.26469 7.78501C1.19313 7.85369 1.10895 7.90737 1.01696 7.94301C0.924968 7.97865 0.826965 7.99553 0.728546 7.99271C0.630127 7.98988 0.533221 7.96739 0.443359 7.92653C0.353497 7.88567 0.272441 7.82724 0.204817 7.75457C0.137193 7.68189 0.0843261 7.59641 0.049235 7.50299C0.014144 7.40956 -0.0024843 7.31004 0.000299826 7.21009C0.00308395 7.11015 0.0252258 7.01174 0.0654613 6.92048C0.105697 6.82922 0.163238 6.74691 0.234799 6.67823L6.98084 0.208067C7.12001 0.0744498 7.30427 0 7.49579 0C7.68731 0 7.87157 0.0744498 8.01074 0.208067L14.7575 6.67823C14.8307 6.74645 14.8897 6.82875 14.9313 6.92034C14.9728 7.01194 14.996 7.111 14.9995 7.21178C15.0031 7.31255 14.9868 7.41304 14.9518 7.5074C14.9167 7.60175 14.8636 7.6881 14.7954 7.76141C14.7272 7.83473 14.6454 7.89356 14.5547 7.93449C14.4639 7.97542 14.366 7.99762 14.2668 7.99982C14.1675 8.00202 14.0688 7.98416 13.9763 7.94728C13.8839 7.91041 13.7996 7.85525 13.7284 7.78501L7.49579 1.8081L1.26469 7.78501Z" fill="#81BD52"/>
</svg>
