<svg width="460" height="468" viewBox="0 0 460 468" fill="none" xmlns="http://www.w3.org/2000/svg">
<g opacity="0.1">
<path d="M320.612 23C321.408 23 322.171 22.6839 322.734 22.1213C323.296 21.5587 323.612 20.7956 323.612 20C323.612 19.2044 323.296 18.4413 322.734 17.8787C322.171 17.3161 321.408 17 320.612 17C319.817 17 319.054 17.3161 318.491 17.8787C317.928 18.4413 317.612 19.2044 317.612 20C317.612 20.7956 317.928 21.5587 318.491 22.1213C319.054 22.6839 319.817 23 320.612 23ZM314.077 29.494C313.985 29.7419 313.975 30.0129 314.049 30.2669C314.123 30.5209 314.277 30.7443 314.487 30.904C316.239 32.2652 318.394 33.0028 320.612 33C322.922 33 325.05 32.216 326.743 30.9C327.173 30.567 327.347 29.997 327.151 29.49C326.644 28.168 325.747 27.0311 324.58 26.2292C323.412 25.4274 322.03 24.9983 320.613 24.9986C319.197 24.9989 317.814 25.4287 316.648 26.231C315.481 27.0334 314.585 28.1708 314.077 29.493" fill="#83EF41"/>
<path d="M339.792 47.4583L332.5 40.1667M335.167 25.5833C335.167 27.4984 334.789 29.3948 334.057 31.1641C333.324 32.9335 332.249 34.5411 330.895 35.8953C329.541 37.2495 327.933 38.3237 326.164 39.0566C324.395 39.7895 322.498 40.1667 320.583 40.1667C318.668 40.1667 316.772 39.7895 315.003 39.0566C313.233 38.3237 311.626 37.2495 310.271 35.8953C308.917 34.5411 307.843 32.9335 307.11 31.1641C306.377 29.3948 306 27.4984 306 25.5833C306 21.7156 307.536 18.0063 310.271 15.2714C313.006 12.5365 316.716 11 320.583 11C324.451 11 328.16 12.5365 330.895 15.2714C333.63 18.0063 335.167 21.7156 335.167 25.5833Z" stroke="#83EF41" stroke-width="3" stroke-linecap="round"/>
</g>
<g opacity="0.1">
<path d="M221.612 442C222.408 442 223.171 441.684 223.734 441.121C224.296 440.559 224.612 439.796 224.612 439C224.612 438.204 224.296 437.441 223.734 436.879C223.171 436.316 222.408 436 221.612 436C220.817 436 220.054 436.316 219.491 436.879C218.928 437.441 218.612 438.204 218.612 439C218.612 439.796 218.928 440.559 219.491 441.121C220.054 441.684 220.817 442 221.612 442ZM215.077 448.494C214.985 448.742 214.975 449.013 215.049 449.267C215.123 449.521 215.277 449.744 215.487 449.904C217.239 451.265 219.394 452.003 221.612 452C223.922 452 226.05 451.216 227.743 449.9C228.173 449.567 228.347 448.997 228.151 448.49C227.644 447.168 226.747 446.031 225.58 445.229C224.412 444.427 223.03 443.998 221.613 443.999C220.197 443.999 218.814 444.429 217.648 445.231C216.481 446.033 215.585 447.171 215.077 448.493" fill="#83EF41"/>
<path d="M240.792 466.458L233.5 459.167M236.167 444.583C236.167 446.498 235.789 448.395 235.057 450.164C234.324 451.933 233.249 453.541 231.895 454.895C230.541 456.249 228.933 457.324 227.164 458.057C225.395 458.789 223.498 459.167 221.583 459.167C219.668 459.167 217.772 458.789 216.003 458.057C214.233 457.324 212.626 456.249 211.271 454.895C209.917 453.541 208.843 451.933 208.11 450.164C207.377 448.395 207 446.498 207 444.583C207 440.716 208.536 437.006 211.271 434.271C214.006 431.536 217.716 430 221.583 430C225.451 430 229.16 431.536 231.895 434.271C234.63 437.006 236.167 440.716 236.167 444.583Z" stroke="#83EF41" stroke-width="3" stroke-linecap="round"/>
</g>
<circle cx="230" cy="230" r="147.5" stroke="white" stroke-opacity="0.06"/>
<circle cx="230" cy="230" r="189.5" stroke="white" stroke-opacity="0.03"/>
<circle cx="230" cy="230" r="229.5" stroke="white" stroke-opacity="0.03"/>
<g opacity="0.1">
<path d="M411.612 355C412.408 355 413.171 354.684 413.734 354.121C414.296 353.559 414.612 352.796 414.612 352C414.612 351.204 414.296 350.441 413.734 349.879C413.171 349.316 412.408 349 411.612 349C410.817 349 410.054 349.316 409.491 349.879C408.928 350.441 408.612 351.204 408.612 352C408.612 352.796 408.928 353.559 409.491 354.121C410.054 354.684 410.817 355 411.612 355ZM405.077 361.494C404.985 361.742 404.975 362.013 405.049 362.267C405.123 362.521 405.277 362.744 405.487 362.904C407.239 364.265 409.394 365.003 411.612 365C413.922 365 416.05 364.216 417.743 362.9C418.173 362.567 418.347 361.997 418.151 361.49C417.644 360.168 416.747 359.031 415.58 358.229C414.412 357.427 413.03 356.998 411.613 356.999C410.197 356.999 408.814 357.429 407.648 358.231C406.481 359.033 405.585 360.171 405.077 361.493" fill="#83EF41"/>
<path d="M430.792 379.458L423.5 372.167M426.167 357.583C426.167 359.498 425.789 361.395 425.057 363.164C424.324 364.933 423.249 366.541 421.895 367.895C420.541 369.249 418.933 370.324 417.164 371.057C415.395 371.789 413.498 372.167 411.583 372.167C409.668 372.167 407.772 371.789 406.003 371.057C404.233 370.324 402.626 369.249 401.271 367.895C399.917 366.541 398.843 364.933 398.11 363.164C397.377 361.395 397 359.498 397 357.583C397 353.716 398.536 350.006 401.271 347.271C404.006 344.536 407.716 343 411.583 343C415.451 343 419.16 344.536 421.895 347.271C424.63 350.006 426.167 353.716 426.167 357.583Z" stroke="#83EF41" stroke-width="3" stroke-linecap="round"/>
</g>
<g opacity="0.2">
<path d="M238.08 44.5798C238.08 44.348 237.985 44.1257 237.816 43.9618C237.646 43.7979 237.416 43.7058 237.177 43.7058C236.937 43.7058 236.707 43.7979 236.537 43.9618C236.368 44.1257 236.273 44.348 236.273 44.5798V45.4537H231.98C231.201 45.4537 230.454 45.753 229.903 46.2856C229.352 46.8183 229.043 47.5407 229.043 48.294V53.1008C229.043 53.8541 229.352 54.5765 229.903 55.1092C230.454 55.6419 231.201 55.9411 231.98 55.9411H242.373C243.152 55.9411 243.899 55.6419 244.45 55.1092C245.001 54.5765 245.31 53.8541 245.31 53.1008V48.294C245.31 47.5407 245.001 46.8183 244.45 46.2856C243.899 45.753 243.152 45.4537 242.373 45.4537H238.08V44.5798ZM230.173 58.563C229.394 58.563 228.646 58.8622 228.096 59.3949C227.545 59.9275 227.235 60.65 227.235 61.4033V61.7966C227.235 63.693 228.209 65.3299 229.958 66.4565C231.682 67.5664 234.135 68.1764 237.177 68.1764C240.219 68.1764 242.671 67.5664 244.395 66.4565C246.144 65.3291 247.118 63.6939 247.118 61.7966V61.4033C247.118 60.65 246.808 59.9275 246.257 59.3949C245.707 58.8622 244.96 58.563 244.181 58.563H230.173ZM234.013 52.2268C233.806 52.2268 233.6 52.1873 233.408 52.1104C233.216 52.0335 233.042 51.9209 232.895 51.7789C232.748 51.6368 232.632 51.4682 232.552 51.2827C232.473 51.0971 232.432 50.8983 232.432 50.6974C232.432 50.4966 232.473 50.2977 232.552 50.1121C232.632 49.9266 232.748 49.758 232.895 49.6159C233.042 49.4739 233.216 49.3613 233.408 49.2844C233.6 49.2076 233.806 49.168 234.013 49.168C234.433 49.168 234.835 49.3291 235.132 49.6159C235.428 49.9028 235.595 50.2918 235.595 50.6974C235.595 51.103 235.428 51.492 235.132 51.7789C234.835 52.0657 234.433 52.2268 234.013 52.2268ZM241.921 50.6974C241.921 51.103 241.755 51.492 241.458 51.7789C241.161 52.0657 240.759 52.2268 240.34 52.2268C239.92 52.2268 239.518 52.0657 239.221 51.7789C238.925 51.492 238.758 51.103 238.758 50.6974C238.758 50.2918 238.925 49.9028 239.221 49.6159C239.518 49.3291 239.92 49.168 240.34 49.168C240.759 49.168 241.161 49.3291 241.458 49.6159C241.755 49.9028 241.921 50.2918 241.921 50.6974Z" fill="#CF2B2B"/>
<path d="M267 88.8235L255.848 77.6716M259.608 55.3039C259.608 58.2329 259.031 61.1332 257.91 63.8393C256.789 66.5453 255.146 69.0041 253.075 71.0752C251.004 73.1463 248.545 74.7892 245.839 75.9101C243.133 77.0309 240.233 77.6078 237.304 77.6078C234.375 77.6078 231.475 77.0309 228.769 75.9101C226.063 74.7892 223.604 73.1463 221.533 71.0752C219.462 69.0041 217.819 66.5453 216.698 63.8393C215.577 61.1332 215 58.2329 215 55.3039C215 49.3886 217.35 43.7155 221.533 39.5327C225.715 35.3499 231.389 33 237.304 33C243.219 33 248.892 35.3499 253.075 39.5327C257.258 43.7155 259.608 49.3886 259.608 55.3039Z" stroke="#CF2B2B" stroke-width="3" stroke-linecap="round"/>
</g>
<g opacity="0.2">
<path d="M275.872 361.804C275.872 361.674 275.819 361.55 275.724 361.459C275.63 361.368 275.501 361.316 275.368 361.316C275.234 361.316 275.106 361.368 275.011 361.459C274.917 361.55 274.864 361.674 274.864 361.804V362.291H272.47C272.035 362.291 271.619 362.458 271.311 362.755C271.004 363.052 270.832 363.455 270.832 363.875V366.556C270.832 366.976 271.004 367.379 271.311 367.676C271.619 367.973 272.035 368.14 272.47 368.14H278.266C278.7 368.14 279.117 367.973 279.424 367.676C279.731 367.379 279.904 366.976 279.904 366.556V363.875C279.904 363.455 279.731 363.052 279.424 362.755C279.117 362.458 278.7 362.291 278.266 362.291H275.872V361.804ZM271.462 369.602C271.027 369.602 270.611 369.769 270.303 370.066C269.996 370.363 269.824 370.766 269.824 371.186V371.405C269.824 372.463 270.366 373.376 271.342 374.004C272.303 374.623 273.671 374.963 275.368 374.963C277.064 374.963 278.432 374.623 279.393 374.004C280.369 373.375 280.912 372.463 280.912 371.405V371.186C280.912 370.766 280.739 370.363 280.432 370.066C280.125 369.769 279.708 369.602 279.274 369.602H271.462ZM273.604 366.068C273.488 366.068 273.373 366.046 273.266 366.003C273.159 365.961 273.062 365.898 272.98 365.819C272.898 365.739 272.833 365.645 272.789 365.542C272.744 365.438 272.722 365.327 272.722 365.215C272.722 365.103 272.744 364.993 272.789 364.889C272.833 364.786 272.898 364.692 272.98 364.612C273.062 364.533 273.159 364.47 273.266 364.427C273.373 364.385 273.488 364.363 273.604 364.363C273.838 364.363 274.062 364.452 274.227 364.612C274.393 364.772 274.486 364.989 274.486 365.215C274.486 365.442 274.393 365.659 274.227 365.819C274.062 365.979 273.838 366.068 273.604 366.068ZM278.014 365.215C278.014 365.442 277.921 365.659 277.755 365.819C277.59 365.979 277.366 366.068 277.132 366.068C276.898 366.068 276.673 365.979 276.508 365.819C276.343 365.659 276.25 365.442 276.25 365.215C276.25 364.989 276.343 364.772 276.508 364.612C276.673 364.452 276.898 364.363 277.132 364.363C277.366 364.363 277.59 364.452 277.755 364.612C277.921 364.772 278.014 364.989 278.014 365.215Z" fill="#CF2B2B"/>
<path d="M292 386.478L285.781 380.259M287.877 367.784C287.877 369.418 287.556 371.035 286.931 372.545C286.306 374.054 285.389 375.425 284.234 376.58C283.079 377.735 281.708 378.651 280.199 379.276C278.69 379.901 277.072 380.223 275.439 380.223C273.805 380.223 272.188 379.901 270.679 379.276C269.169 378.651 267.798 377.735 266.643 376.58C265.488 375.425 264.572 374.054 263.947 372.545C263.322 371.035 263 369.418 263 367.784C263 364.485 264.311 361.322 266.643 358.989C268.976 356.656 272.14 355.346 275.439 355.346C278.738 355.346 281.902 356.656 284.234 358.989C286.567 361.322 287.877 364.485 287.877 367.784Z" stroke="#CF2B2B" stroke-width="3" stroke-linecap="round"/>
</g>
<g opacity="0.2">
<path d="M75.8717 220.458C75.8717 220.329 75.8186 220.205 75.7241 220.113C75.6296 220.022 75.5014 219.971 75.3677 219.971C75.2341 219.971 75.1059 220.022 75.0113 220.113C74.9168 220.205 74.8637 220.329 74.8637 220.458V220.945H72.4697C72.0352 220.945 71.6186 221.112 71.3114 221.409C71.0042 221.706 70.8316 222.109 70.8316 222.529V225.21C70.8316 225.63 71.0042 226.033 71.3114 226.33C71.6186 226.627 72.0352 226.794 72.4697 226.794H78.2658C78.7002 226.794 79.1169 226.627 79.4241 226.33C79.7312 226.033 79.9038 225.63 79.9038 225.21V222.529C79.9038 222.109 79.7312 221.706 79.4241 221.409C79.1169 221.112 78.7002 220.945 78.2658 220.945H75.8717V220.458ZM71.4616 228.256C71.0272 228.256 70.6106 228.423 70.3034 228.72C69.9962 229.017 69.8236 229.42 69.8236 229.84V230.06C69.8236 231.117 70.3664 232.03 71.3422 232.658C72.3033 233.277 73.6712 233.618 75.3677 233.618C77.0642 233.618 78.4321 233.277 79.3933 232.658C80.369 232.03 80.9118 231.118 80.9118 230.06V229.84C80.9118 229.42 80.7393 229.017 80.4321 228.72C80.1249 228.423 79.7082 228.256 79.2738 228.256H71.4616ZM73.6037 224.723C73.4879 224.723 73.3732 224.701 73.2662 224.658C73.1591 224.615 73.0619 224.552 72.98 224.473C72.8981 224.394 72.8331 224.3 72.7888 224.196C72.7445 224.093 72.7217 223.982 72.7217 223.87C72.7217 223.758 72.7445 223.647 72.7888 223.543C72.8331 223.44 72.8981 223.346 72.98 223.267C73.0619 223.187 73.1591 223.125 73.2662 223.082C73.3732 223.039 73.4879 223.017 73.6037 223.017C73.8376 223.017 74.062 223.107 74.2274 223.267C74.3928 223.427 74.4857 223.644 74.4857 223.87C74.4857 224.096 74.3928 224.313 74.2274 224.473C74.062 224.633 73.8376 224.723 73.6037 224.723ZM78.0138 223.87C78.0138 224.096 77.9209 224.313 77.7554 224.473C77.59 224.633 77.3657 224.723 77.1318 224.723C76.8978 224.723 76.6735 224.633 76.5081 224.473C76.3427 224.313 76.2497 224.096 76.2497 223.87C76.2497 223.644 76.3427 223.427 76.5081 223.267C76.6735 223.107 76.8978 223.017 77.1318 223.017C77.3657 223.017 77.59 223.107 77.7554 223.267C77.9209 223.427 78.0138 223.644 78.0138 223.87Z" fill="#CF2B2B"/>
<path d="M92 245.132L85.7806 238.913M87.8774 226.439C87.8774 228.072 87.5557 229.69 86.9306 231.199C86.3055 232.708 85.3893 234.079 84.2342 235.234C83.0792 236.389 81.708 237.306 80.1988 237.931C78.6897 238.556 77.0722 238.877 75.4387 238.877C73.8052 238.877 72.1878 238.556 70.6786 237.931C69.1695 237.306 67.7983 236.389 66.6432 235.234C65.4882 234.079 64.5719 232.708 63.9468 231.199C63.3217 229.69 63 228.072 63 226.439C63 223.14 64.3105 219.976 66.6432 217.643C68.9759 215.311 72.1398 214 75.4387 214C78.7377 214 81.9015 215.311 84.2342 217.643C86.5669 219.976 87.8774 223.14 87.8774 226.439Z" stroke="#CF2B2B" stroke-width="3" stroke-linecap="round"/>
</g>
</svg>
