<svg width="86" height="54" viewBox="0 0 86 54" fill="none" xmlns="http://www.w3.org/2000/svg">
<path d="M71.0377 54L63.325 39.0325L54 47.1647V14.1107C54 13.4337 54.1912 12.7701 54.5521 12.1949C54.913 11.6197 55.4292 11.1556 56.0425 10.8551C56.6558 10.5546 57.3418 10.4296 58.0231 10.4942C58.7044 10.5588 59.3539 10.8105 59.8984 11.2207L85.4328 33.0327L73.2817 34.366L80.8934 49.1338L71.0377 54Z" fill="white" fill-opacity="0.16"/>
<path d="M57.9756 10.9923C58.5616 11.0479 59.1204 11.2629 59.5889 11.6134L84.2275 32.6613L73.2275 33.8693L72.5039 33.9484L72.8369 34.5948L80.2158 48.9103L71.2568 53.3331L63.7695 38.8038L63.4775 38.2365L62.9961 38.6554L54.5 46.0646V14.1105C54.5 13.528 54.6647 12.9568 54.9756 12.4611C55.2867 11.9651 55.7325 11.5636 56.2627 11.3038C56.7928 11.0442 57.3861 10.9365 57.9756 10.9923Z" stroke="white" stroke-opacity="0.3"/>
<path d="M35.0933 0H9.23507C4.14285 0 0 4.06753 0 9.06716V34.4552C0 39.4549 4.14285 43.5224 9.23507 43.5224H35.0933C40.1855 43.5224 44.3284 39.4549 44.3284 34.4552V9.06716C44.3284 4.06753 40.1855 0 35.0933 0ZM13.4703 23.0397L18.2411 27.7238C18.9633 28.4328 18.9633 29.5789 18.2411 30.288C17.881 30.6416 17.4081 30.8193 16.9353 30.8193C16.4624 30.8193 15.9896 30.6416 15.6294 30.288L10.8586 25.6039C9.81134 24.5775 9.23507 23.2101 9.23507 21.7558C9.23507 20.3014 9.81134 18.9359 10.8586 17.9076L15.6294 13.2236C16.3516 12.5145 17.5189 12.5145 18.2411 13.2236C18.9633 13.9326 18.9633 15.0787 18.2411 15.7877L13.4703 20.4718C13.1212 20.8146 12.9291 21.2698 12.9291 21.7539C12.9291 22.2381 13.1212 22.6969 13.4703 23.0397ZM33.4698 25.6129L28.6989 30.297C28.3387 30.6506 27.8659 30.8284 27.3931 30.8284C26.9202 30.8284 26.4474 30.6506 26.0872 30.297C25.3651 29.588 25.3651 28.4419 26.0872 27.7328L30.8581 23.0487C31.2053 22.706 31.3993 22.2508 31.3993 21.7648C31.3993 21.2788 31.2072 20.8255 30.8581 20.4827L26.0872 15.7968C25.3651 15.0878 25.3651 13.9399 26.0872 13.2326C26.8094 12.5236 27.9767 12.5236 28.6989 13.2326L33.4698 17.9167C34.5152 18.9431 35.0933 20.3104 35.0933 21.763C35.0933 23.2156 34.517 24.5847 33.4698 25.6129Z" fill="white" fill-opacity="0.16"/>
<path d="M9.23535 0.5H35.0938C39.9183 0.500248 43.8281 4.35265 43.8281 9.06738V34.4551C43.8281 39.1698 39.9183 43.0222 35.0938 43.0225H9.23535C4.41058 43.0225 0.5 39.17 0.5 34.4551V9.06738C0.5 4.3525 4.41058 0.5 9.23535 0.5ZM29.0488 12.876C28.1323 11.9763 26.654 11.9756 25.7373 12.875C24.8146 13.7786 24.8158 15.2485 25.7373 16.1533L30.5078 20.8398C30.7623 21.0898 30.8994 21.4148 30.8994 21.7646C30.8994 22.1137 30.7614 22.4417 30.5078 22.6924L25.7373 27.376C24.8155 28.281 24.8156 29.7483 25.7373 30.6533C26.1954 31.1031 26.7961 31.3281 27.3936 31.3281C27.9909 31.328 28.5908 31.103 29.0488 30.6533L33.8203 25.9697C34.9624 24.8483 35.5938 23.3506 35.5938 21.7627C35.5937 20.1744 34.9602 18.6788 33.8203 17.5596L29.0488 12.876ZM18.5918 12.8672C17.6751 11.9672 16.196 11.9672 15.2793 12.8672L10.5088 17.5508C9.3668 18.672 8.73535 20.1659 8.73535 21.7559C8.73538 23.2464 9.28987 24.6543 10.3008 25.7471L10.5088 25.9609L15.2793 30.6445C15.7374 31.0943 16.3381 31.3193 16.9355 31.3193C17.5329 31.3193 18.1337 31.0943 18.5918 30.6445C19.5132 29.7396 19.5132 28.2721 18.5918 27.3672L13.8203 22.6826C13.5668 22.4336 13.4287 22.1033 13.4287 21.7539C13.4287 21.4056 13.5661 21.0788 13.8203 20.8291L18.5918 16.1445C19.5133 15.2396 19.5131 13.7722 18.5918 12.8672Z" stroke="white" stroke-opacity="0.3"/>
</svg>
