<svg width="71" height="54" viewBox="0 0 71 54" fill="none" xmlns="http://www.w3.org/2000/svg">
<path d="M19.6456 38.8893C19.1822 38.8893 18.7651 38.6072 18.5928 38.176L17.7334 36.2507L15.8051 35.347C15.378 35.1667 15.1029 34.7455 15.112 34.2821C15.1211 33.8187 15.4112 33.4076 15.8444 33.2434L17.807 32.4999L18.5928 30.5343C18.7651 30.1041 19.1812 29.821 19.6456 29.821C20.1101 29.821 20.5261 30.1031 20.6984 30.5343L21.4893 32.512L23.4669 33.3029C23.8971 33.4751 24.1802 33.8912 24.1802 34.3557C24.1802 34.8201 23.8981 35.2362 23.4669 35.4085L21.4893 36.1993L20.6984 38.177C20.5261 38.6072 20.1101 38.8903 19.6456 38.8903V38.8893ZM22.8312 40.3733C21.6001 40.882 20.1937 41.0533 18.7248 40.7642C15.9845 40.2242 13.7771 38.0168 13.2371 35.2765C12.948 33.8076 13.1182 32.4012 13.628 31.17C13.894 30.5263 13.4225 29.8221 12.7263 29.8221H5.03734C2.25572 29.8221 0 32.0778 0 34.8594V48.9639C0 51.7455 2.25572 54.0013 5.03734 54.0013H19.1419C21.9235 54.0013 24.1792 51.7455 24.1792 48.9639V41.2749C24.1792 40.5788 23.475 40.1073 22.8312 40.3733ZM13.8003 48.9639C13.354 48.9639 12.9631 48.6677 12.8412 48.2386L12.1934 45.9415H6.9485L6.3007 48.2386C6.1798 48.6677 5.7879 48.9639 5.34159 48.9639C4.68271 48.9639 4.20517 48.3353 4.38147 47.7006L7.49556 36.5096C7.63761 35.8971 8.0406 35.3813 8.60175 35.0941C9.174 34.7999 9.83086 34.7818 10.4545 35.0438C11.0459 35.2916 11.4992 35.8669 11.6675 36.5902L14.7614 47.7016C14.9377 48.3363 14.4612 48.9649 13.8013 48.9649L13.8003 48.9639ZM19.1419 47.9565C19.1419 48.5126 18.6905 48.9639 18.1344 48.9639C17.5783 48.9639 17.1269 48.5126 17.1269 47.9565V43.0078C17.1269 42.4517 17.5783 42.0003 18.1344 42.0003C18.6905 42.0003 19.1419 42.4517 19.1419 43.0078V47.9565ZM9.46012 37.0406L7.51671 43.9266H11.6242L9.68075 37.0406C9.65154 36.9257 9.48833 36.9257 9.46012 37.0406Z" fill="white" fill-opacity="0.16"/>
<path d="M5.03711 30.322H12.7266C13.0664 30.3222 13.2952 30.6642 13.166 30.9783C12.6192 32.2988 12.4377 33.8058 12.7461 35.3728C13.3253 38.3121 15.6887 40.6753 18.6279 41.2546C20.1953 41.5632 21.7022 41.3813 23.0225 40.8357C23.3368 40.7059 23.6797 40.935 23.6797 41.2751V48.9636C23.6797 51.4691 21.6471 53.5017 19.1416 53.5017H5.03711C2.53174 53.5016 0.5 51.469 0.5 48.9636V34.8591C0.500139 32.3539 2.53182 30.3221 5.03711 30.322ZM10.6484 34.5828C9.89635 34.2669 9.08401 34.2837 8.37305 34.6492C7.68786 35.0001 7.1933 35.6289 7.01367 36.3757L3.89941 47.5662V47.5671C3.635 48.5201 4.35224 49.4636 5.3418 49.4636C6.01138 49.4635 6.60048 49.019 6.78223 48.3738L7.32715 46.4412H11.8145L12.3604 48.3738V48.3748C12.5222 48.9447 13.0011 49.3577 13.5742 49.4451L13.5938 49.4646H13.8018C14.7925 49.4643 15.5075 48.5206 15.2432 47.5681V47.5671L12.1484 36.4558C11.946 35.6122 11.4042 34.8999 10.6475 34.5828H10.6484ZM18.1348 41.5007C17.3026 41.5007 16.6271 42.1754 16.627 43.0076V47.9568C16.6271 48.7889 17.3026 49.4636 18.1348 49.4636C18.9668 49.4634 19.6414 48.7888 19.6416 47.9568V43.0076C19.6415 42.1755 18.9668 41.5009 18.1348 41.5007ZM10.9629 43.4265H8.17773L9.57031 38.491L10.9629 43.4265ZM19.6455 30.321C19.9052 30.321 20.1379 30.4782 20.2344 30.7195V30.7205L21.0254 32.698L21.1045 32.8962L21.3037 32.9763L23.2812 33.7673C23.5222 33.864 23.6805 34.0963 23.6807 34.3552C23.6807 34.615 23.5227 34.8476 23.2812 34.9441L21.3037 35.7351L21.1045 35.8142L21.0254 36.0134L20.2344 37.991C20.1392 38.2286 19.9117 38.3848 19.6572 38.3894H19.6455C19.3866 38.3894 19.153 38.2312 19.0566 37.99L19.0537 37.9812L19.0498 37.9724L18.1904 36.0466L18.1143 35.8767L17.9453 35.7976L16.0176 34.8943L16 34.8865L15.9141 34.8425C15.724 34.7261 15.6079 34.5173 15.6123 34.2917C15.6174 34.0328 15.7791 33.8026 16.0215 33.7107L17.9844 32.9675L18.1895 32.8894L18.2715 32.6853L19.0566 30.7205C19.1533 30.4792 19.3864 30.3211 19.6455 30.321Z" stroke="white" stroke-opacity="0.3"/>
<path d="M53.2952 17.9329H52.7915V16.9255C52.7915 14.1479 50.5317 11.8881 47.7541 11.8881H43.7243V9.87319C43.7243 9.31606 43.2729 8.86572 42.7168 8.86572C42.1607 8.86572 41.7093 9.31606 41.7093 9.87319V11.8881H37.6795C34.9019 11.8881 32.6421 14.1479 32.6421 16.9255V17.9329H32.1384C31.3052 17.9329 30.6272 18.611 30.6272 19.4441V22.4665C30.6272 23.2997 31.3052 23.9777 32.1384 23.9777H32.6421V24.9852C32.6421 27.7628 34.9019 30.0225 37.6795 30.0225H47.7541C50.5317 30.0225 52.7915 27.7628 52.7915 24.9852V23.9777H53.2952C54.1284 23.9777 54.8064 23.2997 54.8064 22.4665V19.4441C54.8064 18.611 54.1284 17.9329 53.2952 17.9329ZM37.6795 25.9927H36.672C36.1159 25.9927 35.6645 25.5423 35.6645 24.9852C35.6645 24.4281 36.1159 23.9777 36.672 23.9777H37.6795C38.2356 23.9777 38.6869 24.4281 38.6869 24.9852C38.6869 25.5423 38.2356 25.9927 37.6795 25.9927ZM38.1832 19.9479C37.349 19.9479 36.672 19.2708 36.672 18.4367C36.672 17.6025 37.349 16.9255 38.1832 16.9255C39.0174 16.9255 39.6944 17.6025 39.6944 18.4367C39.6944 19.2708 39.0174 19.9479 38.1832 19.9479ZM43.7243 25.9927H41.7093C41.1532 25.9927 40.7019 25.5423 40.7019 24.9852C40.7019 24.4281 41.1532 23.9777 41.7093 23.9777H43.7243C44.2814 23.9777 44.7317 24.4281 44.7317 24.9852C44.7317 25.5423 44.2814 25.9927 43.7243 25.9927ZM45.7392 18.4367C45.7392 17.6025 46.4162 16.9255 47.2504 16.9255C48.0846 16.9255 48.7616 17.6025 48.7616 18.4367C48.7616 19.2708 48.0846 19.9479 47.2504 19.9479C46.4162 19.9479 45.7392 19.2708 45.7392 18.4367ZM48.7616 25.9927H47.7541C47.197 25.9927 46.7467 25.5423 46.7467 24.9852C46.7467 24.4281 47.197 23.9777 47.7541 23.9777H48.7616C49.3187 23.9777 49.7691 24.4281 49.7691 24.9852C49.7691 25.5423 49.3187 25.9927 48.7616 25.9927Z" fill="white" fill-opacity="0.16"/>
<path d="M42.717 9.36572C42.9972 9.36585 43.2239 9.59295 43.2239 9.87354V12.3882H47.7542C50.2555 12.3882 52.2912 14.4239 52.2913 16.9253V18.4331H53.2952C53.8521 18.4331 54.3067 18.8869 54.3069 19.4438V22.4663C54.3069 23.0233 53.8522 23.478 53.2952 23.478H52.2913V24.9849C52.2913 27.4863 50.2556 29.5229 47.7542 29.5229H37.6799C35.1785 29.5229 33.1418 27.4863 33.1418 24.9849V23.478H32.1379C31.5811 23.4778 31.1272 23.0232 31.1272 22.4663V19.4438C31.1273 18.8871 31.5812 18.4334 32.1379 18.4331H33.1418V16.9253C33.1419 14.4239 35.1785 12.3882 37.6799 12.3882H42.2092V9.87354C42.2092 9.59287 42.4367 9.36572 42.717 9.36572ZM36.6721 23.478C35.8403 23.478 35.1645 24.1514 35.1643 24.9849C35.1643 25.8185 35.8402 26.4927 36.6721 26.4927H37.6799C38.5117 26.4924 39.1868 25.8183 39.1868 24.9849C39.1866 24.1516 38.5115 23.4783 37.6799 23.478H36.6721ZM41.7092 23.478C40.8775 23.4781 40.2016 24.1515 40.2014 24.9849C40.2014 25.8184 40.8773 26.4926 41.7092 26.4927H43.7239C44.5571 26.4927 45.2317 25.8181 45.2317 24.9849C45.2315 24.1517 44.557 23.478 43.7239 23.478H41.7092ZM47.7542 23.478C46.921 23.478 46.2465 24.1517 46.2463 24.9849C46.2463 25.8181 46.9209 26.4927 47.7542 26.4927H48.762C49.5951 26.4925 50.2688 25.818 50.2688 24.9849C50.2686 24.1519 49.595 23.4782 48.762 23.478H47.7542ZM38.1829 16.4253C37.0727 16.4255 36.1721 17.3268 36.1721 18.437C36.1723 19.5471 37.0728 20.4476 38.1829 20.4478C39.2931 20.4478 40.1944 19.5472 40.1946 18.437C40.1946 17.3267 39.2932 16.4253 38.1829 16.4253ZM47.2502 16.4253C46.14 16.4254 45.2395 17.3267 45.2395 18.437C45.2397 19.5471 46.1401 20.4477 47.2502 20.4478C48.3605 20.4478 49.2618 19.5472 49.262 18.437C49.262 17.3267 48.3606 16.4253 47.2502 16.4253Z" stroke="white" stroke-opacity="0.3"/>
<path d="M69.2364 43.2135L59.8762 33.8493C66.88 24.4897 64.9703 11.2246 55.6107 4.22079C46.2512 -2.78301 32.9861 -0.873304 25.9823 8.48621C18.9785 17.8457 20.8882 31.1109 30.2477 38.1147C37.766 43.7407 48.0923 43.7407 55.6107 38.1147L64.975 47.4789C66.1517 48.6557 68.0597 48.6557 69.2363 47.4789C70.4131 46.3021 70.4131 44.3942 69.2363 43.2175L69.2364 43.2135ZM43.0072 36.3073C34.689 36.3073 27.9457 29.5641 27.9457 21.2458C27.9457 12.9275 34.689 6.18425 43.0072 6.18425C51.3255 6.18425 58.0688 12.9275 58.0688 21.2458C58.0599 29.5603 51.3219 36.2985 43.0072 36.3073Z" fill="white" fill-opacity="0.16"/>
<path d="M26.3826 8.78613C33.2209 -0.35229 46.1729 -2.21726 55.3113 4.62109C64.4496 11.4594 66.3145 24.4114 59.4763 33.5498L59.2166 33.8965L59.5222 34.2031L68.7312 43.416V43.4199L68.8826 43.5713C69.864 44.5527 69.864 46.1435 68.8826 47.125C67.9012 48.1065 66.3104 48.1065 65.3289 47.125L55.9646 37.7607L55.658 37.4551L55.3113 37.7148C47.9706 43.2078 37.8882 43.2076 30.5476 37.7148C21.4093 30.8765 19.5444 17.9245 26.3826 8.78613ZM43.0076 5.68457C34.4131 5.68457 27.446 12.6517 27.446 21.2461C27.4462 29.706 34.1967 36.5885 42.6052 36.8018L43.0076 36.8076C51.5979 36.7985 58.56 29.8363 58.5691 21.2461L58.5632 20.8438C58.35 12.4352 51.4674 5.68474 43.0076 5.68457Z" stroke="white" stroke-opacity="0.3"/>
</svg>
