<svg width="30" height="30" viewBox="0 0 30 30" fill="none" xmlns="http://www.w3.org/2000/svg">
<path d="M0.858398 10.8584C1.92429 9.79268 3.42294 9.98164 4.25781 10.9414V10.9424C4.5127 11.2436 5.12924 12.141 5.45703 12.6201L5.55859 12.7676L5.68652 12.6426L8.19141 10.1748L12.3711 14.3545C12.0992 14.551 11.7133 14.8312 11.3711 15.082C11.1673 15.2314 10.9786 15.3709 10.8379 15.4756C10.7676 15.5279 10.7087 15.572 10.666 15.6045C10.6448 15.6206 10.6267 15.6339 10.6133 15.6445L10.5752 15.6777C9.63743 16.6546 9.68754 18.2338 10.5459 19.2422L10.7285 19.4355L10.7344 19.4414C11.7455 20.3176 13.3258 20.345 14.2988 19.4443L14.4844 19.252L14.4863 19.251C14.7383 18.9518 15.3112 18.1181 15.6465 17.6299L19.9287 21.9121L17.6348 24.1719L17.5049 24.2998L17.6553 24.4023C18.0023 24.6404 19.1762 25.4388 19.5352 25.7402V25.7412C20.4371 26.5229 20.6475 27.9368 19.8047 28.9434L19.6221 29.1396L19.6182 29.1436C18.7932 30.0026 17.4606 30.0811 16.542 29.3623L16.3643 29.208C16.3621 29.2054 16.3598 29.2008 16.3555 29.1953C16.3442 29.1809 16.3282 29.1607 16.3086 29.1348C16.2695 29.0831 16.2162 29.011 16.1523 28.9248C16.0246 28.7524 15.856 28.5242 15.6826 28.2871C15.3354 27.8125 14.9678 27.3057 14.8574 27.1494L14.7559 27.0059L14.6299 27.1299L12.9707 28.7627L12.9697 28.7637C12.2744 29.4602 11.3419 29.8466 10.3477 29.8467C9.41575 29.8467 8.537 29.5066 7.85254 28.8848L7.71875 28.7568L6.0332 27.0713C6.56485 26.6966 7.06205 26.3479 7.4375 26.082C7.64221 25.9371 7.81142 25.8166 7.93066 25.7314C7.99024 25.6889 8.03794 25.6551 8.07129 25.6309C8.08787 25.6188 8.1014 25.609 8.11133 25.6016C8.11624 25.5979 8.12114 25.5938 8.125 25.5908L8.14355 25.5752L8.14551 25.5732C8.63832 25.0608 8.91655 24.4271 8.89844 23.7529C8.88061 23.0929 8.57787 22.4136 7.95215 21.7842C7.95146 21.7831 7.95075 21.7821 7.9502 21.7812C7.94853 21.7787 7.94746 21.7761 7.94629 21.7744C7.94409 21.7713 7.94173 21.7692 7.94043 21.7676C7.93904 21.7659 7.93748 21.7638 7.93652 21.7627C7.93478 21.7607 7.93278 21.759 7.93164 21.7578C7.92942 21.7554 7.9276 21.7528 7.92578 21.751C7.92183 21.747 7.91716 21.7422 7.91309 21.7383C7.90905 21.7344 7.90454 21.7303 7.90039 21.7266C7.89835 21.7247 7.89531 21.722 7.89258 21.7197L7.88281 21.7119C7.88114 21.7107 7.87813 21.7091 7.875 21.707C7.87341 21.706 7.87153 21.7045 7.86914 21.7031C7.86664 21.7017 7.86286 21.6994 7.8584 21.6973C7.85732 21.6968 7.85595 21.696 7.85449 21.6953C6.83836 20.8575 5.3649 20.9158 4.4209 21.8047L4.23633 21.9971L4.23535 21.998C4.1023 22.156 3.53337 22.9746 2.88379 23.9199L1.24023 22.2764C-0.209753 20.8264 -0.210207 18.4684 1.23926 17.0195L2.6123 15.667L2.73926 15.543L2.5957 15.4385C2.30663 15.2293 1.86062 14.9054 1.48242 14.6279C1.29336 14.4892 1.12141 14.3623 0.994141 14.2676C0.930439 14.2202 0.878134 14.1808 0.84082 14.1523C0.82232 14.1382 0.807969 14.1271 0.797852 14.1191L0.791016 14.1143C-0.0334294 13.2548 -0.0598017 11.9214 0.695312 11.0322L0.856445 10.8613L0.858398 10.8584ZM17.0557 1.20117C18.4145 -0.156513 20.6009 -0.199774 22.0137 1.07422L22.1475 1.20117L24.0605 3.11426L24.1631 2.9707C24.4036 2.63559 24.8249 2.09868 25.1934 1.63867C25.3772 1.40917 25.5473 1.19964 25.6738 1.04492C25.7371 0.967534 25.7895 0.903688 25.8271 0.858398L25.8828 0.791992C26.741 -0.0330257 28.1465 -0.0932407 29.1006 0.816406L29.2852 1.01172V1.0127C30.1178 1.972 30.0142 3.4246 29.0557 4.25684C28.9183 4.37233 28.5424 4.62589 28.1123 4.91016C27.6879 5.19062 27.2189 5.49624 26.9082 5.70898L26.7588 5.81152L26.8867 5.93848L28.7949 7.84863C30.155 9.20871 30.1979 11.3961 28.9229 12.8066L28.7949 12.9404L28.791 12.9453L27.4648 14.3936L27.3477 14.5215L27.4902 14.6191C27.8625 14.8752 28.4004 15.2466 28.7637 15.5156L29.0557 15.7422C30.0121 16.5724 30.1156 18.02 29.29 18.9795C28.6816 19.5494 28.0558 19.8209 27.4756 19.8457C26.9677 19.8673 26.4823 19.7013 26.0596 19.3623L25.8828 19.207L25.8818 19.2061L25.8799 19.2021C25.8726 19.193 25.8617 19.1802 25.8486 19.1631C25.8224 19.1289 25.7861 19.0804 25.7422 19.0215C25.6545 18.9039 25.5366 18.7439 25.4062 18.5664C25.1456 18.2113 24.8361 17.7853 24.6182 17.4844L24.5146 17.3418L24.3906 17.4668L21.915 19.9404L10.1748 8.2002L13.1396 5.12207C13.5621 5.72152 13.969 6.29974 14.2812 6.74121C14.4502 6.98004 14.5918 7.17932 14.6924 7.32031C14.7425 7.3906 14.7828 7.44681 14.8115 7.48633C14.8258 7.50603 14.8379 7.52248 14.8467 7.53418C14.851 7.53989 14.8549 7.54538 14.8584 7.5498C14.8594 7.55106 14.8675 7.56113 14.877 7.57031V7.57129C15.3895 8.06409 16.0231 8.34135 16.6973 8.32324C17.3574 8.30538 18.0365 8.00284 18.666 7.37695C18.667 7.37637 18.6682 7.37646 18.6689 7.37598L18.6826 7.36621C18.6843 7.36482 18.6864 7.36326 18.6875 7.3623L18.7119 7.33789C18.7157 7.33388 18.72 7.32929 18.7236 7.3252C18.7254 7.32318 18.7282 7.32101 18.7305 7.31836C18.7316 7.317 18.7327 7.31469 18.7344 7.3125C18.7353 7.31137 18.737 7.31034 18.7383 7.30859C18.7395 7.30693 18.7411 7.30402 18.7432 7.30078C18.7442 7.29911 18.7456 7.29656 18.7471 7.29395C18.7485 7.29143 18.7508 7.28761 18.7529 7.2832V7.28125C19.5935 6.26506 19.5347 4.79115 18.6455 3.84668L18.4531 3.66211L18.4521 3.66113L18.1543 3.43848C18.0081 3.3336 17.8195 3.20131 17.6035 3.05078C17.2054 2.77327 16.7059 2.4294 16.1846 2.07227L17.0557 1.20117Z" fill="#6FBE3E" stroke="white" stroke-width="0.3"/>
</svg>
