<svg width="25" height="30" viewBox="0 0 25 30" fill="none" xmlns="http://www.w3.org/2000/svg">
<path d="M22.3125 3.42676C22.9389 3.63467 23.4942 4.01168 23.9189 4.5127L24.0928 4.73438C24.5343 5.34664 24.7726 6.08272 24.7725 6.83789V14.96C24.7723 20.2483 21.9142 23.8757 18.9805 26.208C16.4115 28.2503 13.7943 29.2908 13.0205 29.5723L12.8076 29.6465L12.4023 29.7803L12.0156 29.6084C11.7763 29.5032 8.80219 28.1604 5.89062 25.6777C2.97679 23.1931 0.150565 19.5884 0.150391 14.96V6.83789L0.161133 6.55566C0.20524 5.99421 0.380442 5.45083 0.672852 4.96973L0.829102 4.73438C1.21547 4.1986 1.74075 3.78142 2.3457 3.52637L2.60938 3.42676L12.4609 0.158203L22.3125 3.42676ZM17.7041 9.01367L11.3564 15.3682L8.66699 12.5605L8.5625 12.4521L8.4541 12.5557L6.65625 14.2803L6.54785 14.3838L6.65234 14.4922L9.52344 17.4834V17.4844C9.6945 17.6693 9.89276 17.8262 10.1104 17.9512L10.334 18.0654C10.5639 18.1681 10.8075 18.2355 11.0566 18.2646L11.3076 18.2812H11.3506C11.5971 18.282 11.842 18.2459 12.0771 18.1748L12.3096 18.0918C12.6134 17.9658 12.8893 17.7805 13.1211 17.5469L13.1201 17.5459L19.6787 10.9902L19.7842 10.8838L19.6787 10.7773L17.917 9.01367L17.8105 8.90723L17.7041 9.01367Z" fill="#6FBE3E" stroke="white" stroke-width="0.3"/>
</svg>
