<svg width="30" height="30" viewBox="0 0 30 30" fill="none" xmlns="http://www.w3.org/2000/svg">
<path d="M22.2246 20.2256C22.0697 21.5794 21.7144 22.9021 21.1631 24.1484L20.8926 24.7236C20.273 25.9506 19.3743 27.2203 18.2705 28.1865C17.1667 29.1527 15.8668 29.8075 14.4414 29.8281C13.7508 29.8272 13.0845 29.593 12.5498 29.168L12.3291 28.9746C11.7337 28.3867 11.3979 27.5878 11.3955 26.7539V26.4863L12.3301 26.0742L12.3291 26.0713C14.5357 25.1535 16.6625 24.0583 18.6875 22.7949L19.5498 22.2432L19.5547 22.2402C20.4984 21.5696 21.3875 20.8966 22.2246 20.2256ZM2.48145 22.3184C3.84583 20.9881 6.01125 20.955 7.41602 22.2178L7.5498 22.3447C8.95267 23.7401 8.95403 25.9986 7.55566 27.3965C6.17055 28.3918 4.61431 29.1253 2.96387 29.5596L2.63086 29.6426C2.40907 29.6928 2.18102 29.7058 1.95605 29.6807L1.73242 29.6426C0.643425 29.3956 -0.03734 28.319 0.209961 27.2383C0.633238 25.4682 1.40404 23.7988 2.47754 22.3252L2.48145 22.3184ZM26.2227 0.150391C27.5585 0.150744 28.4488 0.421807 29.0088 0.980469C29.499 1.4697 29.7606 2.20397 29.8184 3.24609L29.8311 3.71191C29.665 9.04063 25.8037 14.3614 17.9316 19.9766C15.8561 21.3141 13.6687 22.4708 11.3955 23.4395V22.9688C11.3838 20.5676 9.4896 18.6111 7.10645 18.4805L6.875 18.4736H6.40039C7.37586 16.2164 8.5404 14.0445 9.88574 11.9834C15.5223 4.17121 20.8677 0.325361 26.2227 0.150391ZM9.59961 7.75391C9.1224 8.34571 8.64471 8.96242 8.16699 9.60449L7.61133 10.3613L7.6084 10.3662C6.10069 12.6359 4.80967 15.0409 3.75293 17.5498L3.34375 18.4609C2.36233 18.3515 1.46971 17.8497 0.87207 17.0723L0.75293 16.9072C0.139978 16.0107 -0.0135546 14.8846 0.329102 13.8643L0.404297 13.6621C1.3437 11.7622 2.8754 10.2194 4.76562 9.25977L5.14844 9.07617L5.15332 9.07324C6.54932 8.38315 8.05351 7.9392 9.59961 7.75391ZM19.3643 7.29785C17.5578 7.29785 16.092 8.75376 16.0918 10.5518C16.0918 12.3499 17.5577 13.8066 19.3643 13.8066C21.1708 13.8066 22.6367 12.3498 22.6367 10.5518C22.6365 8.75388 21.1707 7.29794 19.3643 7.29785Z" fill="#6FBE3E" stroke="white" stroke-width="0.3"/>
</svg>
