<svg width="30" height="30" viewBox="0 0 30 30" fill="none" xmlns="http://www.w3.org/2000/svg">
<circle cx="15" cy="15" r="14.85" fill="#6FBE3E" stroke="white" stroke-width="0.3"/>
<path d="M15 3.15039C18.5569 3.15039 21.9145 4.75194 24.1572 7.47852L24.2617 7.60645L25.4814 6.38672C25.987 5.88179 26.8496 6.23985 26.8496 6.9541V10.7842C26.8495 11.3662 26.3781 11.8379 25.7949 11.8379H21.9648C21.2953 11.8378 20.9393 11.0789 21.3145 10.5674L21.3994 10.4688L22.3379 9.53027L22.2578 9.42578C20.5836 7.24931 18.0146 5.93272 15.2676 5.85254L15.001 5.84863C9.95519 5.84965 5.84961 9.95413 5.84961 15C5.84961 20.0459 9.95517 24.1504 15 24.1504C19.3832 24.1504 23.1743 20.9874 23.9873 16.7246L24.0566 16.3096C24.1562 15.6189 24.766 15.1257 25.4473 15.1514L25.584 15.1631C26.2762 15.2629 26.7707 15.8711 26.7422 16.5537L26.7295 16.6904C25.9011 22.4814 20.8585 26.8496 14.999 26.8496C8.46587 26.8496 3.15039 21.5342 3.15039 15C3.15039 8.46584 8.46584 3.15039 15 3.15039ZM13.6504 20.8008L13.5312 20.7754C12.6741 20.5904 11.9102 20.0732 11.4248 19.3281L11.332 19.1758C10.9819 18.5709 11.1536 17.8072 11.708 17.4062L11.8242 17.3311C12.4281 16.9819 13.1918 17.1535 13.5928 17.708L13.668 17.8242C13.7856 18.0271 13.9975 18.1504 14.2324 18.1504H15.4131C15.82 18.1503 16.1503 17.8187 16.1504 17.4131C16.1504 17.1487 16.0112 16.9096 15.7881 16.7783L15.6875 16.7285L13.3105 15.7773C11.9987 15.2531 11.1514 14.0025 11.1514 12.5869C11.1514 11.0563 12.1592 9.75331 13.5469 9.31152L13.6514 9.27832V8.5C13.6514 7.75479 14.2549 7.1504 15.001 7.15039C15.7471 7.15039 16.3506 7.75478 16.3506 8.5V9.2002L16.4697 9.22559C17.3269 9.40963 18.0916 9.92685 18.5771 10.6719L18.6699 10.8242C19.0425 11.4695 18.822 12.2954 18.1768 12.6689C17.572 13.019 16.8082 12.8466 16.4072 12.292L16.332 12.1758C16.2144 11.9729 16.0025 11.8496 15.7676 11.8496H14.5869C14.18 11.8497 13.8497 12.1813 13.8496 12.5869C13.8496 12.8512 13.9885 13.091 14.2119 13.2217L14.3125 13.2705L16.6904 14.2227C18.0023 14.7469 18.8496 15.9985 18.8496 17.4131C18.8496 18.9437 17.8419 20.2457 16.4541 20.6885L16.3496 20.7217V21.5C16.3496 22.2452 15.7461 22.8496 15 22.8496C14.2539 22.8496 13.6504 22.2452 13.6504 21.5V20.8008Z" fill="#414748" stroke="white" stroke-width="0.3"/>
</svg>
