<svg width="30" height="30" viewBox="0 0 30 30" fill="none" xmlns="http://www.w3.org/2000/svg">
<path d="M29.7963 16.3379C29.5205 19.2983 28.358 22.1049 26.4613 24.3945L18.4056 16.3379H29.7963Z" fill="#6FBE3E" stroke="white" stroke-width="0.3"/>
<path d="M13.625 15.5176L14.0352 15.9277L24.4834 26.375C22.8386 27.7403 20.9205 28.7352 18.8584 29.29L18.4336 29.3975C16.1576 29.9383 13.7857 29.9333 11.5117 29.3838C9.37979 28.8685 7.38985 27.8883 5.68457 26.5146L5.34766 26.2344C3.68097 24.8088 2.35148 23.0334 1.4541 21.0361L1.28027 20.6338C0.440784 18.6074 0.0614775 16.4216 0.166992 14.2344L0.194336 13.7969C0.364614 11.6104 1.01722 9.49048 2.10254 7.58887L2.3252 7.21191C3.46822 5.33979 5.01109 3.74518 6.84082 2.54199L7.20996 2.30664C9.1555 1.10791 11.3511 0.375521 13.625 0.164062V15.5176Z" fill="#6FBE3E" stroke="white" stroke-width="0.3"/>
<path d="M16.4253 0.166016C19.8602 0.491193 23.0769 2.00126 25.519 4.44336C27.9611 6.88543 29.4702 10.1023 29.7954 13.5371H16.4253V0.166016Z" fill="#6FBE3E" stroke="white" stroke-width="0.3"/>
</svg>
