<svg width="25" height="30" viewBox="0 0 25 30" fill="none" xmlns="http://www.w3.org/2000/svg">
<path d="M12.4609 0.150391C17.1951 0.150391 21.0342 3.99994 21.0342 8.75V10.6279L21.124 10.667C23.337 11.6359 24.7693 13.8273 24.7725 16.25V23.75L24.7637 24.0635C24.5973 27.2854 21.9427 29.8457 18.6914 29.8496H6.23047L5.91797 29.8418C2.70719 29.675 0.15436 27.0125 0.150391 23.75V16.25L0.154297 16.0234C0.243404 13.6914 1.65491 11.6056 3.79883 10.667L3.88867 10.6279V8.75C3.88867 3.99997 7.7268 0.150446 12.4609 0.150391ZM12.4609 17.3496C11.6895 17.3497 11.0654 17.9773 11.0654 18.75V21.25C11.0654 22.0227 11.6895 22.6503 12.4609 22.6504C13.2324 22.6504 13.8574 22.0228 13.8574 21.25V18.75C13.8574 17.9772 13.2324 17.3496 12.4609 17.3496ZM12.4609 2.34961C8.93665 2.34967 6.0801 5.21589 6.08008 8.75V10.1504H18.8418V8.75C18.8418 5.2158 15.9853 2.34961 12.4609 2.34961Z" fill="#6FBE3E" stroke="white" stroke-width="0.3"/>
</svg>
