<svg width="30" height="30" viewBox="0 0 30 30" fill="none" xmlns="http://www.w3.org/2000/svg">
<path d="M21.25 15.1504C24.6133 15.1505 27.3496 17.8867 27.3496 21.25C27.3496 22.492 26.9762 23.6472 26.3369 24.6123L26.2695 24.7148L26.3564 24.8008L29.5273 27.9727C29.9306 28.3761 29.9557 29.012 29.6025 29.4443L29.5273 29.5273C29.3129 29.7418 29.0316 29.8495 28.75 29.8496C28.5036 29.8496 28.2571 29.7677 28.0557 29.6035L27.9717 29.5273L24.7139 26.2695L24.6123 26.3379C23.6473 26.9772 22.4919 27.3496 21.25 27.3496C17.8866 27.3496 15.1494 24.6134 15.1494 21.25C15.1494 17.8866 17.8866 15.1504 21.25 15.1504ZM29.8496 11.4004V18.959C28.8364 15.1581 25.3658 12.3497 21.25 12.3496C16.3422 12.3496 12.3496 16.3422 12.3496 21.25C12.3496 23.6092 13.2733 25.756 14.7764 27.3496H6.25C2.88663 27.3496 0.150391 24.6134 0.150391 21.25V11.4004H29.8496ZM6.25 0.150391H23.75C27.1133 0.150524 29.8496 2.88667 29.8496 6.25V8.59961H0.150391V6.25C0.150391 2.88659 2.88663 0.150391 6.25 0.150391ZM5.625 2.34961C4.50717 2.34961 3.59961 3.25716 3.59961 4.375C3.59961 5.49284 4.50717 6.40039 5.625 6.40039C6.74281 6.40036 7.65039 5.49282 7.65039 4.375C7.65039 3.25718 6.74281 2.34964 5.625 2.34961ZM10.625 2.34961C9.50717 2.34961 8.59961 3.25716 8.59961 4.375C8.59961 5.49284 9.50717 6.40039 10.625 6.40039C11.7428 6.40033 12.6494 5.4928 12.6494 4.375C12.6494 3.2572 11.7428 2.34967 10.625 2.34961Z" fill="#6FBE3E" stroke="white" stroke-width="0.3"/>
</svg>
