<svg width="22" height="22" viewBox="0 0 22 22" fill="none" xmlns="http://www.w3.org/2000/svg">
<g clip-path="url(#clip0_1_378)">
<path d="M1.77971 13.4924H9.78843V21.5011H6.229C5.04898 21.5011 3.91728 21.0323 3.08288 20.1979C2.24848 19.3635 1.77971 18.2318 1.77971 17.0518V13.4924ZM21.3566 9.93296C21.3566 10.405 21.1691 10.8577 20.8353 11.1914C20.5016 11.5252 20.0489 11.7127 19.5769 11.7127H11.5681V8.11498C11.2692 8.13812 10.9711 8.15325 10.6783 8.15325C10.3855 8.15325 10.0874 8.13812 9.78843 8.11498V11.7127H1.77971C1.30771 11.7127 0.855028 11.5252 0.521266 11.1914C0.187505 10.8577 0 10.405 0 9.93296C0 8.98894 0.37501 8.08359 1.04253 7.41607C1.71006 6.74854 2.61541 6.37353 3.55943 6.37353H5.106C4.60287 5.93002 4.20351 5.38123 3.93623 4.76609C3.66895 4.15095 3.54031 3.48453 3.55943 2.8141C3.55943 2.5781 3.65318 2.35176 3.82006 2.18488C3.98694 2.018 4.21328 1.92425 4.44929 1.92425C4.68529 1.92425 4.91163 2.018 5.07851 2.18488C5.24539 2.35176 5.33914 2.5781 5.33914 2.8141C5.33914 5.14731 7.449 5.9553 9.05341 6.23205C8.46122 5.18206 8.10474 4.01574 8.00872 2.8141C8.00872 2.10609 8.28997 1.42707 8.79062 0.926431C9.29126 0.425789 9.97027 0.144531 10.6783 0.144531C11.3863 0.144531 12.0653 0.425789 12.566 0.926431C13.0666 1.42707 13.3479 2.10609 13.3479 2.8141C13.2518 4.01574 12.8954 5.18206 12.3032 6.23205C13.9076 5.9553 16.0174 5.14731 16.0174 2.8141C16.0174 2.5781 16.1112 2.35176 16.2781 2.18488C16.4449 2.018 16.6713 1.92425 16.9073 1.92425C17.1433 1.92425 17.3696 2.018 17.5365 2.18488C17.7034 2.35176 17.7971 2.5781 17.7971 2.8141C17.8163 3.48453 17.6876 4.15095 17.4204 4.76609C17.1531 5.38123 16.7537 5.93002 16.2506 6.37353H17.7971C18.7412 6.37353 19.6465 6.74854 20.314 7.41607C20.9816 8.08359 21.3566 8.98894 21.3566 9.93296ZM9.78843 2.8141C9.89585 3.75987 10.1989 4.67294 10.6783 5.49524C11.1577 4.67294 11.4607 3.75987 11.5681 2.8141C11.5681 2.5781 11.4744 2.35176 11.3075 2.18488C11.1406 2.018 10.9143 1.92425 10.6783 1.92425C10.4423 1.92425 10.2159 2.018 10.0491 2.18488C9.88218 2.35176 9.78843 2.5781 9.78843 2.8141ZM11.5681 21.5011H15.1276C15.7119 21.5011 16.2904 21.386 16.8302 21.1624C17.3701 20.9388 17.8605 20.6111 18.2737 20.1979C18.6869 19.7848 19.0146 19.2943 19.2382 18.7545C19.4618 18.2147 19.5769 17.6361 19.5769 17.0518V13.4924H11.5681V21.5011Z" fill="#6FBE3E"/>
</g>
<defs>
<clipPath id="clip0_1_378">
<rect width="21.3566" height="21.3566" fill="white" transform="translate(0 0.144531)"/>
</clipPath>
</defs>
</svg>
