<svg width="557" height="95" viewBox="0 0 557 95" fill="none" xmlns="http://www.w3.org/2000/svg">
<path d="M555.444 93.0237C555.365 91.8599 555.196 90.3637 554.996 89.1902C554.934 88.8258 554.995 89.0048 554.952 88.7529C554.865 88.2602 554.752 87.8068 554.648 87.321C554.613 87.1599 554.702 87.3493 554.664 87.1805C554.455 86.2537 554.196 85.3946 553.89 84.4462C553.153 82.1715 552.175 79.9248 550.931 77.6611C549.649 75.3281 548.078 72.9713 546.191 70.5903C544.962 69.0314 543.369 67.1706 541.77 65.5673C541.586 65.3827 541.668 65.5194 541.631 65.4862C541.05 64.9648 541.285 65.0967 540.929 64.7284C539.527 63.2805 537.761 61.6644 536.124 60.2997C536.114 60.2915 536.104 60.2835 536.095 60.2757C535.444 59.7377 536.067 60.3528 535.4 59.7423C535.352 59.6994 535.556 59.8173 535.366 59.6541C534.934 59.2818 534.092 58.6091 533.727 58.317C533.036 57.7628 532.919 57.6726 532.246 57.1554C531.326 56.4485 530.209 55.5984 529.155 54.859C528.93 54.7013 529.203 54.9448 528.842 54.6964C528.489 54.4528 527.495 53.7572 527.164 53.5216C526.832 53.2835 526.993 53.3555 526.937 53.3088C526.482 52.9224 525.252 52.2075 525.095 52.1093C522.316 50.3321 519.663 48.666 516.676 46.9733C514.403 45.6843 511.773 44.2956 509.387 43.0848C509.367 43.0748 509.347 43.0647 509.328 43.0546C506.416 41.5776 503.792 40.2986 500.705 38.9032C500.367 38.7512 500.743 38.9726 500.331 38.7872C495.948 36.8203 491.405 34.9223 486.388 32.9644C485.89 32.7708 486.548 32.9777 486.052 32.7821C483.077 31.5941 477.808 29.628 475.77 29.133C473.503 28.3465 470.534 27.3608 468.371 26.6371C467.17 26.2351 468.01 26.4636 467.186 26.2058C467.047 26.1624 466.86 26.1053 466.607 26.0292C466.212 25.9103 466.713 26.1078 466.121 25.9269C463.611 25.16 460.675 24.2672 458.027 23.5276C457.485 23.3763 457.623 23.4528 457.468 23.415C456.179 23.0974 454.006 22.403 453.483 22.254C449.693 21.165 446.944 20.4635 443.183 19.5175C442.294 19.2954 443.333 19.6036 442.478 19.3918C437.998 18.2856 433.458 17.2195 428.553 16.1268C427.493 15.891 428.478 16.0639 427.971 15.9492C425.732 15.4465 425.215 15.4155 423.044 14.9464C422.585 14.8481 422.851 14.8677 422.768 14.8466C421.44 14.511 420.187 14.3451 419.836 14.2765C415.241 13.3854 412.515 12.7775 407.698 11.9238C407.127 11.8238 408.406 12.0958 406.802 11.8125C404.528 11.4127 402.208 11.0173 399.855 10.6293C390.841 9.14201 380.877 7.69546 370.339 6.41707C368.227 6.16241 369.739 6.30752 369.607 6.28774C367.446 5.96972 366.022 5.8968 365.328 5.82235C360.022 5.25022 354.185 4.60543 350.219 4.35172C329.807 2.46008 304.761 1.16555 278.501 1.15076C272.08 1.1422 265.652 1.20539 259.417 1.33123C259.014 1.33952 259.735 1.28083 258.931 1.29767C249.288 1.53117 251.11 1.55874 244.961 1.8685C243.41 1.94715 238.721 2.06761 238.311 2.0843C236.804 2.13305 238.362 1.99321 237.858 2.01324C233.734 2.18672 234.469 2.34724 229.093 2.66476C228.925 2.67457 229.625 2.59407 229.176 2.61753C227.781 2.69045 226.404 2.79305 225.045 2.86976C221.869 3.05376 220.949 3.01287 216.45 3.41402C215.888 3.46748 216.749 3.50865 212.304 3.86562C210.325 4.01672 203.141 4.66792 201.07 4.87483C199.032 5.06896 200.427 4.89294 200.282 4.90562C194.814 5.40965 196.836 5.18643 194.245 5.38575C191.673 5.59153 192.404 5.68945 191.364 5.82443C190.319 5.95787 186.595 6.34942 185.686 6.44724C184.776 6.54262 185.906 6.38208 185.097 6.47163C179.833 7.06641 182.821 6.8401 181.131 7.07919C177.248 7.64012 174.231 7.91853 170.733 8.40405C169.814 8.53218 170.563 8.45458 169.766 8.57218C166.632 9.03824 164.75 9.27916 161.243 9.86852C160.792 9.94435 158.72 10.3292 157.137 10.5783C156.79 10.6327 156.456 10.6822 156.15 10.7229C155.906 10.7553 156.59 10.6078 155.362 10.8062C153.526 11.1014 150.249 11.6638 148.318 12.0254C146.891 12.292 148.536 12.0472 146.738 12.358C145.946 12.4958 147.395 12.1979 145.93 12.4558C144.515 12.7019 140.945 13.3833 139.602 13.6514C138.258 13.9172 139.002 13.8121 138.894 13.8361C138.237 13.9797 135.679 14.5154 135.455 14.5626C124.43 16.8254 115.275 18.9505 106.602 21.2897C105.917 21.475 106.384 21.3939 106.28 21.4226C103.947 22.0716 105.758 21.4631 104.12 21.87C104.382 21.8888 103.403 22.1378 101.799 22.5965C101.051 22.8111 101.468 22.729 101.401 22.7514C100.305 23.1124 99.5222 23.269 99.3209 23.3126C98.5783 23.4739 97.8059 23.7592 97.3051 23.8712C96.8048 23.9836 97.9206 23.6054 96.4588 24.0352C96.0585 24.1856 97.1643 23.9439 96.0608 24.2833C94.3704 24.8037 91.9792 25.5294 89.8137 26.205C86.6339 27.1927 83.4056 28.2434 81.6801 28.8297C78.7883 29.8132 77.8832 30.1471 76.2346 30.7261C73.2856 31.7769 74.3631 31.4498 72.6008 32.1339C70.8721 32.8144 71.6657 32.3581 71.4044 32.4224C71.1487 32.4855 70.8939 32.6175 70.5851 32.717C70.2775 32.8162 70.9221 32.5459 70.2112 32.8116C69.4966 33.0766 67.6028 33.8802 67.3717 34.0098C66.8786 34.2826 67.7557 34.0094 65.9186 34.7187C65.8133 34.7595 66.1387 34.5862 65.7362 34.7445C62.5609 35.9957 59.515 37.2944 56.6081 38.5744C56.2106 38.7496 56.5468 38.5505 56.3153 38.6521C53.9791 39.6855 54.8456 39.3725 53.6254 40.0278C53.8622 39.7999 53.1336 40.0595 51.4348 40.8738C50.4177 41.3642 50.6143 41.3223 49.9768 41.6709C49.7854 41.7754 49.0632 42.0965 48.946 42.18C48.5684 42.4506 49.2264 42.2074 47.5728 43.0059C47.5722 43.0062 47.5715 43.0065 47.5708 43.0069C47.5452 43.0192 47.5549 43.0084 47.5671 42.9946C47.5833 42.9766 47.604 42.9534 47.5552 42.9711C47.5359 42.9781 47.5056 42.9916 47.4598 43.0143C45.8566 43.8167 45.701 43.9818 44.0247 44.8824C42.7049 45.5906 40.4149 46.8064 39.0602 47.5853C39.0267 47.463 37.7454 48.2397 37.2755 48.6192C36.399 49.136 35.4732 49.705 34.6504 50.2037C34.3692 50.3743 34.534 50.2303 34.4965 50.2491C33.9357 50.5289 33.6263 50.8221 33.453 50.936C31.5765 52.1688 30.0557 53.1135 28.4119 54.3402C28.3553 54.3829 28.3087 54.5176 27.8397 54.7756C27.8093 54.7921 28.3219 54.3798 27.5588 54.9202C26.7947 55.4603 25.3678 56.455 24.4017 57.2525C24.166 57.4453 23.6047 57.9683 23.0973 58.3048C23.0295 58.3496 23.0837 58.2755 22.984 58.3378C22.6628 58.5396 22.5637 58.7285 22.1831 58.9448C21.8796 59.1174 21.3527 59.4883 20.7097 60.045C20.5499 60.1834 20.383 60.3333 20.2107 60.4944C20.1831 60.5201 20.0144 60.7536 19.7353 60.9957C19.2887 61.3819 18.6599 61.924 18.2148 62.3324C18.0016 62.528 18.1665 62.4338 18.1299 62.4683C16.7401 63.7825 15.7715 64.6725 14.4102 66.0666C14.1627 66.319 13.5004 67.11 13.0341 67.564C12.5166 68.0729 12.8459 67.3769 11.7966 68.6614C11.3785 69.1814 11.0422 69.986 10.2196 70.8158C8.86791 72.6019 7.68988 74.1791 6.64192 75.995C6.59474 76.0767 6.50769 76.3629 6.39773 76.5483C6.23435 76.8233 6.11792 76.9581 6.00359 77.1546C5.93375 77.2747 5.86615 77.3937 5.80038 77.512C5.4156 78.2047 5.09219 78.8696 4.75274 79.5553C4.60307 79.8603 4.62226 79.738 4.44749 80.1026C4.27488 80.4673 4.2043 80.7316 3.97138 81.2096C3.7958 81.572 3.55249 81.9061 3.34693 82.3964C3.42719 82.4497 3.28817 82.7872 3.09149 83.3989C3.05398 83.5164 3.12959 83.4032 3.11344 83.4594C3.04859 83.688 2.95065 83.8856 2.89546 84.1037C2.88202 84.1568 2.91143 84.1695 2.90226 84.2133C2.82397 84.5861 2.57046 85.1557 2.5285 85.2545C2.36523 85.63 2.35449 85.8195 2.25367 86.1111C2.15429 86.4021 2.25314 85.9532 2.14758 86.2962C1.92853 87.0076 1.71681 87.9351 1.57349 88.6692C1.51636 88.9622 1.5969 88.7702 1.58968 88.8124C1.4835 89.4182 1.34206 90.0294 1.37919 90.3734C1.10542 90.7596 1.34427 90.7379 1.20504 91.5909C1.19455 91.6582 1.0819 91.7343 1.09455 91.4716C1.10748 91.2087 1.18719 90.8175 1.21462 90.4533C1.21968 90.3687 1.19795 89.86 1.20431 89.79C1.2456 89.2509 1.41528 89.2032 1.42782 89.1769C1.57339 88.8767 1.59199 88.2549 1.62039 88.0941C1.7436 87.3608 1.91862 86.7507 2.06125 86.1405C2.15615 85.7415 2.07047 85.6746 2.16515 85.3646C2.49418 84.3211 2.75181 84.0055 2.9952 82.9857C3.05086 82.7671 2.86301 82.9351 3.23904 82.2154C3.26215 82.1697 3.56083 81.6441 3.65294 81.3042C3.66433 81.2614 3.63404 81.25 3.65441 81.1957C3.79282 80.8314 3.91967 80.6093 4.0907 80.2087C4.26075 79.811 4.47112 79.3315 4.70667 78.8902C4.84798 78.624 5.08127 78.3078 5.16243 78.1868C5.33772 77.925 5.46744 77.6174 5.59587 77.3984C5.63504 77.3316 5.67399 77.273 5.71381 77.2267C5.88588 77.0275 5.70535 77.5044 6.06871 76.9333C6.00826 76.8697 5.96228 76.7766 5.90939 76.6991C6.65664 75.4109 7.51356 74.1259 8.42635 72.831C8.5401 72.6698 8.38626 72.8082 8.5077 72.6347C9.02398 71.9011 9.5172 71.2956 10.1101 70.5203C10.5653 69.9253 11.0549 69.2516 11.567 68.6325C11.956 68.3208 12.7191 67.399 13.3329 66.75C13.5501 66.5194 13.5548 66.5525 13.7151 66.393C14.3234 65.7918 13.9879 66.0252 14.1397 65.8453C14.8018 65.0745 14.9982 65.1461 15.8547 64.2885C15.8989 64.2431 16.3941 63.6173 16.4705 63.5367C16.9458 63.0241 16.578 63.4825 16.8999 63.1864C17.4883 62.6489 17.9213 62.28 18.6291 61.6029C18.8348 61.4058 19.3067 60.9012 19.7648 60.5706C19.8249 60.5271 19.8162 60.5795 19.8625 60.5421C20.2376 60.2376 20.4384 60.0502 20.5845 59.8971C20.7648 59.7085 20.8626 59.572 21.115 59.3356C21.5712 58.9067 22.378 58.348 22.5481 58.2399C22.9926 57.954 22.2493 58.5094 22.2331 58.5308C22.019 58.787 22.5546 58.3368 23.0024 57.9889C23.1298 58.0199 23.7448 57.5285 23.4632 57.6316C23.4311 57.6437 23.0932 57.9225 23.0024 57.9889C23.3239 57.6024 23.9988 57.0554 24.8311 56.5443C25.223 56.3057 24.9038 56.6057 26.0097 55.7592C26.5158 55.3757 26.2752 55.4631 26.7188 55.1155C27.7214 54.3294 29.188 53.3845 30.3548 52.5891C30.7776 52.3007 30.3415 52.5458 30.6301 52.3476C31.3978 51.8217 32.1071 51.3929 32.9009 50.8663C32.9729 50.8186 32.7728 50.8976 33.0224 50.7374C34.9037 49.5324 36.7156 48.4603 38.8897 47.2052C39.934 46.5989 41.8745 45.4882 43.0745 44.8494C44.3916 44.1427 45.9465 43.3577 47.3885 42.6427C48.1734 42.2531 48.9685 41.8615 49.6454 41.5227C50.893 40.901 50.6026 40.999 51.1307 40.7119C52.1489 40.1569 54.0805 39.3617 54.3458 39.258C54.3526 39.2545 53.2436 39.7818 53.8464 39.5243C54.2105 39.4035 54.3334 39.264 54.3458 39.258C54.5096 39.1889 56.773 38.1679 57.2669 37.9437C57.5196 37.8263 57.3614 37.8541 57.4936 37.7936C60.6712 36.3442 63.8214 35.0076 67.457 33.5867C67.5198 33.5627 67.4417 33.6405 67.5891 33.5836C69.6549 32.7898 70.9786 32.2277 72.715 31.5433C74.4998 30.8426 75.9801 30.3196 77.1016 29.9989C78.4974 29.489 80.5474 28.8119 81.7416 28.4284C82.9471 28.0403 83.1179 27.8953 83.22 27.8588C85.7069 26.9856 87.4691 26.4337 89.672 25.7543C90.4817 25.5052 91.3183 25.25 92.3425 24.9383C94.1608 24.38 97.8335 23.2803 99.8782 22.6932C101.476 22.2311 102.493 21.9678 104.071 21.5215C104.284 21.4614 104.059 21.4839 104.124 21.4647C105.874 20.9406 105.052 21.2611 105.421 21.1779C106.762 20.879 107.587 20.6889 109.877 20.0636C110.414 19.9172 111.901 19.3974 112.927 19.1317C114.258 18.7875 113.765 18.9595 115.164 18.6007C115.284 18.5703 115.251 18.5474 116.121 18.3357C120.146 17.3564 124.637 16.3337 129.308 15.3211C129.935 15.1855 129.121 15.3131 130.028 15.1168C134.132 14.2263 139.322 13.1804 143.816 12.3599C144.933 12.1558 144.24 12.3193 144.484 12.2834C145.921 12.0728 148.218 11.5693 148.575 11.5046C151.549 10.9563 154.322 10.4803 157.047 10.0345C162.72 9.11137 167.957 8.33166 175.163 7.32231C175.742 7.23766 180.244 6.5486 182.292 6.37666C182.382 6.37045 184.541 6.18163 186.433 5.90208C186.551 5.8849 185.206 6.00223 187.545 5.72975C189.905 5.45553 193.617 5.01036 197.011 4.70521C198.11 4.60553 200.715 4.41741 204.019 4.04244C204.269 4.01051 209.233 3.41212 211.324 3.34197C211.644 3.3338 211.312 3.45844 215.552 3.06612C216.363 2.99239 214.886 3.08315 217.026 2.90292C220.26 2.6313 224.752 2.34248 229.11 2.03188C229.86 1.97681 233.063 1.71536 235.656 1.63552C236.068 1.62263 235.276 1.69875 236.68 1.63021C243.488 1.30085 250.543 1.00366 257.886 0.845383C260.449 0.792908 259.138 0.87915 261.815 0.83786C264.475 0.794724 269.972 0.734283 272.825 0.693985C275.684 0.652351 272.557 0.57428 276.847 0.552338C277.398 0.550316 277.948 0.54892 278.501 0.548134C296.644 0.516792 314.285 1.18282 330.038 2.19746C332.469 2.35636 330.46 2.18946 334.034 2.42984C347.29 3.2716 366.472 5.21823 375.105 6.43379C381.938 7.36499 373.331 6.29976 378.548 6.99636C381.061 7.3349 383.768 7.60405 384.368 7.68522C390.136 8.4634 393.754 9.0659 398.635 9.84079C399.603 9.99581 398.669 9.79986 399.475 9.92984C399.636 9.9557 399.796 9.98179 399.957 10.0081C402.546 10.4307 405.209 10.9056 407.625 11.3333C408.776 11.5374 408.57 11.4672 409.625 11.6609C412.137 12.1242 414.148 12.5172 416.455 12.9958C416.663 13.0391 415.248 12.8055 416.985 13.1449C419.791 13.6938 423.273 14.4338 426.195 15.0266C427.084 15.2075 427.137 15.1404 429.022 15.6043C429.416 15.7024 428.895 15.6765 431.107 16.0887C431.501 16.1603 435.15 16.8806 436.775 17.337C437.217 17.4592 438.337 17.7997 439.317 18.0244C439.449 18.0546 438.928 17.8874 439.739 18.0791C442.599 18.7575 445.546 19.5051 448.216 20.1922C448.942 20.3792 447.873 20.0554 448.954 20.3357C451.908 21.1007 455.626 22.1396 458.218 22.9024C459.204 23.192 458.512 23.028 458.583 23.0523C459.721 23.4445 460.42 23.5654 460.801 23.6728C463.146 24.3356 464.999 24.9417 466.983 25.5519C467.545 25.7254 467.159 25.5632 467.272 25.5949C467.306 25.6046 467.339 25.6138 467.369 25.6227C468.389 25.9153 467.578 25.7292 468.285 25.9608C470.324 26.63 472.571 27.362 474.577 28.0351C475.307 28.28 474.512 27.9629 475.151 28.1784C478.89 29.4379 482.771 30.8427 486.074 32.1296C486.699 32.3733 486.292 32.2554 486.42 32.3127C487.301 32.7082 488.632 33.1457 488.932 33.2568C490.301 33.7604 490.81 33.9984 491.991 34.4708C497.668 36.7326 503.988 39.6225 508.4 41.8541C508.855 42.0825 509.264 42.2899 509.682 42.5036C514.702 45.0838 518.406 47.2036 522.573 49.7714C522.859 49.9484 522.598 49.7314 522.84 49.881C525.925 51.7933 528.836 53.7998 531.447 55.7269C531.665 55.8878 531.379 55.6192 531.728 55.8765C532.446 56.404 533.328 57.0851 534.007 57.6412C534.338 57.9124 533.865 57.5854 534.198 57.8578C534.968 58.4874 535.76 59.1409 536.514 59.7705C536.516 59.7719 536.518 59.7733 536.519 59.7747C536.829 60.0331 536.386 59.5983 536.797 59.9467C539.633 62.3626 542.034 64.674 544.213 67.167C544.359 67.3352 544.422 67.5412 544.745 67.8815C544.787 67.8913 544.809 67.8701 544.839 67.8638C547.618 71.01 549.811 74.1369 551.566 77.3086C551.764 77.6679 551.957 78.0284 552.145 78.3899C552.222 78.5391 552.132 78.2588 552.281 78.548C553.145 80.2341 553.856 81.8373 554.419 83.572C554.474 83.744 554.366 83.6846 554.547 84.1819C554.582 84.2693 554.836 85.0227 554.91 85.214C554.92 85.2396 554.917 85.0905 554.991 85.3334C555.417 86.7354 555.75 88.2203 555.957 89.6434C555.99 89.8731 555.909 89.636 555.932 89.7996C556.094 90.9508 556.255 92.1902 556.272 93.2943C556.28 94.0318 556.193 93.7622 556.134 94.1544C556.126 94.2097 556.132 94.6644 556.09 94.6883C555.985 94.7492 555.866 94.5317 555.755 94.6228C555.732 94.6419 555.759 95.2437 555.7 94.8875C555.697 94.8625 555.673 94.4271 555.65 94.3206C555.634 94.2464 555.595 94.3815 555.574 94.2301C555.552 94.0789 555.583 93.911 555.552 93.6606C555.52 93.4106 555.479 93.5229 555.444 93.0237ZM87.3725 26.66C88.5581 26.3227 88.6867 26.1249 87.4274 26.5657C87.3666 26.5872 87.3114 26.6775 87.3725 26.66ZM7.62591 74.2038C8.02927 73.7162 8.19926 73.3039 7.90322 73.6445C7.60876 73.9863 7.50358 74.3529 7.62591 74.2038ZM4.55384 79.6644C4.90082 79.0729 4.76055 78.8804 4.47409 79.5601C4.45761 79.5996 4.53375 79.6991 4.55384 79.6644ZM556.017 92.3518C556.016 92.3575 556.038 92.6827 556.041 92.6904C556.101 92.8604 556.056 92.209 556.017 92.3518ZM2.46743 85.0815C2.55269 84.8976 2.70165 84.3345 2.59007 84.5621C2.49859 84.7456 2.35921 85.311 2.46743 85.0815ZM170.628 8.34528C170.663 8.34212 171.969 8.15884 171.941 8.15037C171.846 8.12211 170.033 8.39231 170.628 8.34528ZM0.954712 94.2505C1.00306 92.8879 1.25207 92.0862 1.14174 93.5543C1.12505 93.821 1.11429 92.9768 1.08154 93.3154C1.02202 93.937 1.12084 94.3528 1.0601 94.9883C1.04745 95.1041 0.949246 94.3286 0.954523 94.2481C0.954586 94.2489 0.954649 94.2497 0.954712 94.2505ZM88.1027 26.6144C88.1263 26.6086 89.0716 26.3099 89.0943 26.3011C89.5916 26.093 87.6864 26.6946 88.1027 26.6144ZM266.793 1.15366C266.942 1.14884 273.418 1.08806 273.635 1.08994C277.012 0.976776 263.914 1.0946 266.793 1.15366ZM39.0369 47.595C38.4676 47.9784 37.7709 48.3942 37.2782 48.6177C37.8564 48.2776 38.4433 47.9344 39.0369 47.595Z" fill="#6FBE3E"/>
</svg>
