<svg width="22" height="22" viewBox="0 0 22 22" fill="none" xmlns="http://www.w3.org/2000/svg">
<circle cx="11" cy="11" r="11" fill="#81BD52"/>
<path d="M11.768 8.424V17H10.36V8.424H11.768ZM11.08 5.208C11.2933 5.208 11.48 5.28267 11.64 5.432C11.8107 5.57067 11.896 5.79467 11.896 6.104C11.896 6.40267 11.8107 6.62667 11.64 6.776C11.48 6.92533 11.2933 7 11.08 7C10.8453 7 10.648 6.92533 10.488 6.776C10.328 6.62667 10.248 6.40267 10.248 6.104C10.248 5.79467 10.328 5.57067 10.488 5.432C10.648 5.28267 10.8453 5.208 11.08 5.208Z" fill="white"/>
</svg>
