<svg width="32" height="31" viewBox="0 0 32 31" fill="none" xmlns="http://www.w3.org/2000/svg">
<g clip-path="url(#clip0_27_1254)">
<path d="M15.9867 24.8756C10.8752 24.8756 8.54057 22.2718 8.54057 20.3615C8.53929 19.9064 8.72646 19.4705 9.05723 19.1564C9.388 18.8436 9.83287 18.6795 10.288 18.7051C12.4765 18.7051 11.9034 21.9872 15.9867 21.9872C18.0739 21.9872 19.2995 20.7307 19.2995 19.55C19.2995 18.841 18.8944 18.0307 17.5162 17.7064L12.9572 16.5564C9.29441 15.6243 8.65595 13.5884 8.65595 11.6987C8.65595 7.77818 12.2418 6.35895 15.6572 6.35895C18.8034 6.35895 22.5419 8.09613 22.5419 10.4474C22.5419 11.4602 21.6957 12.0025 20.7136 12.0025C18.8444 12.0025 19.1585 9.37818 15.3995 9.37818C13.5303 9.37818 12.547 10.2551 12.547 11.4807C12.547 12.7064 14.0008 13.1218 15.2777 13.4013L18.6418 14.1615C22.3303 14.9923 23.3124 17.1551 23.3124 19.2269C23.3124 22.4128 20.8457 24.8756 15.9829 24.8756M30.0995 18.1333C30.2457 17.2974 30.3188 16.45 30.3175 15.6C30.3354 11.3346 28.4611 7.28202 25.2008 4.5333C21.9406 1.78459 17.629 0.621767 13.4277 1.36023C12.1367 0.616639 10.6726 0.226895 9.18287 0.230741C6.12518 0.249972 3.30595 1.88843 1.77775 4.53715C0.248259 7.18587 0.239285 10.4461 1.75211 13.1038C0.908516 17.7423 2.38672 22.5 5.71108 25.8423C9.03544 29.1846 13.7854 30.6897 18.4277 29.8705C19.7175 30.6128 21.1803 31.0025 22.6675 31C25.7239 30.9807 28.5406 29.3423 30.0688 26.6948C31.597 24.0474 31.6098 20.7897 30.0995 18.1333Z" fill="#6FBE3E"/>
</g>
<defs>
<clipPath id="clip0_27_1254">
<rect width="30.7692" height="30.7692" fill="white" transform="translate(0.538574 0.230713)"/>
</clipPath>
</defs>
</svg>
