<svg width="31" height="31" viewBox="0 0 31 31" fill="none" xmlns="http://www.w3.org/2000/svg">
<g clip-path="url(#clip0_27_1250)">
<path fill-rule="evenodd" clip-rule="evenodd" d="M15.4615 0C6.96537 0 0.0769043 6.88846 0.0769043 15.3846C0.0769043 23.8808 6.96537 30.7692 15.4615 30.7692C23.9577 30.7692 30.8461 23.8808 30.8461 15.3846C30.8461 6.88846 23.9577 0 15.4615 0ZM22.5923 10.4628C22.3615 12.8949 21.359 18.7987 20.85 21.5231C20.6346 22.6769 20.209 23.0628 19.7987 23.1C18.9051 23.182 18.2269 22.509 17.3615 21.9423C16.0077 21.0551 15.2423 20.5026 13.9282 19.6359C12.409 18.6346 13.3936 18.0846 14.259 17.1859C14.4859 16.95 18.4218 13.3692 18.4987 13.0449C18.5077 13.0038 18.5179 12.8526 18.4269 12.7731C18.3359 12.6936 18.2038 12.7205 18.109 12.7423C17.9731 12.7731 15.8102 14.2026 11.6192 17.0308C11.0051 17.4526 10.4487 17.6577 9.94998 17.6474C9.40126 17.6359 8.34485 17.3372 7.55896 17.0808C6.59614 16.7679 5.82947 16.6013 5.89614 16.0705C5.93075 15.7936 6.31152 15.5103 7.03973 15.2205C11.5243 13.2667 14.5154 11.9782 16.0115 11.3551C20.2846 9.57821 21.1718 9.26923 21.7513 9.25897C22.4769 9.24872 22.6513 9.84744 22.5923 10.4628Z" fill="#6FBE3E"/>
</g>
<defs>
<clipPath id="clip0_27_1250">
<rect width="30.7692" height="30.7692" fill="white" transform="translate(0.0769043)"/>
</clipPath>
</defs>
</svg>
