<svg width="45" height="34" viewBox="0 0 45 34" fill="none" xmlns="http://www.w3.org/2000/svg">
<path d="M5.04785 10.7271L12.9354 4.41699" stroke="#CF2B2B"/>
<path d="M13.251 10.7271L5.3634 4.41699" stroke="#CF2B2B"/>
<path d="M14.9302 0.5H3.99951C2.06674 0.500263 0.499512 2.06717 0.499512 4V9.88184C0.499512 11.8147 2.06674 13.3816 3.99951 13.3818H7.95264C9.04907 13.3818 10.108 13.7824 10.9302 14.5078L13.228 16.5352C13.5488 16.8182 14.049 16.5519 13.9927 16.1279C13.7989 14.6743 14.9295 13.3821 16.396 13.3818H16.7212C17.6651 13.3817 18.4302 12.6167 18.4302 11.6729V4L18.4253 3.82031C18.3318 1.97083 16.8029 0.5 14.9302 0.5Z" stroke="#CF2B2B"/>
<path d="M26.4746 20.9492L30.5763 24.678L39.8983 17.2203" stroke="#83EF41"/>
<path d="M26 12.5H40.373C42.306 12.5001 43.873 14.0671 43.873 16V24.4072C43.8728 26.34 42.3058 27.9071 40.373 27.9072H34.6992C33.6029 27.9072 32.5438 28.3069 31.7217 29.0322L28.7988 31.6113C28.3566 32.001 27.6673 31.6333 27.7451 31.0488C27.9669 29.3852 26.6725 27.9072 24.9941 27.9072H24.6113C23.4455 27.9072 22.5001 26.9617 22.5 25.7959V16C22.5 14.067 24.067 12.5 26 12.5Z" stroke="#83EF41"/>
</svg>
