<svg width="50" height="50" viewBox="0 0 50 50" fill="none" xmlns="http://www.w3.org/2000/svg">
<circle cx="25" cy="25" r="25" fill="#6FBE3E"/>
<path d="M13.8271 25.8104L24.9925 35.0677L17.0754 32.1443L13.8271 25.8104Z" fill="white"/>
<path d="M14.5176 25.1201L19.5926 26.8254L22.4755 31.86L14.5176 25.1201Z" fill="white" fill-opacity="0.8"/>
<path d="M12 19.0303C12.114 19.5778 12.3982 20.0752 12.8121 20.4513C13.4617 20.9791 14.9944 20.9385 14.9944 20.9385L13.3399 19.5987L12 19.0303Z" fill="white"/>
<path d="M14.3145 18.7863L15.6948 20.857L16.4665 21.0601L16.5781 20.055L14.3145 18.7863Z" fill="white"/>
<path d="M17.197 20.5312L17.1157 22.3992L19.9578 26.1752L19.836 24.3481L17.197 20.5312Z" fill="white"/>
<path d="M21.9883 21.3438L25.4798 33.3621V15.3752L21.9883 21.3438Z" fill="white"/>
<path d="M23.9776 15.4157L22.242 15.0908L21.5415 17.3643L21.6633 17.9733L23.9776 15.4157Z" fill="white"/>
<path d="M21.8457 14.9998L20.9321 15.5177L21.2673 16.8269L21.8457 14.9998Z" fill="white"/>
<path d="M16.4256 17.2842L15.8574 18.2991V19.1923L16.7911 18.3804L16.4256 17.2842Z" fill="white" fill-opacity="0.8"/>
<path d="M20.2573 24.2659L20.405 26.2566L22.1102 23.6176L21.683 21.8875L20.2573 24.2659Z" fill="white"/>
<path d="M37.1732 25.8104L26.0078 35.0677L33.9252 32.1443L37.1732 25.8104Z" fill="white" fill-opacity="0.8"/>
<path d="M36.4826 25.1201L31.4073 26.8254L28.5244 31.86L36.4826 25.1201Z" fill="white"/>
<path d="M38.9998 19.0303C38.8858 19.5778 38.6016 20.0752 38.1877 20.4513C37.5381 20.9791 36.0054 20.9385 36.0054 20.9385L37.6599 19.5987L38.9998 19.0303Z" fill="white" fill-opacity="0.8"/>
<path d="M36.686 18.7863L35.3056 20.857L34.5343 21.0601L34.4224 20.055L36.686 18.7863Z" fill="white"/>
<path d="M33.803 20.5312L33.884 22.3992L31.042 26.1752L31.1638 24.3481L33.803 20.5312Z" fill="white"/>
<path d="M29.0116 21.3438L25.52 33.3621V15.3752L29.0116 21.3438Z" fill="white" fill-opacity="0.8"/>
<path d="M27.0229 15.4157L28.7585 15.0908L29.4591 17.3643L29.3373 17.9733L27.0229 15.4157Z" fill="white" fill-opacity="0.8"/>
<path d="M29.1543 14.9998L30.0678 15.5177L29.7327 16.8269L29.1543 14.9998Z" fill="white" fill-opacity="0.8"/>
<path d="M34.5744 17.2842L35.1429 18.2991V19.1923L34.209 18.3804L34.5744 17.2842Z" fill="white"/>
<path d="M30.7431 24.2659L30.5954 26.2566L28.8901 23.6176L29.3174 21.8875L30.7431 24.2659Z" fill="white" fill-opacity="0.8"/>
<path d="M39.0548 26.3073C39.1296 26.2943 39.2068 26.3018 39.2775 26.3292L45.8219 29.4472L44.0514 30.1507L43.3785 30.4183L43.8664 30.9528L46.3436 33.6706L45.0416 34.8379L42.5197 32.0716L42.0862 31.5951L41.7329 32.1345L40.6382 33.8029L38.7248 26.8282L38.713 26.7707C38.7057 26.7136 38.7105 26.6554 38.7269 26.5998C38.7435 26.5439 38.7713 26.4918 38.8088 26.4477L38.849 26.4063C38.8925 26.3676 38.9437 26.3384 38.9987 26.3207L39.0548 26.3073Z" fill="white" stroke="#6FBE3E"/>
</svg>
