<svg width="95" height="30" viewBox="0 0 95 30" fill="none" xmlns="http://www.w3.org/2000/svg">
<path fill-rule="evenodd" clip-rule="evenodd" d="M29.7828 2.19546C26.9145 3.35841 24.0696 4.67263 23.4609 5.11575C10.8054 14.3491 -1.8258 27.736 0.218884 29.7478C0.957643 30.4756 2.09288 29.6748 4.4961 26.7341C15.759 12.9486 31.198 2.70976 40.7224 2.70976C47.0949 2.70976 47.8833 6.39438 43.579 16.0566C39.7931 24.5559 40.0071 26.6682 44.8379 28.4781C47.6033 29.5138 48.045 29.4657 65.4862 26.2127C71.8225 25.0319 78.2943 24.0647 79.8676 24.0647H82.7287L80.6109 26.2856C77.9846 29.0404 78.4759 29.6259 82.4677 28.4985C84.1701 28.0172 86.9878 27.6185 88.7291 27.6114C90.4712 27.6052 92.7868 27.3641 93.8742 27.0766C95.722 26.589 95.5585 26.2527 91.3852 21.9728C88.9278 19.4529 86.6898 16.691 86.4108 15.8342C85.513 13.0731 84.2198 14.1774 84.2198 17.7045V21.132L77.1745 21.6667C73.2991 21.9612 66.3947 23.0219 61.8303 24.0229C51.8571 26.2118 44.6501 26.4218 43.9195 24.5452C43.6413 23.8307 44.4993 20.9282 45.8269 18.0942C47.1536 15.2611 48.4622 10.8914 48.7331 8.38394C49.1504 4.53116 48.9291 3.53192 47.3062 1.93297C44.5896 -0.743517 36.7486 -0.626063 29.7828 2.19546Z" fill="#6FBE3E"/>
</svg>
