<svg width="69" height="40" viewBox="0 0 69 40" fill="none" xmlns="http://www.w3.org/2000/svg">
<path fill-rule="evenodd" clip-rule="evenodd" d="M10.8663 2.72341C5.05391 6.45277 -1.01262 12.8227 0.142703 13.9834C0.793297 14.6371 2.235 13.7991 4.87765 11.2296C10.0072 6.24329 15.195 2.86816 17.7302 2.86816C20.5304 2.86816 22.3443 5.87647 23.4594 12.3723C23.9623 15.3042 24.8026 20.1304 25.3271 23.0974C27.0676 32.9575 31.4106 37.9321 38.2772 37.9321C41.0764 37.9321 42.2684 37.2821 45.303 34.1003L48.9578 30.2675L53.2534 32.3174L57.5498 34.3664L55.5533 37.1832L53.5568 40L56.1743 39.421C57.6142 39.1027 60.8055 38.6037 63.2664 38.3115C70.5644 37.4448 70.5617 37.4565 65.1466 31.581C62.3894 28.5889 60.1343 25.7362 60.1343 25.2408C60.1343 24.7454 59.6958 24.6123 59.1588 24.9459C58.5718 25.31 58.4098 26.7611 58.7525 28.5952C59.0648 30.2693 59.1517 31.6386 58.9459 31.6386C58.74 31.6386 56.671 30.7935 54.3478 29.7613C50.7199 28.1493 50.2098 27.6089 50.736 25.9402C54.2351 14.8483 54.6011 10.8627 52.5706 5.98076C50.9016 1.96729 47.5394 0.549441 42.9477 1.92413C35.4725 4.16103 31.9664 10.0581 34.1535 16.7157C35.1227 19.6683 43.1562 28.0423 45.0176 28.0423C46.5479 28.0423 45.7962 29.6462 42.9611 32.4307C39.6249 35.7087 36.346 36.0468 33.0643 33.4538C29.9975 31.0299 28.0064 25.6238 26.9701 16.9099C25.0344 0.62856 20.44 -3.41908 10.8663 2.72341ZM49.7919 6.66496C51.5271 9.1527 51.5566 13.7128 49.8742 19.2826C47.6647 26.5984 47.6208 26.6208 42.9289 22.8546C38.7917 19.5343 35.9719 15.2592 35.9719 12.3076C35.9719 11.4669 37.3411 9.40444 39.0146 7.72317C42.7786 3.94166 47.5662 3.47144 49.7919 6.66496Z" fill="#6FBE3E"/>
</svg>
