<svg width="64" height="53" viewBox="0 0 64 53" fill="none" xmlns="http://www.w3.org/2000/svg">
<path fill-rule="evenodd" clip-rule="evenodd" d="M23.1927 1.15436C16.8189 3.43381 9.78548 9.34522 3.1212 18.0233C-0.160879 22.2964 -0.58991 23.2754 0.615844 23.7384C1.52664 24.0886 2.54916 23.613 3.35181 22.4648C6.25938 18.3054 12.525 11.4527 15.842 8.80421C21.0064 4.68149 23.7576 3.4625 27.9013 3.4625C30.7865 3.4625 32.1594 4.03301 34.2027 6.08049C39.9436 11.8333 36.8644 16.7649 20.0044 28.8151C14.3752 32.8375 8.81658 37.382 7.65105 38.9136C3.20522 44.7542 6.33535 53.1833 12.8807 52.997C17.0504 52.8787 19.8847 51.2916 29.2974 43.8057C36.8358 37.8111 48.097 31.2279 50.8124 31.2279C51.8474 31.2279 51.8278 31.6713 50.6926 33.8702C49.9427 35.3238 49.3287 36.713 49.3287 36.9584C49.3287 37.2029 51.843 36.2741 54.915 34.893C57.9879 33.5118 61.481 31.9928 62.6787 31.5164C64.7952 30.6744 64.7166 30.5562 59.8569 27.3247C57.1075 25.4957 54.3689 23.4088 53.7718 22.6869C52.2076 20.7989 50.9107 21.0739 51.5033 23.167C51.7822 24.1522 52.238 25.7644 52.5169 26.7496C52.92 28.1719 52.5973 28.5409 50.9527 28.5418C47.1504 28.5427 37.3632 33.9498 27.3632 41.5755C16.6464 49.7466 12.8647 51.2898 9.97675 48.6709C5.72667 44.8169 8.69055 40.4147 21.8099 31.0927C36.8037 20.4406 39.4967 17.4097 39.4967 11.1884C39.4967 7.43204 36.0019 2.88303 31.7465 1.10156C28.2123 -0.378068 27.4651 -0.373634 23.1927 1.15436Z" fill="#6FBE3E"/>
</svg>
