<svg width="74" height="47" viewBox="0 0 74 47" fill="none" xmlns="http://www.w3.org/2000/svg">
<path fill-rule="evenodd" clip-rule="evenodd" d="M60.348 2.79798C57.0457 6.71717 55.9419 11.8307 56.4486 20.8634L56.8873 28.6875L51.1278 34.0693C47.9598 37.0283 44.9888 39.2159 44.526 38.9307C44.0632 38.6446 43.6819 35.1161 43.6792 31.0887C43.6765 27.0613 43.2549 22.258 42.7419 20.4137C41.9336 17.5065 41.4591 17.0614 39.1649 17.0614C36.9646 17.0614 35.8465 17.9741 32.5165 22.4922C26.202 31.0583 23.9561 33.4792 23.1281 32.6111C22.7083 32.1713 22.2275 28.3335 22.0592 24.0826C21.7307 15.7901 20.2036 12.5915 16.5728 12.5915C13.6636 12.5915 9.01138 18.4551 4.27867 28.0894C-0.629494 38.0805 -0.761113 38.5167 1.12588 38.5167C1.89035 38.5167 4.11487 35.0133 6.49778 30.0544C10.2539 22.2393 15.1253 15.2734 16.8351 15.2734C18.1859 15.2734 19.5152 20.9108 19.5152 26.6403C19.5152 33.4193 20.5688 35.8348 23.5246 35.8348C25.6999 35.8348 26.8394 34.6762 34.7356 24.4366C36.7264 21.8548 38.6958 19.7433 39.1121 19.7433C40.163 19.7433 40.9776 25.2975 40.9892 32.5414C41.0071 43.6383 43.3855 44.6002 52.2449 37.0953C55.489 34.3464 58.2139 32.2348 58.2989 32.4019C58.3849 32.5691 59.3024 34.3696 60.3381 36.4025L62.2206 40.0982L58.9954 41.6662L55.7692 43.2343L63.8257 45.2368C68.2567 46.3382 72.0128 47.1248 72.1721 46.9836C72.3314 46.8432 71.8669 45.5801 71.14 44.1757C70.4123 42.7712 69.1098 39.2141 68.2451 36.2702L66.6732 30.918L65.3832 34.0371L64.0933 37.157L62.4301 34.0371C61.5161 32.3216 60.7508 30.4987 60.7302 29.9855C60.7096 29.4724 62.7201 26.6582 65.1979 23.7313C73.8792 13.4774 76.2863 5.48348 71.7613 1.92904C68.1045 -0.944195 63.1856 -0.569618 60.348 2.79798ZM70.0283 4.16217C71.7541 5.88665 71.7926 7.33756 70.2108 11.0556C68.3829 15.3511 60.7705 25.2609 59.7724 24.644C58.6113 23.928 58.6704 13.9074 59.861 9.62796C61.5636 3.50244 66.6365 0.775795 70.0283 4.16217Z" fill="#6FBE3E"/>
</svg>
