<?xml version="1.0" encoding="utf-8"?>
<!-- Generator: Adobe Illustrator 23.1.0, SVG Export Plug-In . SVG Version: 6.00 Build 0)  -->
<svg version="1.1" id="Слой_1" xmlns="http://www.w3.org/2000/svg" xmlns:xlink="http://www.w3.org/1999/xlink" x="0px" y="0px"
	 viewBox="0 0 287.8 63" style="enable-background:new 0 0 287.8 63;" xml:space="preserve">
<style type="text/css">
	.st0{fill:#FFFFFF;}
	.st1{fill:#3F7F1C;}
	.st2{fill:#81BD52;}
</style>
<path class="st0" d="M108.9,22.2c-1.4,0-2.6-0.2-3.7-0.7s-1.9-1.2-2.6-2c-0.6-0.9-0.9-1.9-1-3h2.9c0.1,1,0.5,1.8,1.2,2.5
	s1.8,1,3.1,1c1.3,0,2.3-0.3,3.1-1c0.8-0.7,1.1-1.5,1.1-2.5c0-0.8-0.2-1.5-0.7-2c-0.4-0.5-1-0.9-1.7-1.1c-0.7-0.3-1.6-0.5-2.7-0.8
	c-1.4-0.4-2.5-0.7-3.3-1.1c-0.8-0.4-1.5-0.9-2.1-1.7s-0.9-1.8-0.9-3.1c0-1.1,0.3-2.2,0.9-3c0.6-0.9,1.4-1.6,2.4-2
	c1.1-0.5,2.3-0.7,3.6-0.7c2,0,3.6,0.5,4.8,1.5c1.3,1,2,2.3,2.1,3.9h-3c-0.1-0.8-0.5-1.5-1.3-2.1c-0.7-0.6-1.7-0.9-2.9-0.9
	c-1.1,0-2.1,0.3-2.8,0.9c-0.7,0.6-1.1,1.4-1.1,2.5c0,0.8,0.2,1.4,0.6,1.9s1,0.9,1.6,1.1c0.6,0.2,1.5,0.5,2.7,0.8
	c1.4,0.4,2.5,0.8,3.3,1.1c0.8,0.4,1.6,0.9,2.2,1.7s0.9,1.8,0.9,3.1c0,1-0.3,2-0.8,2.9s-1.3,1.6-2.4,2.2
	C111.6,21.9,110.4,22.2,108.9,22.2z M118.9,13.8c0-1.7,0.3-3.2,1-4.4c0.7-1.3,1.6-2.3,2.8-3c1.2-0.7,2.6-1,4.2-1c2,0,3.7,0.5,5,1.5
	c1.3,1,2.2,2.3,2.6,4.1h-2.9c-0.3-1-0.8-1.8-1.7-2.4c-0.8-0.6-1.8-0.9-3-0.9c-1.6,0-2.8,0.5-3.8,1.6s-1.4,2.6-1.4,4.5
	c0,2,0.5,3.5,1.4,4.6s2.2,1.6,3.8,1.6c1.2,0,2.2-0.3,3-0.8c0.8-0.6,1.4-1.4,1.7-2.4h2.9c-0.4,1.7-1.3,3-2.6,4.1
	c-1.3,1-3,1.5-4.9,1.5c-1.6,0-2.9-0.4-4.2-1c-1.2-0.7-2.1-1.7-2.8-3S118.9,15.5,118.9,13.8z M140.9,8.2c0.5-0.9,1.2-1.7,2-2.2
	c0.9-0.5,2-0.8,3.3-0.8V8h-0.7c-3.1,0-4.6,1.7-4.6,5v9h-2.7V5.6h2.7V8.2z M156.5,22.3c-1.5,0-2.9-0.4-4.2-1c-1.2-0.7-2.2-1.7-2.9-3
	s-1-2.8-1-4.5s0.4-3.2,1.1-4.4c0.7-1.3,1.7-2.3,3-3s2.7-1,4.2-1s3,0.3,4.2,1c1.3,0.7,2.3,1.7,3,2.9c0.7,1.3,1.1,2.8,1.1,4.5
	s-0.4,3.2-1.1,4.5c-0.7,1.3-1.8,2.3-3,3C159.5,21.9,158.1,22.3,156.5,22.3z M156.5,19.9c1,0,1.9-0.2,2.8-0.7
	c0.9-0.5,1.6-1.1,2.1-2.1c0.5-0.9,0.8-2,0.8-3.4s-0.3-2.4-0.8-3.4c-0.5-0.9-1.2-1.6-2-2c-0.8-0.5-1.8-0.7-2.7-0.7
	c-1,0-1.9,0.2-2.8,0.7c-0.8,0.4-1.5,1.1-2,2s-0.8,2-0.8,3.4c0,1.3,0.2,2.5,0.7,3.4s1.2,1.6,2,2.1C154.6,19.6,155.5,19.9,156.5,19.9z
	 M175.7,22.3c-1.5,0-2.9-0.4-4.2-1c-1.2-0.7-2.2-1.7-2.9-3s-1-2.8-1-4.5s0.4-3.2,1.1-4.4c0.7-1.3,1.7-2.3,3-3s2.7-1,4.2-1
	s3,0.3,4.2,1c1.3,0.7,2.3,1.7,3,2.9c0.7,1.3,1.1,2.8,1.1,4.5s-0.4,3.2-1.1,4.5c-0.7,1.3-1.8,2.3-3,3
	C178.7,21.9,177.3,22.3,175.7,22.3z M175.7,19.9c1,0,1.9-0.2,2.8-0.7c0.9-0.5,1.6-1.1,2.1-2.1c0.5-0.9,0.8-2,0.8-3.4
	s-0.3-2.4-0.8-3.4c-0.5-0.9-1.2-1.6-2-2c-0.8-0.5-1.8-0.7-2.7-0.7c-1,0-1.9,0.2-2.8,0.7c-0.8,0.4-1.5,1.1-2,2s-0.8,2-0.8,3.4
	c0,1.3,0.2,2.5,0.7,3.4s1.2,1.6,2,2.1C173.8,19.6,174.7,19.9,175.7,19.9z M194.5,5.3c1.4,0,2.7,0.3,3.7,0.9c1.1,0.6,1.9,1.4,2.4,2.3
	v-3h2.8v16.8c0,1.5-0.3,2.8-1,4c-0.6,1.2-1.6,2.1-2.8,2.8c-1.2,0.7-2.6,1-4.1,1c-2.2,0-4-0.5-5.4-1.5s-2.3-2.4-2.6-4.2h2.7
	c0.3,1,0.9,1.8,1.9,2.4c0.9,0.6,2.1,0.9,3.4,0.9c1.5,0,2.7-0.5,3.7-1.4s1.4-2.3,1.4-4v-3.5c-0.5,1-1.3,1.8-2.4,2.4
	c-1.1,0.6-2.3,1-3.7,1c-1.5,0-2.8-0.4-4-1.1s-2.1-1.7-2.8-3s-1-2.8-1-4.4c0-1.7,0.3-3.1,1-4.4s1.6-2.3,2.8-3
	C191.7,5.6,193,5.3,194.5,5.3z M200.6,13.8c0-1.2-0.3-2.3-0.8-3.2s-1.2-1.6-2-2.1S196,7.7,195,7.7s-1.9,0.2-2.8,0.7
	c-0.8,0.5-1.5,1.2-2,2.1s-0.8,2-0.8,3.2c0,1.3,0.3,2.4,0.8,3.3s1.2,1.6,2,2.1s1.8,0.7,2.8,0.7s1.9-0.2,2.8-0.7
	c0.9-0.5,1.5-1.2,2-2.1C200.4,16.1,200.6,15,200.6,13.8z M223,13.1c0,0.5,0,1.1-0.1,1.6h-13.1c0.1,1.6,0.7,2.9,1.7,3.8
	s2.3,1.3,3.7,1.3c1.2,0,2.2-0.3,2.9-0.8c0.8-0.6,1.4-1.3,1.7-2.2h2.9c-0.4,1.6-1.3,2.9-2.6,3.9s-3,1.5-4.9,1.5c-1.6,0-3-0.4-4.2-1
	c-1.2-0.7-2.2-1.7-2.9-3s-1.1-2.8-1.1-4.5s0.3-3.2,1-4.5s1.6-2.3,2.9-2.9c1.2-0.7,2.7-1,4.3-1s2.9,0.3,4.1,1
	c1.2,0.7,2.1,1.6,2.8,2.8C222.7,10.3,223,11.6,223,13.1z M220.2,12.6c0-1-0.2-1.9-0.7-2.7s-1.1-1.3-1.9-1.7
	c-0.8-0.4-1.6-0.6-2.6-0.6c-1.4,0-2.6,0.4-3.5,1.3c-1,0.9-1.5,2.1-1.7,3.7H220.2z M238.4,1.1v2.2h-9.1v7.1h7.4v2.2h-7.4V22h-2.7V1.1
	H238.4z M244.4,8.2c0.5-0.9,1.2-1.7,2-2.2c0.9-0.5,2-0.8,3.3-0.8V8H249c-3.1,0-4.6,1.7-4.6,5v9h-2.7V5.6h2.7V8.2z M260.1,22.3
	c-1.5,0-2.9-0.4-4.2-1c-1.2-0.7-2.2-1.7-2.9-3s-1-2.8-1-4.5s0.4-3.2,1.1-4.4c0.7-1.3,1.7-2.3,3-3c1.3-0.7,2.7-1,4.2-1s3,0.3,4.2,1
	c1.3,0.7,2.3,1.7,3,2.9c0.7,1.3,1.1,2.8,1.1,4.5s-0.4,3.2-1.1,4.5s-1.8,2.3-3,3C263,21.9,261.6,22.3,260.1,22.3z M260.1,19.9
	c1,0,1.9-0.2,2.8-0.7s1.6-1.1,2.1-2.1c0.5-0.9,0.8-2,0.8-3.4s-0.3-2.4-0.8-3.4c-0.5-0.9-1.2-1.6-2-2c-0.8-0.5-1.8-0.7-2.7-0.7
	c-1,0-1.9,0.2-2.8,0.7c-0.8,0.4-1.5,1.1-2,2s-0.8,2-0.8,3.4c0,1.3,0.2,2.5,0.7,3.4s1.2,1.6,2,2.1C258.2,19.6,259.1,19.9,260.1,19.9z
	 M278.9,5.3c1.4,0,2.7,0.3,3.7,0.9c1.1,0.6,1.9,1.4,2.4,2.3v-3h2.8v16.8c0,1.5-0.3,2.8-1,4c-0.6,1.2-1.6,2.1-2.8,2.8
	c-1.2,0.7-2.6,1-4.1,1c-2.2,0-4-0.5-5.4-1.5s-2.3-2.4-2.5-4.2h2.7c0.3,1,0.9,1.8,1.9,2.4c0.9,0.6,2.1,0.9,3.4,0.9
	c1.5,0,2.7-0.5,3.7-1.4s1.4-2.3,1.4-4v-3.5c-0.5,1-1.3,1.8-2.4,2.4s-2.3,1-3.7,1c-1.5,0-2.8-0.4-4-1.1s-2.1-1.7-2.8-3
	c-0.7-1.3-1-2.8-1-4.4c0-1.7,0.3-3.1,1-4.4s1.6-2.3,2.8-3C276.1,5.6,277.4,5.3,278.9,5.3z M285,13.8c0-1.2-0.3-2.3-0.8-3.2
	s-1.2-1.6-2-2.1s-1.8-0.8-2.8-0.8s-2,0.2-2.8,0.7s-1.5,1.2-2,2.1s-0.8,2-0.8,3.2c0,1.3,0.3,2.4,0.8,3.3s1.2,1.6,2,2.1
	s1.8,0.7,2.8,0.7s2-0.2,2.8-0.7c0.9-0.5,1.5-1.2,2-2.1S285,15,285,13.8z"/>
<path class="st1" d="M5.7,33.9L40.8,63l-24.9-9.2L5.7,33.9z"/>
<path class="st2" d="M7.9,31.8l15.9,5.4L32.9,53L7.9,31.8z"/>
<path class="st1" d="M0,12.7c0.4,1.7,1.3,3.3,2.5,4.5c2,1.7,6.9,1.5,6.9,1.5l-5.2-4.2L0,12.7z"/>
<path class="st1" d="M7.3,11.9l4.3,6.5L14,19l0.4-3.2L7.3,11.9z"/>
<path class="st1" d="M16.3,17.4L16,23.3l9,11.8l-0.4-5.7L16.3,17.4z"/>
<path class="st1" d="M31.4,19.9l11,37.7V1.2L31.4,19.9z"/>
<path class="st1" d="M37.6,1.3l-5.4-1L30,7.4l0.4,1.9L37.6,1.3z"/>
<path class="st1" d="M30.9,0L28,1.6l1.1,4.1L30.9,0z"/>
<path class="st2" d="M13.9,7.2l-1.8,3.2v2.8l2.9-2.5L13.9,7.2z"/>
<path class="st1" d="M25.9,29.1l0.5,6.2l5.4-8.3l-1.3-5.4L25.9,29.1z"/>
<path class="st2" d="M79,33.9L44,63l24.9-9.2L79,33.9z"/>
<path class="st1" d="M76.9,31.8L61,37.2L51.9,53L76.9,31.8z"/>
<path class="st2" d="M84.8,12.7c-0.4,1.7-1.3,3.3-2.5,4.5c-2,1.7-6.9,1.5-6.9,1.5l5.2-4.2L84.8,12.7z"/>
<path class="st1" d="M77.5,11.9l-4.3,6.5L70.7,19l-0.4-3.2L77.5,11.9z"/>
<path class="st1" d="M68.4,17.4l0.3,5.9l-8.9,11.9l0.4-5.7L68.4,17.4z"/>
<path class="st2" d="M53.4,19.9l-11,37.7V1.2L53.4,19.9z"/>
<path class="st2" d="M47.2,1.3l5.4-1l2.2,7.1l-0.4,1.9L47.2,1.3z"/>
<path class="st2" d="M53.9,0l2.9,1.6l-1.1,4.1L53.9,0z"/>
<path class="st1" d="M70.9,7.2l1.8,3.2v2.8l-2.9-2.5L70.9,7.2z"/>
<path class="st2" d="M58.8,29.1l-0.5,6.2L53,27.1l1.3-5.4L58.8,29.1z"/>
<g>
	<g>
		<path class="st0" d="M121.3,50.7h-8.7l-1.5,4.3h-3.6l7.5-20.9h4l7.5,20.9h-3.6L121.3,50.7z M120.3,47.9l-3.4-9.7l-3.4,9.7H120.3z"
			/>
		<path class="st0" d="M132.9,34.2V55h-3.4V34.2H132.9z"/>
		<path class="st0" d="M157.8,50.7h-8.7l-1.5,4.3H144l7.5-20.9h4L163,55h-3.6L157.8,50.7z M156.9,47.9l-3.4-9.7l-3.4,9.7H156.9z"/>
		<path class="st0" d="M178.1,39c1,0.5,1.8,1.3,2.4,2.4c0.6,1.1,0.9,2.3,0.9,3.8V55h-3.4v-9.2c0-1.5-0.4-2.6-1.1-3.4
			c-0.7-0.8-1.8-1.2-3-1.2s-2.3,0.4-3,1.2s-1.1,1.9-1.1,3.4V55h-3.4V38.5h3.4v1.9c0.6-0.7,1.3-1.2,2.1-1.6c0.9-0.4,1.8-0.6,2.8-0.6
			C175.8,38.2,177.1,38.5,178.1,39z"/>
		<path class="st0" d="M189.6,41.3v9.2c0,0.6,0.1,1.1,0.4,1.3c0.3,0.3,0.8,0.4,1.5,0.4h2.1V55h-2.7c-1.5,0-2.7-0.4-3.5-1.1
			s-1.2-1.9-1.2-3.5v-9.2h-2v-2.8h2v-4.1h3.5v4.1h4v2.8L189.6,41.3L189.6,41.3z"/>
		<path class="st0" d="M197.1,35.6c-0.4-0.4-0.6-0.9-0.6-1.6c0-0.6,0.2-1.1,0.6-1.6s0.9-0.6,1.6-0.6c0.6,0,1.1,0.2,1.5,0.6
			s0.6,0.9,0.6,1.6c0,0.6-0.2,1.1-0.6,1.6c-0.4,0.4-0.9,0.6-1.5,0.6C197.9,36.3,197.4,36.1,197.1,35.6z M200.3,38.5V55h-3.4V38.5
			H200.3z"/>
		<path class="st0" d="M211.6,41.3h-3.1V55H205V41.3h-2v-2.8h2v-1.2c0-1.9,0.5-3.3,1.5-4.2s2.6-1.3,4.8-1.3v2.9
			c-1,0-1.8,0.2-2.2,0.6c-0.4,0.4-0.6,1.1-0.6,2v1.2h3.1V41.3z"/>
		<path class="st0" d="M220.1,38.9c0.8-0.5,1.8-0.7,3-0.7v3.5h-0.9c-1.3,0-2.4,0.3-3,1c-0.7,0.7-1,1.9-1,3.5V55h-3.4V38.5h3.4v2.4
			C218.6,40,219.3,39.4,220.1,38.9z"/>
		<path class="st0" d="M226.1,42.2c0.7-1.3,1.6-2.3,2.8-3s2.5-1.1,3.9-1.1c1.3,0,2.4,0.3,3.4,0.8s1.7,1.1,2.3,1.9v-2.4h3.5V55h-3.5
			v-2.5c-0.6,0.8-1.4,1.4-2.4,2c-1,0.5-2.1,0.8-3.4,0.8c-1.4,0-2.7-0.4-3.9-1.1c-1.2-0.7-2.1-1.8-2.8-3.1s-1-2.8-1-4.5
			S225.4,43.5,226.1,42.2z M237.9,43.7c-0.5-0.8-1.1-1.5-1.8-1.9c-0.8-0.4-1.6-0.7-2.5-0.7s-1.7,0.2-2.5,0.6
			c-0.8,0.4-1.4,1.1-1.8,1.9c-0.5,0.8-0.7,1.8-0.7,3c0,1.1,0.2,2.1,0.7,3s1.1,1.5,1.9,2c0.8,0.5,1.6,0.7,2.4,0.7
			c0.9,0,1.7-0.2,2.5-0.7c0.8-0.4,1.4-1.1,1.8-1.9c0.5-0.8,0.7-1.8,0.7-3C238.6,45.6,238.3,44.6,237.9,43.7z"/>
		<path class="st0" d="M261.5,38.5V55h-3.4v-2c-0.5,0.7-1.2,1.2-2.1,1.6c-0.9,0.4-1.8,0.6-2.8,0.6c-1.3,0-2.5-0.3-3.5-0.8
			s-1.8-1.3-2.4-2.4c-0.6-1.1-0.9-2.3-0.9-3.8v-9.7h3.4v9.2c0,1.5,0.4,2.6,1.1,3.4s1.8,1.2,3,1.2s2.3-0.4,3-1.2s1.1-1.9,1.1-3.4
			v-9.2C258.1,38.5,261.5,38.5,261.5,38.5z"/>
		<path class="st0" d="M266,42.2c0.7-1.3,1.6-2.3,2.8-3s2.5-1.1,4-1.1c1.1,0,2.1,0.2,3.2,0.7c1.1,0.5,1.9,1.1,2.5,1.9v-8h3.5V55
			h-3.5v-2.5c-0.6,0.8-1.3,1.5-2.3,2s-2.1,0.8-3.4,0.8c-1.4,0-2.8-0.4-3.9-1.1c-1.2-0.7-2.1-1.8-2.8-3.1c-0.7-1.3-1-2.8-1-4.5
			S265.3,43.5,266,42.2z M277.8,43.7c-0.5-0.8-1.1-1.5-1.8-1.9c-0.8-0.4-1.6-0.7-2.5-0.7c-0.9,0-1.7,0.2-2.5,0.6
			c-0.8,0.4-1.4,1.1-1.8,1.9c-0.5,0.8-0.7,1.8-0.7,3c0,1.1,0.2,2.1,0.7,3s1.1,1.5,1.9,2s1.6,0.7,2.4,0.7c0.9,0,1.7-0.2,2.5-0.7
			c0.8-0.4,1.4-1.1,1.8-1.9c0.5-0.8,0.7-1.8,0.7-3C278.5,45.6,278.3,44.6,277.8,43.7z"/>
	</g>
</g>
</svg>
