<svg width="361" height="36" viewBox="0 0 361 36" fill="none" xmlns="http://www.w3.org/2000/svg">
<path d="M7.584 26.168C6.352 26.168 5.248 25.968 4.272 25.568C3.296 25.168 2.512 24.576 1.92 23.792C1.344 23.008 1.04 22.064 1.008 20.96H5.376C5.44 21.584 5.656 22.064 6.024 22.4C6.392 22.72 6.872 22.88 7.464 22.88C8.072 22.88 8.552 22.744 8.904 22.472C9.256 22.184 9.432 21.792 9.432 21.296C9.432 20.88 9.288 20.536 9 20.264C8.728 19.992 8.384 19.768 7.968 19.592C7.568 19.416 6.992 19.216 6.24 18.992C5.152 18.656 4.264 18.32 3.576 17.984C2.888 17.648 2.296 17.152 1.8 16.496C1.304 15.84 1.056 14.984 1.056 13.928C1.056 12.36 1.624 11.136 2.76 10.256C3.896 9.36 5.376 8.912 7.2 8.912C9.056 8.912 10.552 9.36 11.688 10.256C12.824 11.136 13.432 12.368 13.512 13.952H9.072C9.04 13.408 8.84 12.984 8.472 12.68C8.104 12.36 7.632 12.2 7.056 12.2C6.56 12.2 6.16 12.336 5.856 12.608C5.552 12.864 5.4 13.24 5.4 13.736C5.4 14.28 5.656 14.704 6.168 15.008C6.68 15.312 7.48 15.64 8.568 15.992C9.656 16.36 10.536 16.712 11.208 17.048C11.896 17.384 12.488 17.872 12.984 18.512C13.48 19.152 13.728 19.976 13.728 20.984C13.728 21.944 13.48 22.816 12.984 23.6C12.504 24.384 11.8 25.008 10.872 25.472C9.944 25.936 8.848 26.168 7.584 26.168ZM15.4376 19.304C15.4376 17.912 15.7176 16.696 16.2776 15.656C16.8536 14.616 17.6456 13.816 18.6536 13.256C19.6776 12.696 20.8456 12.416 22.1576 12.416C23.8376 12.416 25.2376 12.856 26.3576 13.736C27.4936 14.616 28.2376 15.856 28.5896 17.456H24.2216C23.8536 16.432 23.1416 15.92 22.0856 15.92C21.3336 15.92 20.7336 16.216 20.2856 16.808C19.8376 17.384 19.6136 18.216 19.6136 19.304C19.6136 20.392 19.8376 21.232 20.2856 21.824C20.7336 22.4 21.3336 22.688 22.0856 22.688C23.1416 22.688 23.8536 22.176 24.2216 21.152H28.5896C28.2376 22.72 27.4936 23.952 26.3576 24.848C25.2216 25.744 23.8216 26.192 22.1576 26.192C20.8456 26.192 19.6776 25.912 18.6536 25.352C17.6456 24.792 16.8536 23.992 16.2776 22.952C15.7176 21.912 15.4376 20.696 15.4376 19.304ZM34.8889 14.84C35.3689 14.104 35.9689 13.528 36.6889 13.112C37.4089 12.68 38.2089 12.464 39.0889 12.464V16.808H37.9609C36.9369 16.808 36.1689 17.032 35.6569 17.48C35.1449 17.912 34.8889 18.68 34.8889 19.784V26H30.7849V12.608H34.8889V14.84ZM47.1465 26.192C45.8345 26.192 44.6505 25.912 43.5945 25.352C42.5545 24.792 41.7305 23.992 41.1225 22.952C40.5305 21.912 40.2345 20.696 40.2345 19.304C40.2345 17.928 40.5385 16.72 41.1465 15.68C41.7545 14.624 42.5865 13.816 43.6425 13.256C44.6985 12.696 45.8825 12.416 47.1945 12.416C48.5065 12.416 49.6905 12.696 50.7465 13.256C51.8025 13.816 52.6345 14.624 53.2425 15.68C53.8505 16.72 54.1545 17.928 54.1545 19.304C54.1545 20.68 53.8425 21.896 53.2185 22.952C52.6105 23.992 51.7705 24.792 50.6985 25.352C49.6425 25.912 48.4585 26.192 47.1465 26.192ZM47.1465 22.64C47.9305 22.64 48.5945 22.352 49.1385 21.776C49.6985 21.2 49.9785 20.376 49.9785 19.304C49.9785 18.232 49.7065 17.408 49.1625 16.832C48.6345 16.256 47.9785 15.968 47.1945 15.968C46.3945 15.968 45.7305 16.256 45.2025 16.832C44.6745 17.392 44.4105 18.216 44.4105 19.304C44.4105 20.376 44.6665 21.2 45.1785 21.776C45.7065 22.352 46.3625 22.64 47.1465 22.64ZM62.4278 26.192C61.1158 26.192 59.9318 25.912 58.8758 25.352C57.8358 24.792 57.0118 23.992 56.4038 22.952C55.8118 21.912 55.5158 20.696 55.5158 19.304C55.5158 17.928 55.8198 16.72 56.4277 15.68C57.0358 14.624 57.8678 13.816 58.9238 13.256C59.9798 12.696 61.1638 12.416 62.4758 12.416C63.7878 12.416 64.9718 12.696 66.0278 13.256C67.0838 13.816 67.9158 14.624 68.5238 15.68C69.1318 16.72 69.4358 17.928 69.4358 19.304C69.4358 20.68 69.1238 21.896 68.4998 22.952C67.8918 23.992 67.0518 24.792 65.9798 25.352C64.9238 25.912 63.7398 26.192 62.4278 26.192ZM62.4278 22.64C63.2118 22.64 63.8758 22.352 64.4198 21.776C64.9798 21.2 65.2598 20.376 65.2598 19.304C65.2598 18.232 64.9878 17.408 64.4438 16.832C63.9158 16.256 63.2598 15.968 62.4758 15.968C61.6758 15.968 61.0118 16.256 60.4838 16.832C59.9558 17.392 59.6918 18.216 59.6918 19.304C59.6918 20.376 59.9478 21.2 60.4598 21.776C60.9878 22.352 61.6438 22.64 62.4278 22.64ZM76.701 12.416C77.645 12.416 78.469 12.608 79.173 12.992C79.893 13.376 80.445 13.88 80.829 14.504V12.608H84.933V25.976C84.933 27.208 84.685 28.32 84.189 29.312C83.709 30.32 82.965 31.12 81.957 31.712C80.965 32.304 79.725 32.6 78.237 32.6C76.253 32.6 74.645 32.128 73.413 31.184C72.181 30.256 71.477 28.992 71.301 27.392H75.357C75.485 27.904 75.789 28.304 76.269 28.592C76.749 28.896 77.341 29.048 78.045 29.048C78.893 29.048 79.565 28.8 80.061 28.304C80.573 27.824 80.829 27.048 80.829 25.976V24.08C80.429 24.704 79.877 25.216 79.173 25.616C78.469 26 77.645 26.192 76.701 26.192C75.597 26.192 74.597 25.912 73.701 25.352C72.805 24.776 72.093 23.968 71.565 22.928C71.053 21.872 70.797 20.656 70.797 19.28C70.797 17.904 71.053 16.696 71.565 15.656C72.093 14.616 72.805 13.816 73.701 13.256C74.597 12.696 75.597 12.416 76.701 12.416ZM80.829 19.304C80.829 18.28 80.541 17.472 79.965 16.88C79.405 16.288 78.717 15.992 77.901 15.992C77.085 15.992 76.389 16.288 75.813 16.88C75.253 17.456 74.973 18.256 74.973 19.28C74.973 20.304 75.253 21.12 75.813 21.728C76.389 22.32 77.085 22.616 77.901 22.616C78.717 22.616 79.405 22.32 79.965 21.728C80.541 21.136 80.829 20.328 80.829 19.304ZM100.526 19.088C100.526 19.472 100.502 19.872 100.454 20.288H91.1661C91.2301 21.12 91.4941 21.76 91.9581 22.208C92.4381 22.64 93.0221 22.856 93.7101 22.856C94.7341 22.856 95.4461 22.424 95.8461 21.56H100.214C99.9901 22.44 99.5821 23.232 98.9901 23.936C98.4141 24.64 97.6861 25.192 96.8061 25.592C95.9261 25.992 94.9421 26.192 93.8541 26.192C92.5421 26.192 91.3741 25.912 90.3501 25.352C89.3261 24.792 88.5261 23.992 87.9501 22.952C87.3741 21.912 87.0861 20.696 87.0861 19.304C87.0861 17.912 87.3661 16.696 87.9261 15.656C88.5021 14.616 89.3021 13.816 90.3261 13.256C91.3501 12.696 92.5261 12.416 93.8541 12.416C95.1501 12.416 96.3021 12.688 97.3101 13.232C98.3181 13.776 99.1021 14.552 99.6621 15.56C100.238 16.568 100.526 17.744 100.526 19.088ZM96.3261 18.008C96.3261 17.304 96.0861 16.744 95.6061 16.328C95.1261 15.912 94.5261 15.704 93.8061 15.704C93.1181 15.704 92.5341 15.904 92.0541 16.304C91.5901 16.704 91.3021 17.272 91.1901 18.008H96.3261ZM113.659 9.152V12.44H106.795V15.992H111.931V19.184H106.795V26H102.691V9.152H113.659ZM119.92 14.84C120.4 14.104 121 13.528 121.72 13.112C122.44 12.68 123.24 12.464 124.12 12.464V16.808H122.992C121.968 16.808 121.2 17.032 120.688 17.48C120.176 17.912 119.92 18.68 119.92 19.784V26H115.816V12.608H119.92V14.84ZM132.178 26.192C130.866 26.192 129.682 25.912 128.626 25.352C127.586 24.792 126.762 23.992 126.154 22.952C125.562 21.912 125.266 20.696 125.266 19.304C125.266 17.928 125.57 16.72 126.178 15.68C126.786 14.624 127.618 13.816 128.674 13.256C129.73 12.696 130.914 12.416 132.226 12.416C133.538 12.416 134.722 12.696 135.778 13.256C136.834 13.816 137.666 14.624 138.274 15.68C138.882 16.72 139.186 17.928 139.186 19.304C139.186 20.68 138.874 21.896 138.25 22.952C137.642 23.992 136.802 24.792 135.73 25.352C134.674 25.912 133.49 26.192 132.178 26.192ZM132.178 22.64C132.962 22.64 133.626 22.352 134.17 21.776C134.73 21.2 135.01 20.376 135.01 19.304C135.01 18.232 134.738 17.408 134.194 16.832C133.666 16.256 133.01 15.968 132.226 15.968C131.426 15.968 130.762 16.256 130.234 16.832C129.706 17.392 129.442 18.216 129.442 19.304C129.442 20.376 129.698 21.2 130.21 21.776C130.738 22.352 131.394 22.64 132.178 22.64ZM146.451 12.416C147.395 12.416 148.219 12.608 148.923 12.992C149.643 13.376 150.195 13.88 150.579 14.504V12.608H154.683V25.976C154.683 27.208 154.435 28.32 153.939 29.312C153.459 30.32 152.715 31.12 151.707 31.712C150.715 32.304 149.475 32.6 147.987 32.6C146.003 32.6 144.395 32.128 143.163 31.184C141.931 30.256 141.227 28.992 141.051 27.392H145.107C145.235 27.904 145.539 28.304 146.019 28.592C146.499 28.896 147.091 29.048 147.795 29.048C148.643 29.048 149.315 28.8 149.811 28.304C150.323 27.824 150.579 27.048 150.579 25.976V24.08C150.179 24.704 149.627 25.216 148.923 25.616C148.219 26 147.395 26.192 146.451 26.192C145.347 26.192 144.347 25.912 143.451 25.352C142.555 24.776 141.843 23.968 141.315 22.928C140.803 21.872 140.547 20.656 140.547 19.28C140.547 17.904 140.803 16.696 141.315 15.656C141.843 14.616 142.555 13.816 143.451 13.256C144.347 12.696 145.347 12.416 146.451 12.416ZM150.579 19.304C150.579 18.28 150.291 17.472 149.715 16.88C149.155 16.288 148.467 15.992 147.651 15.992C146.835 15.992 146.139 16.288 145.563 16.88C145.003 17.456 144.723 18.256 144.723 19.28C144.723 20.304 145.003 21.12 145.563 21.728C146.139 22.32 146.835 22.616 147.651 22.616C148.467 22.616 149.155 22.32 149.715 21.728C150.291 21.136 150.579 20.328 150.579 19.304Z" fill="white"/>
<path d="M223.976 23.024H217.688L216.68 26H212.384L218.48 9.152H223.232L229.328 26H224.984L223.976 23.024ZM222.92 19.856L220.832 13.688L218.768 19.856H222.92ZM235.287 9.152V26H231.183V9.152H235.287ZM253.835 23.024H247.547L246.539 26H242.243L248.339 9.152H253.091L259.187 26H254.843L253.835 23.024ZM252.779 19.856L250.691 13.688L248.627 19.856H252.779ZM269.203 12.464C270.771 12.464 272.019 12.976 272.947 14C273.891 15.008 274.363 16.4 274.363 18.176V26H270.283V18.728C270.283 17.832 270.051 17.136 269.587 16.64C269.123 16.144 268.499 15.896 267.715 15.896C266.931 15.896 266.307 16.144 265.843 16.64C265.379 17.136 265.147 17.832 265.147 18.728V26H261.043V12.608H265.147V14.384C265.563 13.792 266.123 13.328 266.827 12.992C267.531 12.64 268.323 12.464 269.203 12.464ZM284.679 22.52V26H282.591C281.103 26 279.943 25.64 279.111 24.92C278.279 24.184 277.863 22.992 277.863 21.344V16.016H276.231V12.608H277.863V9.344H281.967V12.608H284.655V16.016H281.967V21.392C281.967 21.792 282.063 22.08 282.255 22.256C282.447 22.432 282.767 22.52 283.215 22.52H284.679ZM289.029 11.216C288.309 11.216 287.717 11.008 287.253 10.592C286.805 10.16 286.581 9.632 286.581 9.008C286.581 8.368 286.805 7.84 287.253 7.424C287.717 6.992 288.309 6.776 289.029 6.776C289.733 6.776 290.309 6.992 290.757 7.424C291.221 7.84 291.453 8.368 291.453 9.008C291.453 9.632 291.221 10.16 290.757 10.592C290.309 11.008 289.733 11.216 289.029 11.216ZM291.069 12.608V26H286.965V12.608H291.069ZM300.763 16.016H298.555V26H294.451V16.016H292.963V12.608H294.451V12.224C294.451 10.576 294.923 9.328 295.867 8.48C296.811 7.616 298.195 7.184 300.019 7.184C300.323 7.184 300.547 7.192 300.691 7.208V10.688C299.907 10.64 299.355 10.752 299.035 11.024C298.715 11.296 298.555 11.784 298.555 12.488V12.608H300.763V16.016ZM306.795 14.84C307.275 14.104 307.875 13.528 308.595 13.112C309.315 12.68 310.115 12.464 310.995 12.464V16.808H309.867C308.843 16.808 308.075 17.032 307.563 17.48C307.051 17.912 306.795 18.68 306.795 19.784V26H302.691V12.608H306.795V14.84ZM312.141 19.28C312.141 17.904 312.397 16.696 312.909 15.656C313.437 14.616 314.149 13.816 315.045 13.256C315.941 12.696 316.941 12.416 318.045 12.416C318.989 12.416 319.813 12.608 320.517 12.992C321.237 13.376 321.789 13.88 322.173 14.504V12.608H326.277V26H322.173V24.104C321.773 24.728 321.213 25.232 320.493 25.616C319.789 26 318.965 26.192 318.021 26.192C316.933 26.192 315.941 25.912 315.045 25.352C314.149 24.776 313.437 23.968 312.909 22.928C312.397 21.872 312.141 20.656 312.141 19.28ZM322.173 19.304C322.173 18.28 321.885 17.472 321.309 16.88C320.749 16.288 320.061 15.992 319.245 15.992C318.429 15.992 317.733 16.288 317.157 16.88C316.597 17.456 316.317 18.256 316.317 19.28C316.317 20.304 316.597 21.12 317.157 21.728C317.733 22.32 318.429 22.616 319.245 22.616C320.061 22.616 320.749 22.32 321.309 21.728C321.885 21.136 322.173 20.328 322.173 19.304ZM342.47 12.608V26H338.366V24.176C337.95 24.768 337.382 25.248 336.662 25.616C335.958 25.968 335.174 26.144 334.31 26.144C333.286 26.144 332.382 25.92 331.598 25.472C330.814 25.008 330.206 24.344 329.774 23.48C329.342 22.616 329.126 21.6 329.126 20.432V12.608H333.206V19.88C333.206 20.776 333.438 21.472 333.902 21.968C334.366 22.464 334.99 22.712 335.774 22.712C336.574 22.712 337.206 22.464 337.67 21.968C338.134 21.472 338.366 20.776 338.366 19.88V12.608H342.47ZM344.602 19.28C344.602 17.904 344.858 16.696 345.37 15.656C345.898 14.616 346.61 13.816 347.506 13.256C348.402 12.696 349.402 12.416 350.506 12.416C351.386 12.416 352.186 12.6 352.906 12.968C353.642 13.336 354.218 13.832 354.634 14.456V8.24H358.738V26H354.634V24.08C354.25 24.72 353.698 25.232 352.978 25.616C352.274 26 351.45 26.192 350.506 26.192C349.402 26.192 348.402 25.912 347.506 25.352C346.61 24.776 345.898 23.968 345.37 22.928C344.858 21.872 344.602 20.656 344.602 19.28ZM354.634 19.304C354.634 18.28 354.346 17.472 353.77 16.88C353.21 16.288 352.522 15.992 351.706 15.992C350.89 15.992 350.194 16.288 349.618 16.88C349.058 17.456 348.778 18.256 348.778 19.28C348.778 20.304 349.058 21.12 349.618 21.728C350.194 22.32 350.89 22.616 351.706 22.616C352.522 22.616 353.21 22.32 353.77 21.728C354.346 21.136 354.634 20.328 354.634 19.304Z" fill="white"/>
<path d="M165.045 18.98L183.654 34.3766L170.459 29.5145L165.045 18.98Z" fill="#3F7F1C"/>
<path d="M166.196 17.8315L174.654 20.6678L179.459 29.0412L166.196 17.8315Z" fill="#81BD52"/>
<path d="M162 7.70264C162.19 8.61324 162.664 9.44053 163.353 10.0661C164.436 10.944 166.991 10.8765 166.991 10.8765L164.233 8.64801L162 7.70264Z" fill="#3F7F1C"/>
<path d="M165.857 7.29688L168.158 10.7408L169.444 11.0787L169.63 9.40706L165.857 7.29688Z" fill="#3F7F1C"/>
<path d="M170.662 10.2009L170.526 13.3076L175.263 19.5878L175.06 16.549L170.662 10.2009Z" fill="#3F7F1C"/>
<path d="M178.647 11.5515L184.466 31.5402V1.62476L178.647 11.5515Z" fill="#3F7F1C"/>
<path d="M181.962 1.69275L179.07 1.15234L177.902 4.93361L178.105 5.94654L181.962 1.69275Z" fill="#3F7F1C"/>
<path d="M178.41 1L176.887 1.86126L177.446 4.0388L178.41 1Z" fill="#3F7F1C"/>
<path d="M169.376 4.79883L168.429 6.48687V7.97233L169.985 6.62211L169.376 4.79883Z" fill="#81BD52"/>
<path d="M175.762 16.4116L176.008 19.7224L178.85 15.3334L178.138 12.4558L175.762 16.4116Z" fill="#3F7F1C"/>
<path d="M203.955 18.98L185.346 34.3766L198.542 29.5145L203.955 18.98Z" fill="#81BD52"/>
<path d="M202.805 17.8315L194.346 20.6678L189.541 29.0412L202.805 17.8315Z" fill="#3F7F1C"/>
<path d="M207 7.70264C206.81 8.61324 206.336 9.44053 205.647 10.0661C204.564 10.944 202.009 10.8765 202.009 10.8765L204.767 8.64801L207 7.70264Z" fill="#81BD52"/>
<path d="M203.143 7.29688L200.842 10.7408L199.557 11.0787L199.37 9.40706L203.143 7.29688Z" fill="#3F7F1C"/>
<path d="M198.339 10.2009L198.474 13.3076L193.737 19.5878L193.94 16.549L198.339 10.2009Z" fill="#3F7F1C"/>
<path d="M190.353 11.5515L184.534 31.5402V1.62476L190.353 11.5515Z" fill="#81BD52"/>
<path d="M187.038 1.69275L189.93 1.15234L191.098 4.93361L190.895 5.94654L187.038 1.69275Z" fill="#81BD52"/>
<path d="M190.59 1L192.113 1.86126L191.554 4.0388L190.59 1Z" fill="#81BD52"/>
<path d="M199.624 4.79883L200.572 6.48687V7.97233L199.015 6.62211L199.624 4.79883Z" fill="#3F7F1C"/>
<path d="M193.238 16.4116L192.992 19.7224L190.15 15.3334L190.862 12.4558L193.238 16.4116Z" fill="#81BD52"/>
</svg>
