<svg width="68" height="31" viewBox="0 0 68 31" fill="none" xmlns="http://www.w3.org/2000/svg">
<path fill-rule="evenodd" clip-rule="evenodd" d="M0 5.27792C0 12.6498 1.60558 19.1836 4.11 21.9986C6.1369 24.277 6.35617 24.3267 8.78176 23.0505C10.5622 22.113 12.7051 19.0532 15.9217 12.8511C22.2298 0.688227 24.2667 0.678463 25.788 12.8024C26.7729 20.6487 27.5721 22.1725 30.7035 22.1725C33.709 22.1725 36.9265 18.9885 40.0108 12.9629C42.5606 7.98118 46.1332 4.43449 48.6014 4.43449C49.9977 4.43449 51.4963 5.63891 53.2913 8.20382C55.8673 11.8844 59.8015 18.9654 59.8015 19.9197C59.8015 20.1831 58.281 20.3986 56.4227 20.3986H53.0448L58.9144 25.6783C62.1437 28.582 65.0903 30.9767 65.4645 30.9997C65.8387 31.0228 66.144 29.5319 66.144 27.6872C66.144 25.8424 66.6959 22.2505 67.3709 19.7051C68.4709 15.5518 68.0749 13.6245 66.5998 15.9597C66.2935 16.4448 65.2597 17.2519 64.3029 17.753C62.7607 18.561 62.208 17.9747 59.4345 12.5833C55.5365 5.0074 50.6473 0.497571 47.2314 1.32771C43.7258 2.17824 41.2005 4.8664 36.6465 12.5948C31.0506 22.0908 29.9388 21.8851 28.5044 11.0862C26.627 -3.05981 20.3851 -3.05446 13.4816 11.0995C11.5281 15.1057 9.12607 19.0949 8.14478 19.9641C6.41054 21.5002 6.32266 21.4558 5.00159 18.3606C4.25408 16.6098 3.37423 11.7629 3.04713 7.58829C2.61493 2.08952 2.11296 0 1.225 0C0.33251 0 0 1.43321 0 5.27792Z" fill="#6FBE3E"/>
</svg>
