<svg width="75" height="50" viewBox="0 0 75 50" fill="none" xmlns="http://www.w3.org/2000/svg">
<path fill-rule="evenodd" clip-rule="evenodd" d="M29.6725 1.01457C26.3249 2.79829 24.3205 7.69236 24.3196 14.0843L24.3178 19.6166L18.2938 17.5224C10.3162 14.7489 5.50501 14.748 2.34753 17.5187C0.268126 19.3434 -0.0745763 20.3168 0.0119911 24.1647C0.174417 31.4653 5.73794 44.5177 8.68659 44.5177C10.4929 44.5177 10.4483 44.321 7.39878 38.8069C4.35821 33.31 2.11103 25.2482 2.7179 22.0104C3.356 18.605 6.54471 17.5616 12.45 18.8254C15.1809 19.4099 19.1202 20.7302 21.2041 21.7591C24.4758 23.3753 25.1478 24.2175 26.125 27.9279C27.8376 34.4345 32.8139 45.074 35.3601 47.6717C39.9107 52.3136 44.6362 49.6212 43.4323 43.0727C42.6282 38.703 36.7282 29.8855 31.6359 25.444L27.4789 21.8201L27.1406 14.9866C26.8122 8.33699 26.8791 8.07572 29.6154 5.28313C32.1526 2.69451 32.7961 2.47049 36.182 2.99314C38.2462 3.31182 42.7469 4.98717 46.1828 6.71717C52.5343 9.91403 63.7426 18.0086 63.9291 19.5328C63.9853 19.9936 62.8269 20.5863 61.3544 20.8504C58.81 21.3056 59.0751 21.566 66.6627 26.0658C71.0553 28.6709 74.7956 30.6522 74.9758 30.4692C75.3623 30.074 70.9946 13.5316 70.3226 12.8459C70.0683 12.5864 69.3391 13.6363 68.7037 15.1805L67.5471 17.9868L60.8805 12.5418C48.5915 2.50418 35.7652 -2.23328 29.6725 1.01457ZM36.7594 35.8677C40.2775 41.1041 41.5902 45.3617 39.8919 46.0264C39.1673 46.3105 37.9455 46.01 37.1771 45.3599C35.3726 43.8311 31.6261 36.2747 30.0875 31.0583L28.8845 26.9791L31.5984 29.6023C33.0915 31.0446 35.4136 33.8645 36.7594 35.8677Z" fill="#6FBE3E"/>
</svg>
