<svg width="50" height="35" viewBox="0 0 50 35" fill="none" xmlns="http://www.w3.org/2000/svg">
<path d="M12.0541 17.08V18.232H7.12213V17.08H12.0541ZM16.7548 14.5V13.252H19.2508V22H17.8708V14.5H16.7548ZM21.1062 15.412C21.1542 14.668 21.4382 14.088 21.9582 13.672C22.4862 13.256 23.1582 13.048 23.9742 13.048C24.5342 13.048 25.0182 13.148 25.4262 13.348C25.8342 13.548 26.1422 13.82 26.3502 14.164C26.5582 14.508 26.6622 14.896 26.6622 15.328C26.6622 15.824 26.5302 16.248 26.2662 16.6C26.0022 16.952 25.6862 17.188 25.3182 17.308V17.356C25.7902 17.5 26.1582 17.764 26.4222 18.148C26.6862 18.524 26.8182 19.008 26.8182 19.6C26.8182 20.072 26.7102 20.492 26.4942 20.86C26.2782 21.228 25.9582 21.52 25.5342 21.736C25.1102 21.944 24.6022 22.048 24.0102 22.048C23.1462 22.048 22.4342 21.828 21.8742 21.388C21.3222 20.94 21.0262 20.3 20.9862 19.468H22.3062C22.3382 19.892 22.5022 20.24 22.7982 20.512C23.0942 20.776 23.4942 20.908 23.9982 20.908C24.4862 20.908 24.8622 20.776 25.1262 20.512C25.3902 20.24 25.5222 19.892 25.5222 19.468C25.5222 18.908 25.3422 18.512 24.9822 18.28C24.6302 18.04 24.0862 17.92 23.3502 17.92H23.0382V16.792H23.3622C24.0102 16.784 24.5022 16.676 24.8382 16.468C25.1822 16.26 25.3542 15.932 25.3542 15.484C25.3542 15.1 25.2302 14.796 24.9822 14.572C24.7342 14.34 24.3822 14.224 23.9262 14.224C23.4782 14.224 23.1302 14.34 22.8822 14.572C22.6342 14.796 22.4862 15.076 22.4382 15.412H21.1062ZM28.0872 20.176V19.144L32.1192 13.36H33.7752V18.988H34.8912V20.176H33.7752V22H32.4312V20.176H28.0872ZM32.4912 14.752L29.6592 18.988H32.4912V14.752ZM37.7287 19.624C37.8087 20.024 37.9807 20.328 38.2447 20.536C38.5087 20.744 38.8647 20.848 39.3127 20.848C39.8807 20.848 40.2967 20.624 40.5607 20.176C40.8247 19.728 40.9567 18.964 40.9567 17.884C40.7647 18.156 40.4927 18.368 40.1407 18.52C39.7967 18.664 39.4207 18.736 39.0127 18.736C38.4927 18.736 38.0207 18.632 37.5967 18.424C37.1727 18.208 36.8367 17.892 36.5887 17.476C36.3487 17.052 36.2287 16.54 36.2287 15.94C36.2287 15.06 36.4847 14.36 36.9967 13.84C37.5167 13.312 38.2287 13.048 39.1327 13.048C40.2207 13.048 40.9927 13.412 41.4487 14.14C41.9127 14.86 42.1447 15.968 42.1447 17.464C42.1447 18.496 42.0567 19.34 41.8807 19.996C41.7127 20.652 41.4167 21.148 40.9927 21.484C40.5687 21.82 39.9807 21.988 39.2287 21.988C38.3727 21.988 37.7127 21.764 37.2487 21.316C36.7847 20.868 36.5247 20.304 36.4687 19.624H37.7287ZM39.2527 17.584C39.7327 17.584 40.1087 17.436 40.3807 17.14C40.6607 16.836 40.8007 16.436 40.8007 15.94C40.8007 15.388 40.6527 14.96 40.3567 14.656C40.0687 14.344 39.6727 14.188 39.1687 14.188C38.6647 14.188 38.2647 14.348 37.9687 14.668C37.6807 14.98 37.5367 15.392 37.5367 15.904C37.5367 16.392 37.6767 16.796 37.9567 17.116C38.2447 17.428 38.6767 17.584 39.2527 17.584Z" fill="#CF2B2B"/>
<rect x="0.5" y="0.5" width="49" height="34" rx="7.5" stroke="#CF2B2B"/>
</svg>
