<svg width="54" height="65" viewBox="0 0 54 65" fill="none" xmlns="http://www.w3.org/2000/svg">
<path d="M48.4488 7.13104L27 0L5.5512 7.13104C3.93518 7.66842 2.52904 8.7029 1.53253 10.0876C0.536007 11.4722 -0.000223116 13.1366 6.9641e-08 14.8444V32.4756C6.9641e-08 52.8531 24.84 64.1062 25.9038 64.5748L26.8596 65L27.8532 64.6696C28.9224 64.3121 54 55.705 54 32.4756V14.8444C54.0002 13.1366 53.464 11.4722 52.4675 10.0876C51.471 8.7029 50.0648 7.66842 48.4488 7.13104ZM28.1988 37.8625C27.7268 38.3391 27.1651 38.717 26.5463 38.9741C25.9276 39.2312 25.2641 39.3624 24.5943 39.3602H24.5052C23.8218 39.3497 23.1476 39.2003 22.5234 38.921C21.8993 38.6417 21.338 38.2383 20.8737 37.7352L14.6475 31.2352L18.5436 27.4923L24.6024 33.8298L38.5911 19.7979L42.4089 23.6275L28.1988 37.8625Z" fill="#6FBE3E"/>
</svg>
