<svg width="65" height="65" viewBox="0 0 65 65" fill="none" xmlns="http://www.w3.org/2000/svg">
<circle cx="32.4806" cy="32.4806" r="32.4806" fill="#6FBE3E"/>
<path d="M46.1073 22.4397L47.9392 20.6078C44.2581 15.8224 38.5458 12.9901 32.4828 12.9901C21.736 12.9922 12.9922 21.7338 12.9922 32.4806C12.9922 43.2273 21.736 51.969 32.4806 51.969C42.1165 51.969 50.4099 44.7907 51.7698 35.2696C52.0253 33.4962 53.6774 32.2662 55.4444 32.5131C57.22 32.7686 58.4564 34.4143 58.2009 36.1877C56.3842 48.8876 45.3278 58.4651 32.4784 58.4651C18.1523 58.4651 6.49609 46.8089 6.49609 32.4806C6.49609 18.1523 18.1523 6.49609 32.4806 6.49609C40.2803 6.49609 47.6426 10.0083 52.5601 15.9869L54.9464 13.6007C56.2456 12.3015 58.4651 13.2217 58.4651 15.058V23.3514C58.4651 24.7913 57.298 25.9585 55.8558 25.9585H47.5624C45.7262 25.9585 44.8081 23.739 46.1073 22.4397ZM32.4806 49.8036C34.2757 49.8036 35.7287 48.3485 35.7287 46.5555V45.1069C38.8641 44.1065 41.1421 41.1659 41.1421 37.7056C41.1421 34.5096 39.2257 31.6794 36.2613 30.4949L31.1121 28.4335C30.627 28.2408 30.3152 27.7774 30.3152 27.2555C30.3152 26.5561 30.8847 25.9845 31.5863 25.9845H34.1436C34.5355 25.9845 34.8863 26.188 35.0834 26.528C35.982 28.0806 37.9698 28.6132 39.5224 27.7146C41.075 26.816 41.6055 24.8282 40.709 23.2756C39.6285 21.4047 37.7988 20.1033 35.7308 19.6594V18.4057C35.7308 16.6127 34.2779 15.1576 32.4828 15.1576C30.6877 15.1576 29.2347 16.6127 29.2347 18.4057V19.8543C26.0992 20.8525 23.8213 23.7953 23.8213 27.2555C23.8213 30.4538 25.7376 33.2818 28.702 34.4662L33.8491 36.5255C34.3342 36.7204 34.646 37.1838 34.646 37.7056C34.646 38.4051 34.0765 38.9767 33.3749 38.9767H30.8176C30.4257 38.9767 30.0749 38.7732 29.8778 38.4332C28.9792 36.8806 26.9914 36.3501 25.441 37.2466C23.8884 38.1452 23.3579 40.133 24.2565 41.6856C25.337 43.5565 27.1646 44.8579 29.2325 45.3039V46.5555C29.2325 48.3485 30.6855 49.8036 32.4806 49.8036Z" fill="#414748"/>
</svg>
