<?xml version="1.0" encoding="utf-8"?>
<!-- Generator: Adobe Illustrator 23.1.0, SVG Export Plug-In . SVG Version: 6.00 Build 0)  -->
<svg version="1.1" id="Слой_1" xmlns="http://www.w3.org/2000/svg" xmlns:xlink="http://www.w3.org/1999/xlink" x="0px" y="0px"
	 viewBox="0 0 427.7 41.8" style="enable-background:new 0 0 427.7 41.8;" xml:space="preserve">
<style type="text/css">
	.st0{fill:#3F7F1C;}
	.st1{fill:#81BD52;}
</style>
<path class="st0" d="M195.1,22.5l23.2,19.3l-16.5-6.1L195.1,22.5z"/>
<path class="st1" d="M196.5,21.1l10.6,3.5l6,10.5L196.5,21.1z"/>
<path class="st0" d="M191.3,8.4c0.2,1.1,0.8,2.2,1.7,3c1.4,1.1,4.5,1,4.5,1l-3.4-2.8L191.3,8.4z"/>
<path class="st0" d="M196.1,7.9l2.9,4.3l1.6,0.4l0.2-2.1L196.1,7.9z"/>
<path class="st0" d="M202.1,11.5l-0.2,3.9l5.9,7.9l-0.3-3.8L202.1,11.5z"/>
<path class="st0" d="M212,13.2l7.3,25V0.8L212,13.2z"/>
<path class="st0" d="M216.2,0.9l-3.6-0.7l-1.5,4.7l0.3,1.3L216.2,0.9z"/>
<path class="st0" d="M211.7,0l-1.9,1.1l0.7,2.7L211.7,0z"/>
<path class="st1" d="M200.5,4.8l-1.2,2.1v1.9l1.9-1.7L200.5,4.8z"/>
<path class="st0" d="M208.4,19.3l0.3,4.1l3.5-5.5l-0.9-3.6L208.4,19.3z"/>
<path class="st1" d="M243.6,22.5l-23.2,19.3l16.5-6.1L243.6,22.5z"/>
<path class="st0" d="M242.2,21.1l-10.6,3.5l-6,10.5L242.2,21.1z"/>
<path class="st1" d="M247.4,8.4c-0.2,1.1-0.8,2.2-1.7,3c-1.4,1.1-4.5,1-4.5,1l3.4-2.8L247.4,8.4z"/>
<path class="st0" d="M242.6,7.9l-2.9,4.3l-1.6,0.4l-0.2-2.1L242.6,7.9z"/>
<path class="st0" d="M236.6,11.5l0.2,3.9l-5.9,7.9l0.3-3.8L236.6,11.5z"/>
<path class="st1" d="M226.7,13.2l-7.3,25V0.8L226.7,13.2z"/>
<path class="st1" d="M222.5,0.9l3.6-0.7l1.5,4.7l-0.3,1.3L222.5,0.9z"/>
<path class="st1" d="M226.9,0l1.9,1.1l-0.7,2.7L226.9,0z"/>
<path class="st0" d="M238.2,4.8l1.2,2.1v1.9L237.5,7L238.2,4.8z"/>
<path class="st1" d="M230.3,19.3l-0.3,4.1l-3.5-5.5l0.9-3.6L230.3,19.3z"/>
<g>
	<g>
		<path class="st1" d="M267,27.2h-8.7l-1.5,4.3h-3.6l7.5-20.9h4l7.5,20.9h-3.6L267,27.2z M266,24.4l-3.4-9.7l-3.4,9.7H266z"/>
		<path class="st1" d="M278.7,10.6v20.8h-3.4V10.6H278.7z"/>
		<path class="st1" d="M303.6,27.2h-8.7l-1.5,4.3h-3.6l7.5-20.9h4l7.5,20.9h-3.6L303.6,27.2z M302.6,24.4l-3.4-9.7l-3.4,9.7H302.6z"
			/>
		<path class="st1" d="M323.8,15.5c1,0.5,1.8,1.3,2.4,2.4s0.9,2.3,0.9,3.8v9.8h-3.4v-9.2c0-1.5-0.4-2.6-1.1-3.4s-1.8-1.2-3-1.2
			s-2.3,0.4-3,1.2s-1.1,1.9-1.1,3.4v9.2h-3.4V14.9h3.4v1.9c0.6-0.7,1.3-1.2,2.1-1.6c0.9-0.4,1.8-0.6,2.8-0.6
			C321.6,14.7,322.8,14.9,323.8,15.5z"/>
		<path class="st1" d="M335.4,17.7v9.2c0,0.6,0.1,1.1,0.4,1.3c0.3,0.3,0.8,0.4,1.5,0.4h2.1v2.8h-2.7c-1.5,0-2.7-0.4-3.5-1.1
			s-1.2-1.9-1.2-3.5v-9.2h-2v-2.8h2v-4.1h3.5v4.1h4v2.8h-4.1L335.4,17.7L335.4,17.7z"/>
		<path class="st1" d="M342.8,12.1c-0.4-0.4-0.6-0.9-0.6-1.6c0-0.6,0.2-1.1,0.6-1.6s0.9-0.6,1.6-0.6c0.6,0,1.1,0.2,1.5,0.6
			c0.4,0.4,0.6,0.9,0.6,1.6c0,0.6-0.2,1.1-0.6,1.6c-0.4,0.4-0.9,0.6-1.5,0.6C343.7,12.8,343.2,12.5,342.8,12.1z M346,14.9v16.5h-3.4
			V14.9H346z"/>
		<path class="st1" d="M357.4,17.7h-3.1v13.7h-3.5V17.7h-2v-2.8h2v-1.2c0-1.9,0.5-3.3,1.5-4.2s2.6-1.3,4.8-1.3v2.9
			c-1,0-1.8,0.2-2.2,0.6c-0.4,0.4-0.6,1.1-0.6,2v1.2h3.1L357.4,17.7L357.4,17.7z"/>
		<path class="st1" d="M365.9,15.4c0.8-0.5,1.8-0.7,3-0.7v3.5H368c-1.3,0-2.4,0.3-3,1c-0.7,0.7-1,1.9-1,3.5v8.7h-3.4V14.9h3.4v2.4
			C364.4,16.5,365,15.9,365.9,15.4z"/>
		<path class="st1" d="M371.9,18.7c0.7-1.3,1.6-2.3,2.8-3c1.2-0.7,2.5-1.1,3.9-1.1c1.3,0,2.4,0.3,3.4,0.8s1.7,1.1,2.3,1.9v-2.4h3.5
			v16.5h-3.5V29c-0.6,0.8-1.4,1.4-2.4,2c-1,0.5-2.1,0.8-3.4,0.8c-1.4,0-2.7-0.4-3.9-1.1c-1.2-0.7-2.1-1.8-2.8-3.1
			c-0.7-1.3-1-2.8-1-4.5S371.2,20,371.9,18.7z M383.7,20.2c-0.5-0.8-1.1-1.5-1.8-1.9c-0.8-0.4-1.6-0.7-2.5-0.7s-1.7,0.2-2.5,0.6
			s-1.4,1.1-1.8,1.9c-0.5,0.8-0.7,1.8-0.7,3c0,1.1,0.2,2.1,0.7,3s1.1,1.5,1.9,2s1.6,0.7,2.4,0.7c0.9,0,1.7-0.2,2.5-0.7
			c0.8-0.4,1.4-1.1,1.8-1.9c0.5-0.8,0.7-1.8,0.7-3C384.4,22.1,384.1,21.1,383.7,20.2z"/>
		<path class="st1" d="M407.3,14.9v16.5h-3.4v-2c-0.5,0.7-1.2,1.2-2.1,1.6s-1.8,0.6-2.8,0.6c-1.3,0-2.5-0.3-3.5-0.8
			s-1.8-1.3-2.4-2.4s-0.9-2.3-0.9-3.8v-9.7h3.4v9.2c0,1.5,0.4,2.6,1.1,3.4s1.8,1.2,3,1.2s2.3-0.4,3-1.2s1.1-1.9,1.1-3.4v-9.2
			C403.8,14.9,407.3,14.9,407.3,14.9z"/>
		<path class="st1" d="M411.7,18.7c0.7-1.3,1.6-2.3,2.8-3c1.2-0.7,2.5-1.1,4-1.1c1.1,0,2.1,0.2,3.2,0.7s1.9,1.1,2.5,1.9v-8h3.5v22.2
			h-3.5V29c-0.6,0.8-1.3,1.5-2.3,2s-2.1,0.8-3.4,0.8c-1.4,0-2.8-0.4-3.9-1.1c-1.2-0.7-2.1-1.8-2.8-3.1c-0.7-1.3-1-2.8-1-4.5
			S411,20,411.7,18.7z M423.5,20.2c-0.5-0.8-1.1-1.5-1.8-1.9c-0.8-0.4-1.6-0.7-2.5-0.7s-1.7,0.2-2.5,0.6s-1.4,1.1-1.8,1.9
			c-0.5,0.8-0.7,1.8-0.7,3c0,1.1,0.2,2.1,0.7,3s1.1,1.5,1.9,2s1.6,0.7,2.4,0.7c0.9,0,1.7-0.2,2.5-0.7c0.8-0.4,1.4-1.1,1.8-1.9
			c0.5-0.8,0.7-1.8,0.7-3C424.2,22.1,423.9,21.1,423.5,20.2z"/>
	</g>
</g>
<g>
	<path d="M3.6,31c-1.1-0.5-2-1.2-2.6-2.1c-0.6-0.9-1-2-1-3.1h3.7c0.1,0.9,0.4,1.6,1.1,2.2c0.6,0.6,1.5,0.9,2.7,0.9
		c1.2,0,2.1-0.3,2.8-0.9c0.7-0.6,1-1.3,1-2.2c0-0.7-0.2-1.3-0.6-1.7c-0.4-0.4-0.9-0.8-1.5-1c-0.6-0.2-1.5-0.5-2.5-0.8
		c-1.4-0.4-2.5-0.7-3.3-1.1c-0.9-0.4-1.6-0.9-2.2-1.7c-0.6-0.8-0.9-1.8-0.9-3.1c0-1.2,0.3-2.3,0.9-3.1c0.6-0.9,1.4-1.6,2.5-2.1
		c1.1-0.5,2.3-0.7,3.8-0.7c2,0,3.7,0.5,5,1.5c1.3,1,2,2.4,2.1,4.2h-3.8c-0.1-0.8-0.4-1.4-1.1-1.9c-0.7-0.5-1.5-0.8-2.6-0.8
		c-1,0-1.8,0.3-2.4,0.8c-0.6,0.5-0.9,1.2-0.9,2.2c0,0.6,0.2,1.2,0.6,1.6c0.4,0.4,0.9,0.7,1.5,1s1.4,0.5,2.5,0.8
		c1.4,0.4,2.5,0.8,3.4,1.1c0.9,0.4,1.6,1,2.2,1.8c0.6,0.8,0.9,1.8,0.9,3.2c0,1.1-0.3,2.1-0.9,3c-0.6,0.9-1.4,1.7-2.5,2.3
		c-1.1,0.6-2.4,0.9-3.9,0.9C6,31.7,4.7,31.5,3.6,31z"/>
	<path d="M18.5,18.7c0.7-1.3,1.6-2.3,2.9-3c1.2-0.7,2.6-1,4.2-1c2,0,3.7,0.5,5,1.4c1.3,1,2.2,2.3,2.7,4.1h-3.7
		c-0.3-0.8-0.8-1.5-1.4-1.9c-0.7-0.5-1.5-0.7-2.5-0.7c-1.4,0-2.5,0.5-3.3,1.5c-0.8,1-1.2,2.4-1.2,4.2s0.4,3.2,1.2,4.2
		c0.8,1,1.9,1.5,3.3,1.5c2,0,3.3-0.9,3.9-2.6h3.7c-0.5,1.7-1.4,3-2.7,4c-1.3,1-3,1.5-4.9,1.5c-1.6,0-3-0.4-4.2-1.1s-2.2-1.7-2.9-3
		s-1-2.8-1-4.5S17.8,20,18.5,18.7z"/>
	<path d="M42,15.4c0.8-0.5,1.8-0.7,3-0.7v3.5h-0.9c-1.3,0-2.4,0.3-3,1c-0.7,0.7-1,1.9-1,3.5v8.7h-3.4V15H40v2.4
		C40.5,16.5,41.2,15.9,42,15.4z"/>
	<path d="M51.1,30.7c-1.3-0.7-2.3-1.7-3-3c-0.7-1.3-1.1-2.8-1.1-4.5c0-1.7,0.4-3.2,1.1-4.5c0.7-1.3,1.8-2.3,3-3c1.3-0.7,2.7-1,4.3-1
		s3,0.4,4.3,1c1.3,0.7,2.3,1.7,3,3c0.7,1.3,1.1,2.8,1.1,4.5c0,1.7-0.4,3.2-1.1,4.5C62,29,61,30,59.7,30.7c-1.3,0.7-2.8,1.1-4.3,1.1
		C53.8,31.8,52.3,31.4,51.1,30.7z M57.8,28.2c0.8-0.4,1.4-1,1.9-1.9c0.5-0.8,0.7-1.9,0.7-3.1c0-1.2-0.2-2.2-0.7-3
		c-0.5-0.8-1.1-1.5-1.8-1.9c-0.8-0.4-1.6-0.6-2.5-0.6s-1.7,0.2-2.4,0.6c-0.8,0.4-1.3,1-1.8,1.9c-0.4,0.8-0.7,1.8-0.7,3
		c0,1.8,0.5,3.2,1.4,4.1s2.1,1.5,3.4,1.5C56.2,28.8,57,28.6,57.8,28.2z"/>
	<path d="M70.2,30.7c-1.3-0.7-2.3-1.7-3-3c-0.7-1.3-1.1-2.8-1.1-4.5c0-1.7,0.4-3.2,1.1-4.5c0.7-1.3,1.8-2.3,3-3c1.3-0.7,2.7-1,4.3-1
		s3,0.4,4.3,1c1.3,0.7,2.3,1.7,3,3c0.7,1.3,1.1,2.8,1.1,4.5c0,1.7-0.4,3.2-1.1,4.5c-0.8,1.3-1.8,2.3-3.1,3c-1.3,0.7-2.8,1.1-4.3,1.1
		C72.9,31.8,71.5,31.4,70.2,30.7z M76.9,28.2c0.8-0.4,1.4-1,1.9-1.9c0.5-0.8,0.7-1.9,0.7-3.1c0-1.2-0.2-2.2-0.7-3
		c-0.5-0.8-1.1-1.5-1.8-1.9c-0.8-0.4-1.6-0.6-2.5-0.6s-1.7,0.2-2.4,0.6c-0.8,0.4-1.3,1-1.8,1.9c-0.4,0.8-0.7,1.8-0.7,3
		c0,1.8,0.5,3.2,1.4,4.1s2.1,1.5,3.4,1.5C75.3,28.8,76.2,28.6,76.9,28.2z"/>
	<path d="M96.5,15.5c1,0.5,1.8,1.1,2.3,1.9V15h3.4v16.8c0,1.5-0.3,2.9-1,4.1s-1.6,2.1-2.8,2.8c-1.2,0.7-2.7,1-4.3,1
		c-2.2,0-4.1-0.5-5.6-1.6c-1.5-1-2.3-2.5-2.5-4.3h3.4c0.3,0.9,0.8,1.6,1.7,2.1c0.8,0.5,1.9,0.8,3,0.8c1.4,0,2.5-0.4,3.3-1.3
		c0.8-0.8,1.3-2.1,1.3-3.7V29c-0.6,0.8-1.4,1.4-2.4,2c-1,0.5-2.1,0.8-3.4,0.8c-1.4,0-2.8-0.4-3.9-1.1c-1.2-0.7-2.1-1.7-2.8-3.1
		s-1-2.8-1-4.5s0.3-3.1,1-4.4c0.7-1.3,1.6-2.3,2.8-3s2.5-1.1,3.9-1.1C94.4,14.7,95.5,15,96.5,15.5z M98.1,20.2
		c-0.5-0.8-1.1-1.5-1.8-1.9c-0.8-0.4-1.6-0.7-2.5-0.7c-0.9,0-1.7,0.2-2.5,0.6c-0.8,0.4-1.4,1.1-1.8,1.9c-0.5,0.8-0.7,1.8-0.7,3
		c0,1.1,0.2,2.1,0.7,3c0.5,0.9,1.1,1.5,1.9,2c0.8,0.5,1.6,0.7,2.4,0.7c0.9,0,1.7-0.2,2.5-0.7c0.8-0.4,1.4-1.1,1.8-1.9
		c0.5-0.9,0.7-1.8,0.7-3C98.8,22.1,98.6,21.1,98.1,20.2z"/>
	<path d="M121.8,24.5h-12.6c0.1,1.3,0.6,2.4,1.5,3.2c0.9,0.8,2,1.2,3.2,1.2c1.8,0,3.1-0.8,3.9-2.3h3.7c-0.5,1.5-1.4,2.8-2.7,3.7
		c-1.3,1-2.9,1.5-4.9,1.5c-1.6,0-3-0.4-4.2-1.1c-1.3-0.7-2.2-1.7-2.9-3s-1.1-2.8-1.1-4.5s0.3-3.2,1-4.5s1.7-2.3,2.9-3
		c1.2-0.7,2.7-1,4.3-1c1.6,0,3,0.3,4.2,1c1.2,0.7,2.2,1.6,2.9,2.9c0.7,1.2,1,2.6,1,4.2C121.9,23.4,121.9,24,121.8,24.5z M118.3,21.7
		c0-1.3-0.5-2.3-1.4-3c-0.9-0.8-2-1.1-3.3-1.1c-1.2,0-2.2,0.4-3,1.1c-0.8,0.8-1.3,1.8-1.5,3H118.3z"/>
	<path d="M137.5,10.6v2.8h-8.9v6.1h6.9v2.8h-6.9v9.1h-3.4V10.6H137.5z"/>
	<path d="M146.1,15.4c0.8-0.5,1.8-0.7,3-0.7v3.5h-0.9c-1.3,0-2.4,0.3-3,1c-0.7,0.7-1,1.9-1,3.5v8.7h-3.4V15h3.4v2.4
		C144.6,16.5,145.3,15.9,146.1,15.4z"/>
	<path d="M155.2,30.7c-1.3-0.7-2.3-1.7-3-3c-0.7-1.3-1.1-2.8-1.1-4.5c0-1.7,0.4-3.2,1.1-4.5c0.7-1.3,1.8-2.3,3-3
		c1.3-0.7,2.7-1,4.3-1s3,0.4,4.3,1c1.3,0.7,2.3,1.7,3,3c0.7,1.3,1.1,2.8,1.1,4.5c0,1.7-0.4,3.2-1.1,4.5c-0.8,1.3-1.8,2.3-3.1,3
		c-1.3,0.7-2.8,1.1-4.3,1.1C157.9,31.8,156.4,31.4,155.2,30.7z M161.9,28.2c0.8-0.4,1.4-1,1.9-1.9c0.5-0.8,0.7-1.9,0.7-3.1
		c0-1.2-0.2-2.2-0.7-3c-0.5-0.8-1.1-1.5-1.8-1.9c-0.8-0.4-1.6-0.6-2.5-0.6s-1.7,0.2-2.4,0.6c-0.8,0.4-1.3,1-1.8,1.9
		c-0.4,0.8-0.7,1.8-0.7,3c0,1.8,0.5,3.2,1.4,4.1s2.1,1.5,3.4,1.5C160.3,28.8,161.1,28.6,161.9,28.2z"/>
	<path d="M181.5,15.5c1,0.5,1.8,1.1,2.3,1.9V15h3.4v16.8c0,1.5-0.3,2.9-1,4.1s-1.6,2.1-2.8,2.8c-1.2,0.7-2.7,1-4.3,1
		c-2.2,0-4.1-0.5-5.6-1.6c-1.5-1-2.3-2.5-2.5-4.3h3.4c0.3,0.9,0.8,1.6,1.7,2.1c0.8,0.5,1.9,0.8,3,0.8c1.4,0,2.5-0.4,3.3-1.3
		c0.8-0.8,1.3-2.1,1.3-3.7V29c-0.6,0.8-1.4,1.4-2.4,2c-1,0.5-2.1,0.8-3.4,0.8c-1.4,0-2.8-0.4-3.9-1.1c-1.2-0.7-2.1-1.7-2.8-3.1
		s-1-2.8-1-4.5s0.3-3.1,1-4.4c0.7-1.3,1.6-2.3,2.8-3s2.5-1.1,3.9-1.1C179.3,14.7,180.5,15,181.5,15.5z M183.1,20.2
		c-0.5-0.8-1.1-1.5-1.8-1.9c-0.8-0.4-1.6-0.7-2.5-0.7c-0.9,0-1.7,0.2-2.5,0.6c-0.8,0.4-1.4,1.1-1.8,1.9c-0.5,0.8-0.7,1.8-0.7,3
		c0,1.1,0.2,2.1,0.7,3c0.5,0.9,1.1,1.5,1.9,2c0.8,0.5,1.6,0.7,2.4,0.7c0.9,0,1.7-0.2,2.5-0.7c0.8-0.4,1.4-1.1,1.8-1.9
		c0.5-0.9,0.7-1.8,0.7-3C183.8,22.1,183.5,21.1,183.1,20.2z"/>
</g>
</svg>
