<svg width="30" height="30" viewBox="0 0 30 30" fill="none" xmlns="http://www.w3.org/2000/svg">
<path d="M18.0425 16.1875L26.4737 24.6188C28.4879 22.2412 29.7078 19.2931 29.9625 16.1875H18.0425Z" fill="#6FBE3E"/>
<path d="M14.1412 15.8212L13.7749 15.455V0C11.4197 0.193003 9.14335 0.939748 7.13145 2.17938C5.11955 3.41901 3.429 5.11646 2.19757 7.13339C0.966136 9.15032 0.228664 11.4297 0.0452509 13.7857C-0.138163 16.1417 0.237672 18.5077 1.14213 20.6909C2.04658 22.8741 3.45407 24.8127 5.24988 26.3488C7.04569 27.8849 9.17903 28.9749 11.476 29.5301C13.773 30.0852 16.1687 30.0899 18.4678 29.5435C20.7669 28.9972 22.9045 27.9154 24.7062 26.3863L14.1412 15.8212Z" fill="#6FBE3E"/>
<path d="M16.2749 13.6875H29.9624C29.6673 10.1561 28.1305 6.84347 25.6247 4.33769C23.1189 1.83191 19.8063 0.295072 16.2749 0V13.6875Z" fill="#6FBE3E"/>
</svg>
