<svg width="533" height="155" viewBox="0 0 533 155" fill="none" xmlns="http://www.w3.org/2000/svg">
<path d="M531.949 1.82755C531.874 2.89445 531.719 4.25291 531.537 5.28498C531.481 5.60806 531.539 5.45024 531.499 5.67324C531.42 6.10917 531.316 6.50721 531.22 6.93237C531.189 7.07334 531.274 6.90954 531.24 7.05721C531.048 7.86751 530.809 8.61076 530.532 9.41196C529.754 11.6547 528.693 13.7758 527.307 15.8664C526.262 17.442 524.994 19.035 523.555 20.5611C522.463 21.7297 520.983 23.1621 519.582 24.2907C519.418 24.4229 519.492 24.3147 519.459 24.3378C518.943 24.6989 519.151 24.6249 518.83 24.8951C517.548 25.9691 515.985 27.0979 514.536 28.0318C513.906 28.4365 514.496 27.9649 513.884 28.4105C513.841 28.4414 514.023 28.3709 513.851 28.4861C513.463 28.748 512.695 29.2177 512.377 29.4124C512.337 29.4369 512.3 29.4602 512.264 29.4822C511.75 29.7972 511.625 29.8715 511.07 30.1955C510.253 30.6707 509.282 31.2339 508.319 31.7341C508.116 31.8392 508.365 31.6623 508.039 31.8266C507.715 31.9915 506.848 32.4407 506.554 32.5977C506.261 32.7553 506.402 32.72 506.352 32.7528C505.949 33.0254 504.87 33.4543 504.732 33.516C502.248 34.6603 499.934 35.7115 497.31 36.7511C495.268 37.5597 492.966 38.3867 490.859 39.1101C489.023 39.7413 487.276 40.3188 485.452 40.8854C484.766 41.0985 484.063 41.3115 483.326 41.528C483.041 41.6118 483.362 41.468 483.013 41.5701C479.179 42.6883 475.319 43.716 470.929 44.7933C470.496 44.8993 471.065 44.807 470.632 44.9153C468.029 45.5759 463.603 46.617 461.789 46.7975C459.802 47.2136 457.42 47.6859 455.503 48.0796C454.278 48.3306 455.483 48.1543 453.964 48.4137C453.62 48.4719 454.059 48.3519 453.544 48.442C451.369 48.8222 448.985 49.2465 446.728 49.5964C446.256 49.6694 446.379 49.6133 446.244 49.6288C445.363 49.7323 444.031 49.9884 443.288 50.1283C443.078 50.1679 442.916 50.1983 442.826 50.2138C439.65 50.7518 437.413 51.0605 434.154 51.5133C433.415 51.6152 434.283 51.448 433.57 51.5443C429.865 52.0442 426.014 52.5369 421.957 53.0326C421.075 53.1403 421.892 53.086 421.47 53.1394C419.607 53.3735 419.183 53.3442 417.377 53.5607C416.996 53.606 417.215 53.6169 417.145 53.6283C416.085 53.8049 415.053 53.8297 414.757 53.8592C410.981 54.2321 408.543 54.5625 404.797 54.901C404.337 54.9421 405.387 54.8007 404.061 54.9217C395.519 55.6987 385.766 56.469 375.253 57.158C374.981 57.1759 374.709 57.1936 374.438 57.2113C372.77 57.3192 373.963 57.2789 373.858 57.2895C372.15 57.4577 371.029 57.4379 370.481 57.4668C366.077 57.7021 361.55 58.0099 358.368 58.0641C338.003 59.1049 312.243 59.8374 280.772 60.2311C280.379 60.236 281.084 60.271 280.299 60.2806C270.824 60.3878 272.626 60.304 266.301 60.2627C264.707 60.2521 259.823 60.3673 259.445 60.3747C257.91 60.4055 259.502 60.4629 258.988 60.4695C254.73 60.5204 255.428 60.3142 249.661 60.3202C249.481 60.3207 250.239 60.3581 249.755 60.3622C248.832 60.3701 247.912 60.3675 247.001 60.3672C246.273 60.3671 245.552 60.3693 244.836 60.3771C240.618 60.4346 239.099 60.5368 232.811 60.6284C232.083 60.6456 233.174 60.4775 227.419 60.6776C225.021 60.7383 215.263 61.2303 212.933 61.4194C210.399 61.5958 212.142 61.5173 211.961 61.5308C205.211 62.0593 207.66 61.9125 204.505 62.235C201.384 62.5727 202.239 62.3271 200.969 62.4198C199.69 62.509 195.198 62.9921 194.114 63.1277C193.023 63.258 194.388 63.1368 193.418 63.2484C187.391 63.969 190.762 63.4563 188.781 63.6542C184.153 64.1349 180.54 64.7529 176.775 65.3136C175.731 65.4705 176.579 65.3156 175.649 65.4505C172.018 65.985 169.686 66.3995 165.926 67.0087C165.294 67.1096 162.19 67.5799 160.235 68.0104C159.958 68.0713 160.755 67.9529 159.348 68.2271C157.222 68.6397 153.752 69.3447 151.646 69.7838C150.105 70.1042 151.856 69.6745 149.926 70.1064C149.071 70.2997 150.664 69.9849 149.059 70.3463C147.359 70.7244 143.629 71.5796 142.165 71.9345C140.727 72.2789 141.505 72.0506 141.388 72.0757C140.677 72.2276 137.941 72.8864 137.705 72.9492C136.915 73.1482 136.176 73.3376 135.449 73.5263C124.613 76.3546 115.997 79.1341 107.621 82.0695C106.94 82.3097 107.379 82.1084 107.275 82.1447C104.949 82.9594 106.814 82.4095 105.214 83.0287C105.418 82.8631 104.468 83.2212 102.861 83.8098C102.088 84.0938 102.497 83.9054 102.425 83.9285C101.265 84.309 100.502 84.6724 100.304 84.7624C99.5705 85.0964 98.7471 85.3537 98.2846 85.5705C97.8134 85.7907 98.9423 85.3994 97.504 85.9643C97.0903 86.0944 98.1257 85.5981 97.0318 86.0165C92.7666 87.6232 85.767 90.7221 82.898 92.0747C81.1919 92.8633 80.2184 93.3245 79.3475 93.7399C78.7793 94.0115 78.2615 94.2619 77.6379 94.5689C74.8188 95.9681 75.7914 95.4274 74.1069 96.2358C72.4262 97.0529 73.3053 96.7759 73.0797 96.9252C72.86 97.0724 72.59 97.1733 72.3084 97.3372C72.0279 97.5006 72.662 97.1997 71.987 97.5534C71.3084 97.9064 69.4536 98.8135 69.2057 98.9093C68.6789 99.1096 69.4486 98.6138 67.7262 99.5632C67.6305 99.6163 67.9619 99.4826 67.5945 99.6843C64.7002 101.272 61.67 102.983 59.0913 104.531C58.7309 104.747 59.0767 104.594 58.8674 104.72C56.6997 106.037 57.4443 105.512 56.2204 106.154C56.5467 106.084 55.9046 106.543 54.3286 107.517C53.4036 108.091 53.5388 107.952 52.9273 108.296C52.7435 108.399 52.1159 108.833 51.9882 108.888C51.5676 109.071 52.1218 108.618 50.5952 109.634C50.5286 109.679 50.7649 109.574 50.5331 109.726C49.0522 110.703 48.7929 110.782 47.2758 111.778C46.7349 112.135 46.0161 112.628 45.2759 113.145C44.3763 113.773 43.4464 114.438 42.7398 114.939C42.8326 115.021 41.6431 115.826 41.1268 116.095C40.3322 116.667 39.4819 117.278 38.7409 117.837C38.486 118.03 38.6758 117.934 38.6456 117.961C38.184 118.375 37.8038 118.556 37.6369 118.677C35.8754 119.952 34.5641 121.037 32.9712 122.214C32.9151 122.255 32.7728 122.259 32.3993 122.634C32.3763 122.658 32.9046 122.287 32.1885 122.859C31.4907 123.417 30.2269 124.495 29.2776 125.229C29.0468 125.407 28.4381 125.823 28.0258 126.239C27.9709 126.294 28.0515 126.258 27.9743 126.34C27.7251 126.606 27.5158 126.671 27.2538 126.987C26.9891 127.306 26.3779 127.896 25.4955 128.596C25.4676 128.618 25.2219 128.742 24.9575 128.974C24.589 129.298 24.0969 129.745 23.6919 130.109C23.6326 130.162 23.5752 130.213 23.5201 130.262C23.3139 130.446 23.4179 130.297 23.3816 130.328C22.0175 131.517 21.128 132.38 19.7933 133.652C19.5466 133.887 18.8119 134.503 18.4047 134.957C17.952 135.461 18.5886 135.13 17.448 136.168C16.9917 136.585 16.2503 136.946 15.5784 137.81C14.1102 139.234 12.8912 140.598 11.5746 141.936C11.5164 141.995 11.2848 142.136 11.154 142.279C10.96 142.49 10.8788 142.628 10.7426 142.779C10.412 143.147 10.0929 143.486 9.77995 143.822C9.55393 144.065 9.33122 144.307 9.11048 144.556C8.91108 144.782 9.0071 144.727 8.77108 144.996C8.54229 145.257 8.35689 145.396 8.06973 145.758C7.85364 146.03 7.69825 146.353 7.41056 146.703C7.32884 146.655 7.1254 146.893 6.75219 147.292C6.68051 147.369 6.72871 147.262 6.69352 147.297C6.54979 147.44 6.45001 147.599 6.31342 147.733C6.28025 147.765 6.25447 147.746 6.226 147.771C5.98187 147.987 5.70205 148.434 5.66067 148.503C5.48539 148.787 5.35575 148.879 5.21034 149.084C5.06569 149.289 5.32142 149.016 5.14459 149.248C4.77801 149.73 4.29348 150.318 3.92565 150.781C3.77869 150.965 3.84586 150.813 3.82405 150.839C3.51131 151.213 3.24513 151.624 3.02565 151.766C3.00282 152.152 2.83635 151.972 2.47468 152.511C2.44646 152.553 2.48903 152.667 2.62034 152.523C2.7517 152.378 2.90882 152.123 3.09733 151.921C3.14185 151.873 3.44898 151.639 3.48749 151.6C3.78212 151.302 3.69909 151.158 3.70601 151.135C3.7907 150.881 4.17709 150.566 4.264 150.47C4.65979 150.032 4.96524 149.624 5.30627 149.247C5.5297 149.001 5.62901 149.04 5.79463 148.836C6.34993 148.154 6.46239 147.802 7.12484 147.215C7.26873 147.088 7.22791 147.305 7.6085 146.729C7.63206 146.694 7.90626 146.255 8.14124 146.063C8.17069 146.039 8.19426 146.061 8.22884 146.026C8.46044 145.788 8.58787 145.604 8.83942 145.339C9.09194 145.072 9.41583 144.736 9.70081 144.403C9.80112 144.286 9.90558 144.137 9.99053 144.013C10.0516 143.923 10.1025 143.846 10.134 143.802C10.346 143.505 10.6622 143.263 10.7783 143.061C10.8959 142.857 10.5331 143.134 10.9178 142.668C10.9948 142.708 11.0931 142.729 11.1796 142.76C12.0579 141.806 13.0154 140.754 14.0217 139.723C14.1475 139.595 14.0516 139.758 14.1874 139.621C14.7644 139.039 15.2343 138.516 15.8768 137.891C16.3754 137.407 16.9574 136.9 17.4984 136.389C17.7551 136.003 18.5781 135.252 19.1695 134.679C19.3747 134.48 19.3475 134.471 19.495 134.32C20.0592 133.745 19.8435 134.065 20.0135 133.924C20.7481 133.314 20.6756 133.118 21.5186 132.348C21.5627 132.308 22.1809 131.882 22.2621 131.817C22.7748 131.408 22.3179 131.718 22.6171 131.437C23.054 131.027 23.3736 130.717 23.8587 130.296C23.9821 130.19 24.115 130.077 24.2618 129.955C24.4703 129.783 25.0018 129.4 25.3713 129.013C25.4198 128.962 25.3684 128.962 25.4096 128.924C26.1608 128.228 26.2537 128.29 26.7248 127.933C27.1987 127.574 27.847 126.93 27.9923 126.781C28.3491 126.409 27.6744 127.017 27.6577 127.025C27.3759 127.18 27.8993 126.751 28.3123 126.398C28.3041 126.268 28.887 125.791 28.7369 126.037C28.7193 126.065 28.3916 126.325 28.3123 126.398C28.7391 126.174 29.3826 125.655 30.0388 124.994C30.3475 124.684 29.9917 124.904 31.035 124.083C31.5112 123.71 31.3741 123.912 31.8041 123.592C32.7748 122.87 34.0773 121.761 35.1464 120.954C35.5369 120.658 35.1825 120.98 35.4506 120.78C36.1629 120.247 36.7756 119.746 37.5119 119.214C37.5798 119.165 37.4391 119.322 37.6723 119.148C39.4561 117.824 41.0338 116.646 43.0123 115.254C43.6502 114.806 44.629 114.137 45.5359 113.526C46.033 113.19 46.5074 112.872 46.8851 112.616C48.674 111.4 51.1531 109.72 52.8862 108.651C54.0285 107.946 53.8026 108.137 54.3081 107.856C55.2802 107.314 57.029 106.142 57.2594 105.988C57.2653 105.983 56.2131 106.607 56.7609 106.251C57.0633 106.017 57.2475 105.995 57.2594 105.988C57.4072 105.884 59.5249 104.617 59.9624 104.376C60.1968 104.244 60.0865 104.353 60.2084 104.284C63.1554 102.61 66.2434 100.902 69.5833 99.1192C69.6424 99.0871 69.5323 99.0958 69.6718 99.0208C71.6252 97.9716 72.933 97.3637 74.6188 96.553C76.3194 95.7367 77.7536 95.0288 78.7701 94.458C79.0047 94.3473 79.2568 94.2271 79.5196 94.1013C80.7752 93.4993 82.2587 92.781 83.2266 92.3202C84.4097 91.7572 84.6159 91.76 84.7213 91.7137C88.0847 90.2647 89.8849 89.429 93.6806 87.8496C95.4761 87.1006 98.9927 85.7171 101.158 84.9099C102.815 84.289 103.817 83.8961 105.376 83.3409C105.587 83.2659 105.388 83.3789 105.452 83.3569C107.21 82.7692 106.342 82.9854 106.696 82.8398C107.963 82.3238 108.829 81.9783 111.213 81.1908C111.764 81.0081 113.418 80.5901 114.441 80.2621C115.772 79.8355 115.254 79.9539 116.657 79.5121C116.783 79.4725 116.743 79.5154 117.646 79.2256C121.9 77.8649 126.413 76.5009 131.408 75.1416C132.072 74.9615 131.233 75.2375 132.193 74.9786C133.297 74.6817 134.435 74.3811 135.593 74.081C139.219 73.1395 143.23 72.1631 146.89 71.3221C148.116 71.041 147.34 71.1817 147.606 71.1121C149.271 70.6771 151.706 70.2451 152.108 70.1635C161.667 68.2199 169.733 66.6843 181.862 65.0655C182.539 64.9687 187.883 64.3775 190.311 64.0321C190.509 64.004 192.772 63.6641 195.124 63.4773C195.267 63.4667 193.658 63.6721 196.472 63.3806C199.327 63.0869 203.773 62.7068 208.013 62.344C209.366 62.2277 212.568 61.9091 216.709 61.7348C216.814 61.7225 223.691 61.508 226.238 61.3258C226.652 61.2989 226.194 61.189 231.693 61.0755C232.769 61.0569 230.776 61.1324 233.675 61.072C237.405 60.9975 242.176 60.9121 247.001 60.932C247.913 60.9364 248.825 60.9424 249.721 60.9508C250.533 60.9588 253.985 61.027 256.742 60.9653C257.174 60.9557 256.353 60.9227 257.809 60.9149C264.734 60.8771 272.244 60.8581 279.29 60.7676C281.794 60.735 280.515 60.6909 283.12 60.6487C285.73 60.6071 290.964 60.5271 293.531 60.5146C296.154 60.5017 293.293 60.6361 297.216 60.5828C314.15 60.3466 329.3 59.8739 342.239 59.3687C344.226 59.2904 342.625 59.3862 345.376 59.2774C354.58 58.9237 367.852 58.264 375.289 57.7423C376.367 57.6693 377.357 57.5988 378.238 57.533C383.966 57.0978 376.755 57.5359 381.128 57.221C383.106 57.0767 385.23 57.0305 385.703 56.9996C390.292 56.7011 393.547 56.3962 397.246 56.1008C398.03 56.0376 397.265 56.1452 397.932 56.0907C400.209 55.9049 402.578 55.675 404.714 55.4798C405.62 55.397 405.456 55.4452 406.286 55.3641C408.27 55.17 410.01 54.9847 411.911 54.7599C412.084 54.7393 410.91 54.8185 412.354 54.6692C414.729 54.4232 417.494 54.0946 419.962 53.8448C420.7 53.7697 420.74 53.8415 422.31 53.6061C422.638 53.5563 422.21 53.5181 424.045 53.377C424.348 53.3554 427.452 53.0807 428.783 52.8396C429.152 52.7746 430.088 52.58 430.902 52.4841C431.013 52.4714 430.576 52.5695 431.25 52.4844C433.607 52.186 436.124 51.8318 438.394 51.5127C438.998 51.4277 438.105 51.6006 439.005 51.4724C440.368 51.2777 441.903 51.0448 443.394 50.8075C444.609 50.6142 445.795 50.418 446.842 50.2399C447.702 50.0934 447.102 50.1575 447.164 50.1435C448.127 49.9226 448.699 49.9088 449.019 49.8595C450.996 49.5528 452.471 49.253 454.246 48.9394C454.735 48.8526 454.395 48.9546 454.493 48.9402C455.507 48.7881 454.744 48.8574 455.379 48.7319C457.196 48.3716 459.006 48.024 460.706 47.6863C461.324 47.5635 460.64 47.7482 461.193 47.6374C464.496 46.9754 467.726 46.2614 470.602 45.5572C471.147 45.4234 470.796 45.4706 470.908 45.4359C471.68 45.1965 472.833 44.9941 473.094 44.9368C474.286 44.6772 474.733 44.5321 475.722 44.2852C478.922 43.4865 482.617 42.4498 485.643 41.5066C487.212 41.0204 488.689 40.5382 490.002 40.093C494.963 38.3995 498.502 36.9824 502.452 35.2442C502.703 35.1323 502.469 35.2881 502.686 35.192C505.46 33.9586 507.959 32.687 510.339 31.3704C510.532 31.2636 510.277 31.4574 510.586 31.287C511.22 30.9376 512.001 30.4794 512.603 30.0983C512.612 30.0928 512.62 30.0877 512.627 30.0829C512.872 29.9245 512.487 30.1161 512.774 29.9352C513.461 29.501 514.185 29.0399 514.866 28.6C515.152 28.4152 514.75 28.7346 515.117 28.4927C517.602 26.8495 519.844 25.1286 521.769 23.2987C521.902 23.1718 521.96 22.9961 522.254 22.7443C522.293 22.7429 522.312 22.7658 522.34 22.7769C524.571 20.6939 526.408 18.522 527.908 16.27C528.287 15.7011 528.646 15.1246 528.985 14.5399C529.056 14.4173 528.975 14.6535 529.112 14.4161C529.9 13.0409 530.556 11.7005 531.073 10.2127C531.123 10.0652 531.017 10.1105 531.186 9.68518C531.218 9.60882 531.451 8.96688 531.52 8.80452C531.53 8.78251 531.53 8.91344 531.598 8.70421C531.992 7.48772 532.3 6.17768 532.489 4.90207C532.52 4.69629 532.442 4.9074 532.463 4.76147C532.61 3.73349 532.762 2.60018 532.775 1.58266C532.781 0.901536 532.695 1.15013 532.635 0.786754C532.627 0.735634 532.632 0.312996 532.59 0.290558C532.485 0.233852 532.367 0.436116 532.255 0.351288C532.232 0.333883 532.259 -0.227182 532.2 0.104848C532.197 0.128313 532.173 0.53331 532.15 0.631797C532.135 0.70056 532.095 0.575296 532.074 0.715599C532.053 0.855617 532.085 1.01105 532.055 1.24205C532.023 1.4723 531.981 1.36918 531.949 1.82755ZM88.6405 89.8098C89.7669 89.2793 89.9951 89.3443 88.7447 89.8442C88.6843 89.8683 88.5825 89.8372 88.6405 89.8098ZM12.935 140.684C13.2846 140.222 13.6318 140.003 13.3846 140.333C13.1386 140.662 12.8288 140.824 12.935 140.684ZM9.09935 144.766C9.46391 144.28 9.68569 144.351 9.22149 144.805C9.19466 144.831 9.07813 144.794 9.09935 144.766ZM532.525 2.44724C532.523 2.44215 532.544 2.1442 532.547 2.13707C532.606 1.9816 532.564 2.57859 532.525 2.44724ZM5.82101 148.481C5.90042 148.341 6.24479 147.983 6.13518 148.169C6.0438 148.322 5.71824 148.66 5.82101 148.481ZM176.682 65.4011C176.72 65.3926 178.164 65.1818 178.138 65.199C178.043 65.2521 176.034 65.5332 176.682 65.4011ZM1.35954 154.108C1.93593 153.327 2.168 152.737 1.5318 153.607C1.41778 153.764 1.8283 153.307 1.69202 153.514C1.44289 153.891 1.17722 154.062 0.956635 154.458C0.916383 154.53 1.32626 154.153 1.36077 154.107C1.36036 154.107 1.35995 154.107 1.35954 154.108ZM89.2274 89.3609C89.2488 89.349 90.1699 88.9528 90.1935 88.9453C90.7112 88.7753 88.8553 89.5734 89.2274 89.3609ZM287.908 60.1931C288.129 60.188 294.068 60.1037 294.268 60.1028C297.4 60.1385 285.285 60.3118 287.908 60.1931ZM42.7213 114.956C42.1553 115.295 41.515 115.743 41.1291 116.093C41.6523 115.715 42.1853 115.336 42.7213 114.956Z" fill="#6FBE3E"/>
</svg>
