<svg width="173" height="246" viewBox="0 0 173 246" fill="none" xmlns="http://www.w3.org/2000/svg">
<path d="M6.24186 244.426C9.89077 244.329 14.7017 244.101 18.3025 243.841C19.4366 243.76 18.8647 243.831 19.6469 243.774C21.1758 243.661 22.5927 243.52 24.0922 243.383C24.589 243.337 23.9753 243.441 24.4961 243.392C27.3488 243.121 30.0303 242.791 32.8762 242.409C39.7593 241.484 46.4254 240.272 52.8873 238.803C59.5856 237.279 66.0557 235.481 72.3041 233.432C76.364 232.109 81.1714 230.388 85.0383 228.796C85.4924 228.609 85.2074 228.685 85.2927 228.647C86.6292 228.051 86.207 228.303 87.0914 227.947C90.5959 226.528 94.3216 224.837 97.4345 223.294C97.4532 223.285 97.4714 223.276 97.489 223.267C98.7123 222.656 97.4169 223.218 98.7398 222.607C98.8328 222.564 98.5173 222.765 98.879 222.589C99.7007 222.191 101.231 221.398 101.853 221.074C103.059 220.448 103.24 220.351 104.346 219.753C105.852 218.938 107.629 217.961 109.192 217.036C109.524 216.84 109.066 217.062 109.587 216.748C110.11 216.435 111.489 215.613 111.953 215.338C112.418 215.065 112.238 215.212 112.324 215.168C113.028 214.812 114.544 213.759 114.74 213.628C118.308 211.309 121.323 209.277 124.367 207.018C126.696 205.287 129.029 203.421 131.063 201.721C131.08 201.706 131.097 201.692 131.114 201.678C133.555 199.634 135.5 197.926 137.671 195.869C137.896 195.654 137.6 195.871 137.874 195.61C140.782 192.832 143.502 190.002 146.041 187.151C146.297 186.864 146.002 187.264 146.259 186.979C147.843 185.238 150.177 182.472 150.852 181.279C151.795 180.07 152.887 178.597 153.696 177.513C154.141 176.916 153.876 177.355 154.165 176.939C154.213 176.869 154.277 176.774 154.363 176.646C154.496 176.445 154.286 176.68 154.488 176.381C155.337 175.124 156.237 173.78 157.002 172.523C157.157 172.267 157.084 172.318 157.123 172.243C157.458 171.614 158.141 170.649 158.277 170.43C159.305 168.794 159.976 167.56 160.818 165.987C161.012 165.621 160.741 166.031 160.926 165.679C161.883 163.853 162.802 161.982 163.637 160.184C163.822 159.785 163.693 160.17 163.783 159.98C164.179 159.138 164.188 158.927 164.547 158.127C164.622 157.958 164.614 158.067 164.63 158.038C164.891 157.575 164.986 157.119 165.036 156.993C165.656 155.401 166.13 154.402 166.669 152.858C166.733 152.674 166.545 153.074 166.726 152.557C166.98 151.825 167.23 151.083 167.472 150.333C168.377 147.531 169.15 144.718 169.781 141.983C169.904 141.445 169.852 141.837 169.863 141.804C170.046 141.264 170.035 140.895 170.068 140.72C170.328 139.341 170.627 138.059 170.68 137.1C171.471 132.404 171.815 127.706 171.849 123C171.857 121.838 171.847 120.68 171.819 119.527C171.817 119.453 171.864 119.585 171.86 119.437C171.802 117.655 171.75 117.999 171.595 116.83C171.555 116.535 171.579 115.621 171.578 115.541C171.579 115.247 171.667 115.546 171.664 115.448C171.63 114.635 171.439 114.781 171.327 113.694C171.324 113.66 171.377 113.799 171.371 113.708C171.353 113.423 171.306 113.144 171.287 112.866C171.242 112.23 171.316 111.992 171.128 111.033C171.102 110.911 171.016 111.116 170.881 110.144C170.83 109.754 170.551 108.041 170.467 107.563C170.389 107.083 170.485 107.405 170.481 107.371C170.292 106.075 170.402 106.559 170.349 105.901C170.293 105.242 170.156 105.455 170.084 105.198C170.012 104.941 169.85 103.99 169.809 103.751C169.771 103.515 169.86 103.801 169.821 103.592C169.557 102.208 169.598 103.009 169.465 102.565C169.147 101.519 169.062 100.664 168.811 99.6939C168.743 99.4318 168.773 99.6527 168.706 99.421C168.441 98.5083 168.318 97.934 167.96 96.8928C167.912 96.7524 167.675 96.1681 167.521 95.6515C167.488 95.5402 167.459 95.432 167.437 95.3319C167.419 95.2517 167.522 95.462 167.4 95.0677C167.219 94.4783 166.863 93.4243 166.627 92.8035C166.453 92.3441 166.595 92.8943 166.398 92.303C166.309 92.0397 166.516 92.5123 166.347 92.0184C166.18 91.5265 165.702 90.2857 165.511 89.8164C165.323 89.3473 165.388 89.6194 165.37 89.5824C165.265 89.3583 164.879 88.4681 164.844 88.3893C163.162 84.3825 161.411 80.6999 159.183 76.8729C159.009 76.5745 159.087 76.7953 159.06 76.7499C158.448 75.7363 159.018 76.485 158.63 75.7519C158.616 75.8995 158.384 75.4706 157.934 74.7483C157.717 74.4015 157.804 74.6092 157.782 74.5791C157.422 74.0884 157.253 73.6955 157.207 73.5958C157.036 73.2281 156.751 72.8891 156.631 72.6402C156.51 72.3914 156.893 72.8968 156.449 72.2088C156.299 72.033 156.561 72.587 156.212 72.0727C155.668 71.2715 154.949 70.1936 154.165 69.0607C153.058 67.4527 151.865 65.8126 151.17 64.9023C149.973 63.3372 149.561 62.845 148.841 61.9409C147.525 60.3147 147.966 60.9445 147.105 59.968C146.222 58.9824 146.751 59.3732 146.652 59.2081C146.553 59.0453 146.393 58.9119 146.252 58.7244C146.112 58.5374 146.461 58.903 146.104 58.486C145.749 58.0676 144.699 56.9853 144.541 56.8644C144.209 56.6072 144.617 57.1566 143.645 56.0654C143.588 56.0028 143.803 56.1763 143.586 55.9376C141.869 54.046 139.935 52.0866 138.044 50.2502C137.784 49.9969 138.049 50.1896 137.897 50.0419C136.286 48.4867 136.816 49.0889 135.856 48.314C136.132 48.4225 135.681 47.9083 134.398 46.7669C133.623 46.0826 133.725 46.2361 133.198 45.8215C133.041 45.6978 132.503 45.1929 132.383 45.1203C131.996 44.8871 132.483 45.4004 131.12 44.2115C131.12 44.211 131.119 44.2105 131.118 44.21C131.097 44.1916 131.111 44.1961 131.128 44.2019C131.151 44.2094 131.18 44.2191 131.145 44.1816C131.131 44.1667 131.107 44.1445 131.069 44.1117C129.708 42.9635 129.496 42.8865 127.975 41.688C126.789 40.7511 124.604 39.0292 123.167 37.9807C123.269 37.9027 121.891 36.9409 121.271 36.6092C120.309 35.9252 119.251 35.2027 118.303 34.5511C117.976 34.3269 118.212 34.4429 118.173 34.4119C117.569 33.9354 117.09 33.7176 116.873 33.5785C114.52 32.0714 112.545 30.7679 110.152 29.4169C110.066 29.3688 109.889 29.3606 109.281 28.9335C109.242 28.9055 110.056 29.3371 108.923 28.6716C107.785 28.0025 105.628 26.7322 103.972 25.8883C103.573 25.6832 102.538 25.2076 101.731 24.7278C101.625 24.664 101.756 24.7053 101.604 24.6107C101.11 24.3057 100.789 24.2362 100.215 23.8617C99.7536 23.5621 98.8641 23.0587 97.622 22.461C97.3131 22.3124 96.9824 22.158 96.6311 21.9996C96.5743 21.9738 96.1364 21.8371 95.575 21.5692C94.6844 21.1432 93.4146 20.5381 92.4681 20.1108C92.015 19.9062 92.2877 20.0755 92.2088 20.0406C89.1688 18.7017 86.9159 17.7012 83.493 16.3253C82.8703 16.074 81.0147 15.4163 79.7686 14.9075C78.4015 14.3537 79.9045 14.6716 76.6864 13.5702C75.3887 13.1334 73.6472 12.8036 71.2877 11.8971C66.6498 10.4357 62.1851 9.08063 57.2242 7.88594C57 7.83181 56.2743 7.72673 55.7464 7.59782C54.9628 7.40613 54.5387 7.27088 53.9768 7.13666C53.6333 7.05465 53.2933 6.97519 52.956 6.8978C50.9908 6.44717 49.0819 6.05731 47.0969 5.65306C46.2119 5.47437 46.529 5.50073 45.4707 5.29198C44.4104 5.08552 43.6989 4.99733 42.2514 4.71397C41.1575 4.50108 40.0733 4.21678 38.6062 3.96656C38.5347 4.05061 37.5287 3.88028 35.722 3.63369C35.3745 3.58661 35.7415 3.67432 35.5769 3.65372C34.9074 3.57082 34.2913 3.45441 33.651 3.3827C33.4953 3.36524 33.4836 3.39584 33.356 3.38347C32.2722 3.27753 30.4963 2.97588 30.1897 2.92626C29.0177 2.73207 28.4602 2.70847 27.555 2.58549C26.6502 2.46417 28.009 2.59421 26.9506 2.46351C24.7575 2.1925 21.9181 1.92408 19.6575 1.74285C18.7557 1.67059 19.3677 1.76208 19.2385 1.7527C17.3673 1.61472 15.4907 1.44856 14.4452 1.47269C13.1586 1.18117 13.3175 1.42202 10.6317 1.25509C10.4199 1.24257 10.1546 1.12685 10.9693 1.14724C11.784 1.16795 13.0141 1.26124 14.1386 1.30281C14.4054 1.31113 15.9332 1.30846 16.1406 1.31766C17.7664 1.38066 17.986 1.55684 18.0714 1.57063C19.0405 1.73223 20.9003 1.78158 21.3871 1.81896C23.617 1.98237 25.4931 2.19752 27.3407 2.38231C28.548 2.50507 28.6774 2.41911 29.6212 2.53707C32.7519 2.94113 33.8215 3.23512 36.7481 3.55373C37.3742 3.62608 36.7761 3.41353 38.988 3.85973C39.1275 3.887 40.762 4.24058 41.717 4.35992C41.8371 4.37468 41.839 4.34213 41.9963 4.36731C43.0526 4.53794 43.7408 4.69048 44.8764 4.89396C46.011 5.09767 47.3708 5.34902 48.6492 5.62712C49.4202 5.79394 50.394 6.06566 50.7579 6.16073C51.546 6.36611 52.379 6.51939 53.0083 6.66977C53.2001 6.71558 53.3726 6.76094 53.518 6.80702C54.1443 7.00632 52.8803 6.79068 54.5437 7.2156C54.6249 7.14843 54.7868 7.09821 54.9059 7.03969C58.5794 7.91934 62.0741 8.87559 65.6014 9.90261C66.0383 10.0301 65.6045 9.85563 66.073 9.99162C68.047 10.5675 69.7145 11.1174 71.7097 11.7515C73.2494 12.2412 74.9474 12.7651 76.5033 13.3007C77.4277 13.7249 79.7422 14.527 81.3892 15.1682C81.9656 15.3916 81.9217 15.4026 82.3227 15.5663C83.8352 16.1882 83.1516 15.8317 83.5738 15.9826C85.3782 16.6387 85.4602 16.8765 87.5363 17.7358C87.647 17.7804 89.0237 18.2534 89.2086 18.3279C90.3754 18.787 89.3859 18.4427 90.1002 18.7613C91.4007 19.3456 92.2928 19.7703 93.8141 20.4376C94.2577 20.6319 95.3362 21.0644 96.1584 21.5134C96.2666 21.5723 96.1908 21.5736 96.279 21.6181C96.9859 21.9736 97.3909 22.1571 97.7072 22.2869C98.0963 22.447 98.3504 22.5259 98.8554 22.7548C99.7722 23.1686 101.113 23.9385 101.381 24.1023C102.084 24.5283 100.812 23.8339 100.769 23.8194C100.274 23.6384 101.283 24.1401 102.039 24.5428C102.102 24.6921 103.162 25.2453 102.823 24.9607C102.784 24.9284 102.19 24.6265 102.039 24.5428C102.761 24.8045 103.911 25.3972 105.113 26.1652C105.674 26.5262 105.103 26.2639 106.873 27.2308C107.672 27.6725 107.401 27.4359 108.11 27.8181C109.748 28.7023 111.695 29.9406 113.272 30.9083C113.842 31.2579 113.309 30.8806 113.699 31.1187C114.729 31.7487 115.627 32.3573 116.622 32.9888C116.713 33.0466 116.515 32.868 116.825 33.07C119.162 34.5975 121.174 36.0173 123.449 37.6736C124.558 38.4761 126.515 39.9238 127.609 40.791C128.82 41.7423 130.171 42.8673 131.381 43.8991C132.049 44.4678 132.684 45.0143 133.218 45.4698C134.197 46.3078 134.009 46.0924 134.442 46.4354C135.279 47.0968 136.595 48.4325 136.767 48.6155C136.773 48.6205 135.957 47.8843 136.374 48.2965C136.596 48.5596 136.758 48.6072 136.767 48.6155C136.886 48.7324 138.474 50.2398 138.774 50.5247C138.943 50.6823 138.877 50.5643 138.965 50.6471C141.049 52.6116 143.062 54.6714 144.925 56.7491C144.958 56.7863 144.875 56.7604 144.953 56.8475C146.029 58.0661 146.756 58.8181 147.638 59.803C148.513 60.7826 149.162 61.592 149.589 62.2394C150.216 62.9976 151.058 64.127 151.528 64.7781C151.994 65.4222 152.126 65.4606 152.17 65.5152C153.159 66.7698 153.788 67.6715 154.553 68.7905C154.83 69.197 155.128 69.6375 155.456 70.1272C156.045 70.9957 157.184 72.726 157.781 73.6799C158.255 74.4314 158.518 74.904 158.942 75.5932C158.999 75.6862 158.975 75.5721 158.994 75.6C159.489 76.3521 159.19 76.0266 159.269 76.1949C159.555 76.8065 159.737 77.1804 160.319 78.1673C160.454 78.3946 160.941 79.0053 161.175 79.4262C161.478 79.9734 161.326 79.7873 161.64 80.3608C161.667 80.41 161.688 80.3858 161.873 80.7446C162.72 82.3911 163.577 84.2036 164.357 85.9433C164.463 86.1809 164.37 85.8569 164.524 86.2003C165.24 87.7992 165.958 89.5573 166.535 91.1463C166.676 91.5371 166.554 91.3048 166.576 91.3926C166.717 91.9313 167.063 92.6387 167.106 92.7557C167.464 93.7151 167.767 94.6078 168.045 95.4819C168.595 97.2126 169.054 98.8646 169.585 100.817C169.63 100.977 170.031 102.199 170.082 102.774C170.086 102.814 170.136 103.382 170.297 103.859C170.307 103.888 170.272 103.535 170.4 104.137C170.527 104.736 170.752 105.687 170.862 106.519C170.897 106.782 170.934 107.41 171.129 108.179C171.144 108.228 171.485 109.413 171.448 109.859C171.441 109.931 171.33 109.875 171.515 110.796C171.55 110.972 171.53 110.648 171.608 111.112C171.728 111.824 171.817 112.774 171.957 113.653C171.982 113.806 172.121 114.457 172.114 114.988C172.113 115.071 172.064 114.917 172.085 115.195C172.184 116.528 172.298 117.893 172.33 119.233C172.341 119.707 172.274 119.466 172.277 119.961C172.28 120.455 172.289 121.452 172.319 121.971C172.35 122.49 172.437 121.922 172.449 122.7C172.45 122.8 172.451 122.9 172.452 123C172.476 126.292 172.25 129.498 171.877 132.785C171.819 133.283 171.9 132.873 171.814 133.608C171.524 136.316 170.701 141.008 170.049 143.333C169.543 145.197 170.074 142.826 169.704 144.254C169.524 144.942 169.429 145.713 169.388 145.88C168.987 147.504 168.606 148.63 168.158 150.095C168.065 150.397 168.2 150.115 168.12 150.372C168.103 150.423 168.087 150.475 168.071 150.526C167.807 151.357 167.499 152.21 167.225 152.993C167.094 153.366 167.149 153.308 167.023 153.65C166.717 154.477 166.428 155.203 166.084 155.993C166.053 156.065 166.209 155.558 165.968 156.165C165.578 157.148 165.047 158.35 164.583 159.481C164.443 159.821 164.507 159.865 164.135 160.564C164.056 160.71 164.065 160.481 163.749 161.35C163.699 161.496 163.131 162.943 162.728 163.596C162.623 163.768 162.329 164.195 162.137 164.596C162.111 164.65 162.257 164.453 162.093 164.783C161.51 165.952 160.85 167.176 160.194 168.367C160.019 168.685 160.321 168.234 160.058 168.707C159.337 170.005 158.361 171.618 157.553 172.875C157.256 173.338 157.429 172.998 157.405 173.03C157.01 173.54 156.872 173.904 156.76 174.086C156.058 175.222 155.467 176.03 154.757 177.073C154.562 177.358 154.734 177.18 154.698 177.238C154.687 177.256 154.676 177.273 154.666 177.288C154.331 177.815 154.557 177.377 154.298 177.732C153.552 178.755 152.718 179.9 151.942 180.931C151.657 181.31 152.016 180.913 151.759 181.253C150.216 183.289 148.525 185.354 146.825 187.269C146.503 187.632 146.677 187.379 146.604 187.45C146.106 187.937 145.48 188.751 145.327 188.93C144.632 189.748 144.325 190.034 143.68 190.734C140.522 194.177 136.168 198.282 132.554 201.32C132.193 201.627 131.835 201.927 131.481 202.221C127.221 205.74 123.45 208.542 118.612 211.826C118.278 212.051 118.641 211.863 118.353 212.057C114.634 214.563 110.753 216.926 106.58 219.275C106.238 219.467 106.753 219.23 106.205 219.539C105.077 220.175 103.644 220.947 102.45 221.556C101.869 221.853 102.627 221.413 102.042 221.712C100.68 222.408 99.2087 223.149 97.7873 223.852C97.784 223.854 97.7809 223.856 97.7777 223.857C97.1919 224.147 98.1132 223.747 97.3285 224.13C91.9072 226.769 86.2884 229.197 80.1705 231.422C79.749 231.575 79.3494 231.626 78.4582 231.97C78.3993 232.018 78.4132 232.045 78.3929 232.081C70.4236 234.986 61.9999 237.466 53.0496 239.511C52.0336 239.743 51.0144 239.968 49.9774 240.19C49.5506 240.281 50.2986 240.171 49.4718 240.347C44.6915 241.359 39.9405 242.228 34.8439 242.923C34.3373 242.991 34.586 242.872 33.0935 243.093C32.8315 243.135 30.5746 243.445 29.9891 243.533C29.9098 243.546 30.3286 243.534 29.5978 243.626C25.3491 244.155 20.8423 244.575 16.5107 244.841C15.8134 244.883 16.5529 244.792 16.0561 244.821C12.5388 245.032 8.65047 245.229 5.27288 245.26C2.99856 245.277 3.83886 245.187 2.62802 245.131C2.45705 245.124 1.04419 245.132 0.970584 245.089C0.782636 244.984 1.4664 244.865 1.18507 244.754C1.12627 244.732 -0.766645 244.76 0.354021 244.7C0.432604 244.697 1.80322 244.672 2.13956 244.648C2.37407 244.632 1.95096 244.593 2.42935 244.571C2.90747 244.548 3.43336 244.578 4.22427 244.544C5.01417 244.508 4.66681 244.469 6.24186 244.426ZM153.577 67.6975C153.968 68.3153 154.152 68.3169 153.664 67.6942C153.641 67.6642 153.557 67.6657 153.577 67.6975ZM62.007 9.00572C63.4244 9.46316 64.4247 9.65104 63.4314 9.31611C62.4363 8.98326 61.5743 8.86715 62.007 9.00572ZM46.6415 5.42792C48.4063 5.83694 48.7282 5.6875 46.818 5.34365C46.7068 5.32387 46.5381 5.40426 46.6415 5.42792ZM8.22087 244.987C8.20377 244.987 7.19684 245.016 7.17257 245.018C6.63768 245.083 8.65193 245.024 8.22087 244.987ZM30.628 2.87173C31.2039 2.97206 32.869 3.16275 32.1569 3.03122C31.5844 2.9235 29.9116 2.74451 30.628 2.87173ZM168.874 99.6486C168.875 99.6589 168.971 100.02 168.981 100.009C169.014 99.9743 168.866 99.4755 168.874 99.6486ZM2.33515 0.9571C6.56983 1.01644 9.10651 1.28649 4.52101 1.15082C3.6889 1.13048 6.3155 1.13123 5.25684 1.09373C3.3188 1.02567 2.02671 1.12135 0.03654 1.0601C-0.323416 1.04693 2.09437 0.950367 2.34268 0.956927C2.34017 0.956985 2.33766 0.957042 2.33515 0.9571ZM153.675 68.1437C153.682 68.1566 154.018 68.6349 154.027 68.6454C154.249 68.8766 153.572 67.9125 153.675 68.1437ZM171.903 120.878C171.902 120.905 171.918 122.081 171.92 122.12C172.008 122.733 171.978 120.354 171.903 120.878ZM123.146 37.9616C122.497 37.5472 121.751 37.0208 121.274 36.6113C121.907 37.0621 122.527 37.5069 123.146 37.9616Z" fill="#6FBE3E"/>
</svg>
